<svg width="32" height="32" viewBox="0 0 32 32" fill="none" xmlns="http://www.w3.org/2000/svg">
<g clip-path="url(#clip0_307_8541)">
<path d="M32 0H0V32H32V0Z" fill="#153279"/>
<mask id="mask0_307_8541" style="mask-type:luminance" maskUnits="userSpaceOnUse" x="0" y="0" width="32" height="32">
<path d="M32 0H0V32H32V0Z" fill="white"/>
</mask>
<g mask="url(#mask0_307_8541)">
<path d="M19.8308 15.8029L32.0001 0H30.2031L17.9941 15.8029H19.8308Z" fill="#E7292A"/>
<path d="M24.4515 22.8578C25.0108 24.4194 26.1568 28.4778 26.6152 28.8018H23.5989C23.5989 28.8018 23.5867 28.2028 23.4553 27.7383C23.3238 27.2738 22.2328 23.7623 22.2328 23.7623H17.4409L16.6861 24.832C16.6861 24.832 17.5907 27.6649 17.6487 27.8055C17.7465 28.0561 18.1805 28.8048 18.1805 28.8048H15.2895C15.2895 28.8048 15.2131 28.3709 15.1856 28.1906C15.1642 28.0439 14.9136 27.2493 14.9136 27.2493C14.9136 27.2493 14.2565 27.9675 14.0793 28.3006C13.899 28.6337 13.8195 28.8048 13.8195 28.8048H11.558C11.558 28.8048 11.4816 28.3709 11.4541 28.1906C11.4327 28.0439 11.1546 27.1851 11.1546 27.1851C11.1546 27.1851 10.522 27.9553 10.3417 28.2853C10.1645 28.6184 10.085 28.8048 10.085 28.8048H7.84796C7.84796 28.8048 8.48056 28.2028 8.7006 27.943C9.07344 27.506 10.4609 25.6907 10.4609 25.6907L9.90469 23.7623H5.1464C5.1464 23.7623 2.43568 27.3257 2.32872 27.4357C2.22176 27.5457 1.43024 28.6795 1.4119 28.8018H0V27.9033C0.0275045 27.8758 0.0458409 27.8544 0.0550091 27.8483C0.0977939 27.8177 2.11174 25.3179 3.96065 22.8547C5.62315 20.7063 7.18174 18.6159 7.31621 18.4173C7.64626 17.9375 8.123 16.8984 8.123 16.8984H10.5831C10.5831 16.8984 10.6595 17.855 10.7298 18.0872C10.794 18.292 12.2915 23.2092 12.3281 23.2612L13.1563 22.2007L11.7414 17.8428C11.7414 17.8428 11.4083 17.0237 11.3013 16.8984H14.174C14.174 16.8984 14.1526 17.3202 14.2687 17.6808C14.3849 18.0414 15.0022 20.2632 15.0022 20.2632C15.0022 20.2632 16.9611 17.8061 17.0773 17.6319C17.2912 17.3355 17.3187 16.9015 17.3187 16.9015H19.7116C19.7116 16.9015 19.2746 17.2224 18.5044 18.1942C18.2477 18.5212 15.7204 21.7331 15.7204 21.7331C15.7204 21.7331 15.9404 22.4849 16.0474 22.8578C16.0779 22.9647 16.0963 23.0381 16.0963 23.0472C16.0963 23.0503 16.1513 22.9831 16.2491 22.8578C16.9 22.0326 19.8674 18.1423 20.0477 17.8091C20.1914 17.5402 20.4053 17.2346 20.5306 16.9015H22.8654C22.8654 16.9015 22.9204 17.5983 22.9907 17.7908L24.4515 22.8578ZM20.8973 19.1752C20.5551 19.9117 18.535 22.3688 18.535 22.3688H21.7316C21.7316 22.3688 21.1113 20.4618 21.0043 20.0309C20.9187 19.6886 20.9401 19.2485 20.9401 19.1966C20.9401 19.1569 20.934 19.0927 20.8973 19.1752ZM8.61809 19.1752C8.27581 19.9117 6.25881 22.3688 6.25881 22.3688H9.45545C9.45545 22.3688 8.83507 20.4618 8.7281 20.0309C8.64254 19.6886 8.66393 19.2485 8.66393 19.1966C8.66393 19.1569 8.65476 19.0927 8.61809 19.1752ZM13.4314 26.6259L14.3115 25.4187C14.229 25.3332 13.7339 23.8296 13.7339 23.8296L12.8843 24.9328L13.4314 26.6259Z" fill="white"/>
</g>
</g>
<defs>
<clipPath id="clip0_307_8541">
<rect width="32" height="32" fill="white"/>
</clipPath>
</defs>
</svg>
