<svg width="24" height="24" viewBox="0 0 24 24" fill="none" xmlns="http://www.w3.org/2000/svg">
<path d="M21.0134 11.23C20.8866 11.1413 20.9016 10.9487 21.0445 10.8877C21.5379 10.679 21.8895 10.2087 21.8895 9.63692C21.8895 8.87381 21.2808 8.27553 20.5039 8.27553H19.237C19.207 8.27553 19.1794 8.25593 19.1701 8.22712L18.4427 6.09108C18.105 4.96369 16.89 4.06801 15.675 4C15.6727 4 15.6716 4 15.6692 4H8.45652C8.45652 4 8.45306 4 8.45076 4C7.23577 4.06801 6.02077 4.96369 5.68302 6.09108L4.95564 8.22712C4.94642 8.25593 4.91875 8.27553 4.88878 8.27553H3.62191C2.84496 8.27553 2.23631 8.87265 2.23631 9.63692C2.23631 10.2087 2.5879 10.679 3.08127 10.8877C3.22421 10.9476 3.2392 11.1413 3.1124 11.23C2.44957 11.6911 2 12.46 2 13.3222V17.0468C2 17.6208 2.43574 18.0716 2.97983 18.1073C3.01787 18.1096 3.04784 18.1396 3.04784 18.1776V19.1701C3.04784 19.6347 3.41903 20.0001 3.89281 20.0001H5.61616C6.08879 20.0001 6.46112 19.6347 6.46112 19.1701V18.1799C6.46112 18.1407 6.49225 18.1096 6.53144 18.1096C7.01675 18.1096 9.90552 18.1131 11.796 18.1038C13.8687 18.1142 17.0837 18.1107 17.5955 18.1096C17.6347 18.1096 17.6658 18.1407 17.6658 18.1799V19.1701C17.6658 19.6347 18.037 20.0001 18.5108 20.0001H20.2341C20.7067 20.0001 21.0791 19.6347 21.0791 19.1701V18.1776C21.0791 18.1396 21.109 18.1096 21.1471 18.1073C21.69 18.0727 22.1269 17.6208 22.1269 17.0468V13.3222C22.1269 12.46 21.6762 11.6911 21.0145 11.23H21.0134Z" fill="#7F98F8"/>
<path d="M13.4525 9.76959H6.10489C5.81555 9.76959 5.60921 9.48832 5.69566 9.21281L6.60172 6.32404C6.83803 5.52749 7.78444 4.83008 8.66283 4.83008H15.6104C16.4888 4.83008 17.4352 5.52749 17.6715 6.32404L18.5776 9.21281C18.664 9.48832 18.4577 9.76959 18.1684 9.76959H13.4513H13.4525Z" fill="#EBEFF5"/>
<path d="M6.31989 14.548C7.04885 14.548 7.63979 13.9571 7.63979 13.2281C7.63979 12.4991 7.04885 11.9082 6.31989 11.9082C5.59094 11.9082 5 12.4991 5 13.2281C5 13.9571 5.59094 14.548 6.31989 14.548Z" fill="#EBEFF5"/>
<path d="M17.9039 14.548C18.6328 14.548 19.2238 13.9571 19.2238 13.2281C19.2238 12.4991 18.6328 11.9082 17.9039 11.9082C17.1749 11.9082 16.584 12.4991 16.584 13.2281C16.584 13.9571 17.1749 14.548 17.9039 14.548Z" fill="#EBEFF5"/>
</svg>
