<svg width="20" height="20" viewBox="0 0 20 20" fill="none" xmlns="http://www.w3.org/2000/svg">
<path d="M18.3334 10.0003C18.3334 14.6027 14.6024 18.3337 10 18.3337C5.39765 18.3337 1.66669 14.6027 1.66669 10.0003C1.66669 5.39795 5.39765 1.66699 10 1.66699C14.6024 1.66699 18.3334 5.39795 18.3334 10.0003Z" fill="currentColor"/>
<path fill-rule="evenodd" clip-rule="evenodd" d="M14.3393 6.91107C14.6647 7.23651 14.6647 7.76414 14.3393 8.08958L9.06148 13.3674C8.73604 13.6928 8.2084 13.6928 7.88297 13.3674L5.24408 10.7285C4.91864 10.403 4.91864 9.8754 5.24408 9.54996C5.56951 9.22452 6.09715 9.22452 6.42259 9.54996L8.47222 11.5996L13.1607 6.91107C13.4862 6.58563 14.0138 6.58563 14.3393 6.91107Z" fill="white"/>
</svg>
