<svg width="50" height="50" viewBox="0 0 50 50" fill="none" xmlns="http://www.w3.org/2000/svg">
<circle cx="25" cy="24.9992" r="19.1945" fill="#FFF787"/>
<circle cx="25.0002" cy="24.9959" r="16.1638" fill="#FCDA13"/>
<path d="M20.2759 32.4682L18.9592 26.4559H17.0021V24.6178H18.55L17.2334 18.6055H19.6887L20.8453 24.6178H22.5711L23.8522 18.6055H26.1474L27.4285 24.6178H29.1632L30.3109 18.6055H32.7662L31.4496 24.6178H32.9975V26.4559H31.0403L29.7237 32.4682H27.126L25.8538 26.4559H24.1458L22.8736 32.4682H20.2759ZM21.1922 26.4559L21.6103 28.6196H21.7171L22.1797 26.4559H21.1922ZM24.5372 24.6178H25.4624L25.0443 22.6264H24.9553L24.5372 24.6178ZM27.8199 26.4559L28.2825 28.6387H28.3893L28.8074 26.4559H27.8199Z" fill="#ECC006" stroke="#ECC006" stroke-width="0.625" stroke-linejoin="round"/>
</svg>
