<svg width="30" height="36" viewBox="0 0 30 36" fill="none" xmlns="http://www.w3.org/2000/svg">
<path d="M9.14384 14.4135C8.09754 13.4827 6.82405 12.7158 5.28819 12.1932C4.51706 11.9303 3.24678 11.5469 2.16208 11.5469C1.23097 11.5469 0.434238 11.8345 0.232657 12.7312C-0.154508 14.4413 0.0278753 29.1485 0.165463 30.8524C0.261454 32.1048 0.808604 32.8346 2.32526 32.8036C12.9067 32.6397 15.6808 20.2425 9.14704 14.4104L9.14384 14.4135Z" fill="url(#paint0_linear_307_8656)"/>
<path d="M21.2696 2.60066C20.3192 1.75645 19.1513 1.06067 17.7691 0.587545C17.0651 0.34325 15.9132 0 14.9277 0C14.0766 0 13.3567 0.265942 13.1679 1.07923C12.8191 2.62849 12.9855 15.9843 13.1071 17.5336C13.1999 18.6654 13.6895 19.3271 15.0685 19.3055C24.6772 19.1509 27.2018 7.89475 21.2664 2.60066H21.2696Z" fill="url(#paint1_linear_307_8656)"/>
<path d="M25.5152 15.0108C24.3217 13.947 22.853 13.0719 21.1156 12.4813C20.2292 12.1751 18.7766 11.7422 17.5447 11.7422C16.476 11.7422 15.5641 12.07 15.3337 13.0966C14.8889 15.0479 15.1033 31.8239 15.2601 33.7689C15.3785 35.1976 15.9896 36.0233 17.7207 35.9985C29.7964 35.813 32.9737 21.6686 25.5152 15.0108Z" fill="url(#paint2_linear_307_8656)"/>
<defs>
<linearGradient id="paint0_linear_307_8656" x1="12.4702" y1="22.9802" x2="-0.601613" y2="22.8504" gradientUnits="userSpaceOnUse">
<stop offset="0.1" stop-color="#EE7800"/>
<stop offset="0.26" stop-color="#EB7201"/>
<stop offset="0.46" stop-color="#E56106"/>
<stop offset="0.69" stop-color="#DB460F"/>
<stop offset="0.94" stop-color="#CC211A"/>
<stop offset="1" stop-color="#C9171E"/>
</linearGradient>
<linearGradient id="paint1_linear_307_8656" x1="13.7056" y1="9.43927" x2="25.4042" y2="9.55547" gradientUnits="userSpaceOnUse">
<stop stop-color="#21AEE5"/>
<stop offset="0.55" stop-color="#0F7EC3"/>
<stop offset="1" stop-color="#0055A7"/>
</linearGradient>
<linearGradient id="paint2_linear_307_8656" x1="13.9943" y1="22.6246" x2="31.2853" y2="22.7964" gradientUnits="userSpaceOnUse">
<stop stop-color="#8FC31F"/>
<stop offset="0.14" stop-color="#89C021"/>
<stop offset="0.31" stop-color="#78BA26"/>
<stop offset="0.52" stop-color="#5DB030"/>
<stop offset="0.73" stop-color="#37A23D"/>
<stop offset="0.96" stop-color="#08904E"/>
<stop offset="1" stop-color="#008D51"/>
</linearGradient>
</defs>
</svg>
