<svg width="29" height="27" viewBox="0 0 29 27" fill="none" xmlns="http://www.w3.org/2000/svg">
<path d="M8.21228 19.271C8.24094 19.3183 8.28392 19.3656 8.33168 19.4035C8.4463 19.484 8.55614 19.5692 8.67076 19.6496C8.78061 19.7396 8.89045 19.8295 9.00507 19.9147C9.05283 19.9526 9.10536 19.981 9.16267 19.9999C13.7045 23.2045 17.6636 24.9086 20.9446 25.0648C21.0402 25.0696 21.1357 25.0696 21.2264 25.0696C23.0985 25.0696 24.8942 24.1844 26.0787 22.6649L27.5544 20.7715C28.2755 19.8484 28.1036 18.5136 27.1675 17.7988L22.7117 14.3859C22.258 14.0404 21.6992 13.8889 21.1309 13.9599C20.5626 14.0309 20.0611 14.3196 19.7125 14.7646L18.2558 16.6344C18.2415 16.6533 18.2176 16.6912 18.2081 16.7101C18.2033 16.7196 18.0457 17.0036 17.5777 17.0888C16.9711 17.2024 15.5384 17.0462 12.7159 14.6841L12.4723 14.4948C9.4731 12.3978 8.95731 11.0629 8.91433 10.4523C8.8809 9.98368 9.11491 9.76121 9.11491 9.76121C9.14357 9.73754 9.16745 9.71387 9.18655 9.68547L10.6432 7.81571C11.3643 6.89266 11.1924 5.55779 10.2563 4.84303L5.72408 1.37332C4.79279 0.658549 3.44601 0.828956 2.72486 1.75674L1.24913 3.65016C0.0503948 5.18858 -0.317343 7.32815 0.284411 9.24051C1.27301 12.3552 3.93792 15.7255 8.21228 19.271Z" fill="#580026"/>
<path opacity="0.9" d="M1.5 24.9316L26.353 1.93164M27 24.9316L2 1.93164" stroke="#E85156" stroke-width="2.2069" stroke-linecap="round"/>
</svg>
