<svg width="25" height="24" viewBox="0 0 25 24" fill="none" xmlns="http://www.w3.org/2000/svg">
<path d="M3.33203 4.5C3.33203 3.55719 3.33203 3.08579 3.62492 2.79289C3.91782 2.5 4.38922 2.5 5.33203 2.5H19.0273C19.9701 2.5 20.4415 2.5 20.7344 2.79289C21.0273 3.08579 21.0273 3.55719 21.0273 4.5V20.3231C21.0273 20.9831 21.0273 21.3131 20.8223 21.5181C20.6172 21.7231 20.2872 21.7231 19.6273 21.7231H18.0781H15.1289H12.1797H9.23045H6.64989H4.73203C4.07207 21.7231 3.74208 21.7231 3.53706 21.5181C3.33203 21.3131 3.33203 20.9831 3.33203 20.3231V4.5Z" fill="#C390F4"/>
<line x1="6.82969" y1="13.2563" x2="17.3182" y2="13.2563" stroke="white" stroke-width="1.3" stroke-linecap="round" stroke-linejoin="round"/>
<line x1="6.82969" y1="16.1078" x2="15.5297" y2="16.1078" stroke="white" stroke-width="1.3" stroke-linecap="round" stroke-linejoin="round"/>
<line x1="6.82969" y1="10.1664" x2="15.5297" y2="10.1664" stroke="white" stroke-width="1.3" stroke-linecap="round" stroke-linejoin="round"/>
<line x1="6.72617" y1="7.31484" x2="12.4262" y2="7.31484" stroke="white" stroke-width="1.3" stroke-linecap="round" stroke-linejoin="round"/>
</svg>
