<svg width="120" height="76" viewBox="0 0 120 76" fill="none" xmlns="http://www.w3.org/2000/svg">
<mask id="mask0_224_10786" style="mask-type:alpha" maskUnits="userSpaceOnUse" x="0" y="0" width="120" height="76">
<rect width="120" height="76" fill="#D9D9D9"/>
</mask>
<g mask="url(#mask0_224_10786)">
<path d="M26.7129 43.3007L62.3413 11.6882C65.356 9.01329 69.8941 9.01329 72.9088 11.6882L108.537 43.3007V85.2626C108.537 85.6365 108.234 85.9397 107.86 85.9397H27.39C27.016 85.9397 26.7129 85.6365 26.7129 85.2626V43.3007Z" fill="url(#paint0_linear_224_10786)"/>
<g filter="url(#filter0_d_224_10786)">
<path fill-rule="evenodd" clip-rule="evenodd" d="M28.3775 31.7571C27.7591 31.8665 27.3448 32.4569 27.452 33.076L33.3686 67.2229C33.4758 67.8419 34.0641 68.2551 34.6824 68.1458L105.429 55.6384C106.048 55.5291 106.462 54.9386 106.355 54.3196L104.164 41.6779C100.709 42.1949 97.4864 40.0032 96.9161 36.7113C96.3457 33.4193 98.64 30.2522 102.063 29.5532L100.438 20.1727C100.331 19.5536 99.7426 19.1404 99.1242 19.2497L28.3775 31.7571Z" fill="#ECC006"/>
</g>
<path d="M45.5977 50.1889C43.7634 50.5132 42.2731 49.7351 41.9853 48.2802L43.7389 47.9702C43.8758 48.5888 44.5525 48.8917 45.3611 48.7547C46.1907 48.6021 46.7048 48.0351 46.582 47.3604C46.4697 46.678 45.781 46.3058 44.7994 46.4734L44.0264 46.61L43.8043 45.328L44.5772 45.1913C45.4021 45.0455 45.9009 44.4931 45.7811 43.8358C45.6758 43.1937 45.1094 42.8415 44.372 42.9779C43.6327 43.1026 43.0991 43.6255 43.1813 44.2716L41.52 44.5653C41.2997 43.1223 42.4187 41.8948 44.1319 41.5919C45.874 41.2839 47.2125 42.1126 47.4359 43.4361C47.6037 44.3706 47.067 45.1499 46.1615 45.4826L46.1735 45.5519C47.4282 45.4848 48.2322 46.1105 48.4018 47.1578C48.6614 48.5879 47.484 49.8555 45.5977 50.1889ZM53.2927 48.8285C51.1988 49.1987 49.6654 47.8628 49.1911 45.1256C48.7178 42.3941 49.7215 40.6037 51.8039 40.2356C53.8862 39.8674 55.4322 41.207 55.9055 43.9385C56.3818 46.6873 55.3809 48.4594 53.2927 48.8285ZM50.9678 44.8115C51.2904 46.7423 52.0755 47.5677 53.0446 47.3964C54.0137 47.225 54.4688 46.1804 54.1288 44.2526C53.8034 42.3401 53.0143 41.4916 52.05 41.6562C51.0877 41.8322 50.6366 42.9 50.9678 44.8115ZM59.2045 46.7835L58.7827 50.2505L57.5598 50.4667L57.5663 47.0731L59.2045 46.7835ZM63.7912 46.9725C61.6973 47.3427 60.1638 46.0068 59.6896 43.2695C59.2163 40.538 60.2199 38.7477 62.3023 38.3795C64.3847 38.0114 65.9307 39.351 66.404 42.0825C66.8802 44.8313 65.8793 46.6033 63.7912 46.9725ZM61.4662 42.9554C61.7889 44.8863 62.574 45.7117 63.543 45.5403C64.5121 45.369 64.9673 44.3244 64.6273 42.3966C64.3019 40.4841 63.5128 39.6356 62.5485 39.8001C61.5861 39.9762 61.135 41.044 61.4662 42.9554ZM71.59 45.5937C69.4961 45.9639 67.9627 44.628 67.4884 41.8908C67.0151 39.1593 68.0188 37.3689 70.1012 37.0008C72.1836 36.6326 73.7295 37.9722 74.2028 40.7037C74.6791 43.4525 73.6782 45.2246 71.59 45.5937ZM69.2651 41.5767C69.5877 43.5075 70.3728 44.3329 71.3419 44.1616C72.311 43.9902 72.7661 42.9456 72.4261 41.0178C72.1007 39.1053 71.3116 38.2568 70.3473 38.4214C69.385 38.5974 68.9339 39.6652 69.2651 41.5767ZM79.3889 44.2149C77.295 44.5851 75.7615 43.2493 75.2873 40.512C74.814 37.7805 75.8176 35.9901 77.9 35.622C79.9824 35.2538 81.5284 36.5934 82.0017 39.3249C82.4779 42.0738 81.4771 43.8458 79.3889 44.2149ZM77.0639 40.1979C77.3866 42.1287 78.1717 42.9541 79.1408 42.7828C80.1098 42.6115 80.565 41.5668 80.225 39.639C79.8996 37.7265 79.1105 36.8781 78.1462 37.0426C77.1839 37.2187 76.7327 38.2864 77.0639 40.1979ZM90.8397 32.3464L92.2145 40.281L90.7378 40.5421L90.5937 39.7105L88.5863 40.0654L88.4122 39.0606L90.4196 38.7057L89.363 32.6074L90.8397 32.3464ZM82.7167 38.5795C84.6356 38.2284 87.2264 37.7406 89.4002 37.0766L89.663 38.1133C88.8564 38.3988 88.0139 38.6489 87.177 38.8623L87.5232 40.8604L86.0465 41.1215L86.2966 42.5652L92.6534 41.4414L92.8575 42.6195L85.0356 44.0023L84.4912 40.8608L85.9564 40.6018L85.7153 39.21C84.781 39.4109 83.8879 39.5747 83.0919 39.7155L82.7167 38.5795ZM83.0714 36.029C82.8773 34.9087 83.8229 33.9499 85.3872 33.6793C86.909 33.4043 88.1323 33.9797 88.3322 35.099C88.5215 36.2261 87.5574 37.1464 86.0335 37.4099C84.4713 37.692 83.2665 37.1551 83.0714 36.029ZM84.4674 35.7822C84.5497 36.2914 85.1005 36.4857 85.8494 36.3473C86.5542 36.2287 87.0128 35.856 86.9362 35.3457C86.8347 34.828 86.277 34.629 85.5733 34.7535C84.8234 34.886 84.3716 35.2635 84.4674 35.7822Z" fill="white"/>
<path d="M69.7676 67.7421L69.7676 79.0832L27.4891 85.8169C27.0779 85.8824 26.7055 85.5646 26.7055 85.1482L26.7055 43.3027L69.7676 67.7421Z" fill="url(#paint1_linear_224_10786)"/>
<path d="M65.4219 67.7421L65.4219 79.0832L107.756 85.8171C108.168 85.8825 108.54 85.5647 108.54 85.1484L108.54 43.3027L65.4219 67.7421Z" fill="url(#paint2_linear_224_10786)"/>
<path d="M26.709 75.4169L62.1854 53.3601C65.4946 51.3027 69.6851 51.3027 72.9943 53.3601L108.471 75.4169V82.3229C108.471 82.6968 108.168 83 107.794 83H27.3861C27.0121 83 26.709 82.6968 26.709 82.3229V75.4169Z" fill="url(#paint3_linear_224_10786)"/>
</g>
<defs>
<filter id="filter0_d_224_10786" x="26.5323" y="18.3296" width="80.7421" height="50.7373" filterUnits="userSpaceOnUse" color-interpolation-filters="sRGB">
<feFlood flood-opacity="0" result="BackgroundImageFix"/>
<feColorMatrix in="SourceAlpha" type="matrix" values="0 0 0 0 0 0 0 0 0 0 0 0 0 0 0 0 0 0 127 0" result="hardAlpha"/>
<feOffset/>
<feGaussianBlur stdDeviation="0.451403"/>
<feComposite in2="hardAlpha" operator="out"/>
<feColorMatrix type="matrix" values="0 0 0 0 0 0 0 0 0 0 0 0 0 0 0 0 0 0 0.25 0"/>
<feBlend mode="normal" in2="BackgroundImageFix" result="effect1_dropShadow_224_10786"/>
<feBlend mode="normal" in="SourceGraphic" in2="effect1_dropShadow_224_10786" result="shape"/>
</filter>
<linearGradient id="paint0_linear_224_10786" x1="67.6251" y1="7" x2="67.6251" y2="85.9397" gradientUnits="userSpaceOnUse">
<stop stop-color="white" stop-opacity="0.8"/>
<stop offset="0.338542" stop-color="white" stop-opacity="0.822086"/>
<stop offset="0.848958" stop-color="#AEAEAE"/>
</linearGradient>
<linearGradient id="paint1_linear_224_10786" x1="69.7676" y1="64.6222" x2="26.7055" y2="64.6222" gradientUnits="userSpaceOnUse">
<stop stop-color="#A6AFD4"/>
<stop offset="0.0001" stop-color="#FEFEFE"/>
<stop offset="1" stop-color="#EDEDED"/>
</linearGradient>
<linearGradient id="paint2_linear_224_10786" x1="65.4219" y1="64.6222" x2="108.54" y2="64.6222" gradientUnits="userSpaceOnUse">
<stop stop-color="#A6AFD4"/>
<stop offset="0.0001" stop-color="#FEFEFE"/>
<stop offset="1" stop-color="#EDEDED"/>
</linearGradient>
<linearGradient id="paint3_linear_224_10786" x1="67.5898" y1="50" x2="67.5898" y2="83" gradientUnits="userSpaceOnUse">
<stop stop-color="white"/>
<stop offset="1" stop-color="#DCDCDC"/>
</linearGradient>
</defs>
</svg>
