<svg width="32" height="32" viewBox="0 0 32 32" fill="none" xmlns="http://www.w3.org/2000/svg">
<g clip-path="url(#clip0_307_8571)">
<path d="M12.6145 3.09392C12.6145 4.77348 14.0058 6.09945 15.7681 6.09945C17.5304 6.09945 18.9217 4.77348 18.9217 3.09392C18.9217 2.82873 18.9217 2.56354 18.7362 2.38674C18.458 1.85635 18.1797 1.59116 18.1797 0.883978C18.1797 0 17.0667 0 16.4174 0C15.6754 0 14.9333 0.0883978 14.3768 0.353591C13.9131 0.618785 13.4493 0.972376 13.171 1.41437C12.8928 1.85635 12.7073 2.38674 12.7073 3.00553" fill="#DA2128"/>
<path d="M0 9.54642C0 9.54642 1.11304 11.3144 3.71014 11.7564C7.51304 12.3751 13.3565 12.1984 15.3043 12.0216C19.571 11.668 22.9101 11.0492 25.5072 10.342C25.5072 10.342 29.0319 9.36962 30.7014 8.48565C31.3507 8.13206 32.2783 7.51327 31.9072 6.89449C31.7217 6.5409 31.258 6.5409 30.3304 6.71769C29.0319 6.98288 25.3217 7.69007 19.3855 7.86686C16.6957 7.95526 13.6348 7.95526 10.6667 7.69007C8.16232 7.51327 3.52464 6.80609 2.50435 6.62929" fill="#009476"/>
<path d="M17.2523 31.9994C18.2726 31.2038 20.2204 28.9054 21.2407 26.6071C21.7972 25.3695 23.1885 22.1872 22.7248 18.9165C22.261 16.4413 20.5914 14.9386 19.2001 14.2314C17.0668 13.1706 14.5624 13.0822 12.4291 14.2314C8.99722 16.0878 7.88417 20.1541 9.832 23.5132C11.5016 25.9883 13.7277 25.3695 14.2842 24.7507C15.119 23.9552 14.7479 23.0712 14.2842 22.5408C13.4494 21.5684 13.3566 20.8612 13.3566 20.4192C13.3566 19.0933 14.4697 18.0325 15.861 18.0325C16.603 18.0325 17.2523 18.2977 17.7161 18.8281C18.3653 19.5353 18.4581 20.596 18.3653 21.48C18.0871 26.5187 15.9537 30.9386 15.7682 31.2038" fill="#009476"/>
</g>
<defs>
<clipPath id="clip0_307_8571">
<rect width="32" height="32" fill="white"/>
</clipPath>
</defs>
</svg>
