<svg width="35" height="31" viewBox="0 0 35 31" fill="none" xmlns="http://www.w3.org/2000/svg">
<g clip-path="url(#clip0_307_8553)">
<path d="M12.6512 15.8912C12.2065 11.861 16.4375 8.62844 22.105 8.67642C27.7724 8.7184 32.7247 12.0229 33.1694 16.0471C33.6142 20.0773 29.3831 23.3098 23.7157 23.2618C18.0542 23.2198 13.096 19.9213 12.6512 15.8852M34.2272 17.1386C33.7164 12.1429 28.0128 8.0527 21.492 7.99273C14.9711 7.93875 10.0969 11.9449 10.6078 16.9467C11.1187 21.9424 16.8222 26.0386 23.3491 26.0926C29.8699 26.1465 34.7441 22.1403 34.2332 17.1386" fill="#F4B182"/>
<path d="M24.3766 26.196C21.1673 29.5425 16.0107 29.8244 12.8674 26.8138C9.71818 23.8091 9.77227 18.6574 12.9876 15.305C16.197 11.9585 21.3596 11.6826 24.5029 14.6872C27.6521 17.6919 27.598 22.8495 24.3826 26.196M12.4828 15.203C8.75057 19.0952 8.69047 25.0865 12.3446 28.577C16.0047 32.0734 21.9967 31.7495 25.7289 27.8573C29.4671 23.965 29.5212 17.9797 25.8671 14.4773C22.213 10.9809 16.221 11.3108 12.4828 15.197" fill="#EF976A"/>
<path d="M12.8131 2.66995C19.4963 0.169081 26.1013 2.69994 27.5677 8.3134C29.0402 13.9329 24.8091 20.5119 18.132 23.0068C11.4549 25.5076 4.84984 22.9768 3.37738 17.3633C1.91093 11.7499 6.13598 5.17082 12.8131 2.66995ZM6.61077 4.81698C-0.318788 10.2925 -2.08574 18.2269 2.6682 22.539C7.42213 26.851 16.8999 25.9095 23.8295 20.4279C30.7591 14.9524 32.526 7.01799 27.7721 2.70594C23.0121 -1.60612 13.5403 -0.664543 6.61077 4.81698Z" fill="#E87127"/>
</g>
<defs>
<clipPath id="clip0_307_8553">
<rect width="34.2632" height="31" fill="white"/>
</clipPath>
</defs>
</svg>
