<svg width="24" height="25" viewBox="0 0 24 25" fill="none" xmlns="http://www.w3.org/2000/svg">
<rect x="2" y="18.5" width="1.3" height="4" rx="0.65" fill="white"/>
<rect x="20.7" y="18.5" width="1.3" height="4" rx="0.65" fill="white"/>
<rect x="18" y="3.5" width="1.3" height="14" rx="0.65" fill="white"/>
<path d="M2 16.5H20C21.1046 16.5 22 17.3954 22 18.5V19.5C22 20.0523 21.5523 20.5 21 20.5H3C2.44772 20.5 2 20.0523 2 19.5V16.5Z" fill="#2F3FCA"/>
<path d="M2 16.5C2 15.3954 2.89543 14.5 4 14.5H7C8.10457 14.5 9 15.3954 9 16.5H2Z" fill="#2F3FCA"/>
<rect x="15" y="4.80005" width="1.3" height="4" rx="0.65" transform="rotate(-90 15 4.80005)" fill="white"/>
<rect x="15" y="3.5" width="1.3" height="2.6" rx="0.65" fill="#2F3FCA"/>
</svg>
