<svg width="38" height="26" viewBox="0 0 38 26" fill="none" xmlns="http://www.w3.org/2000/svg">
<path d="M36.5482 13.3441L36.2269 13.1426C35.1333 12.0679 33.6056 11.601 31.5687 11.7152C29.8701 11.8193 28.5236 12.481 27.4949 13.0956C27.4949 13.0788 27.4949 13.0653 27.4949 13.0519C27.4949 12.528 27.553 11.9604 27.6145 11.413C27.6726 10.8521 27.7341 10.2845 27.7341 9.74719C27.7341 9.20984 27.6692 8.67584 27.4778 8.23253C27.4299 8.11834 27.324 8.04781 27.1873 8.04781C26.6405 8.06125 25.5673 8.42732 25.3076 8.65233L25.1675 8.95459C25.1606 9.5524 25.0239 11.2182 24.8906 11.423C24.8941 11.4163 24.8189 11.6246 24.8189 11.6246C24.5865 14.0057 24.5831 16.098 24.7949 17.8948C24.8189 18.0761 25.1709 18.3448 25.4409 18.4422C25.7416 18.5497 26.6746 18.3045 27.2112 18.1064C27.2044 18.1064 27.4129 18.0761 27.4129 18.0761C27.5837 18.056 27.6828 17.9149 27.676 17.7235L27.6897 17.2063C28.0759 15.6547 29.648 13.8075 31.5072 13.5288C32.5598 13.3642 33.3869 13.6295 34.0431 14.3315C34.1319 14.4591 34.3233 15.5741 33.6295 16.857C33.1135 17.8075 32.0813 18.6068 30.7245 19.1072C29.4429 19.5874 28.028 19.7789 26.2816 19.7184C26.2098 19.6747 24.648 18.6336 24.648 18.6336C23.2638 17.6798 21.5448 16.4876 19.9863 15.9099C19.7129 15.8092 19.2242 15.4062 18.9269 15.1677L18.7662 15.0367C17.8674 14.3281 16.1586 13.2064 14.7813 12.3063C14.7813 12.3063 14.1627 11.8999 14.0396 11.8193C14.0396 11.769 14.0396 11.6682 14.0396 11.6682C14.0807 11.6246 14.9419 11.1174 14.9419 11.1174C16.1517 10.4222 16.7088 10.083 16.825 9.90503C16.8011 9.93526 16.9856 9.81435 16.9856 9.81435C16.9959 9.80764 19.9829 8.14857 19.9829 8.14857C22.8606 6.59361 26.1176 4.83378 27.8298 3.09075L27.9118 2.82543L27.9494 2.59034C28.0622 2.21756 28.069 1.93209 27.9733 1.60296C27.9494 1.50892 27.8606 1.3981 27.7409 1.37794C26.4047 1.24697 24.6822 2.0362 23.1135 3.48033C22.7615 3.8061 22.4641 3.96395 22.1497 4.13187L21.9105 4.26285C20.1811 5.23008 16.285 7.60786 14.2447 8.88742C14.378 6.73466 14.7847 3.6684 15.2837 1.10927L15.2256 0.803651L15.0137 0.41743L14.8565 0.142037L14.812 0.128604C14.4053 -0.0729029 14.0704 0.00769974 13.8278 0.0681517L13.4211 0.215923L12.8776 0.407355C12.7717 0.427505 12.6931 0.494674 12.6521 0.598786C11.6781 2.90939 10.8647 6.71787 10.6733 9.76062C8.72864 8.54486 6.92755 7.66831 6.0458 7.24515L6.02187 7.23171L5.91593 7.2082C5.59809 7.1679 5.20848 6.93953 4.83937 6.71787C4.79836 6.69436 4.09774 6.24769 4.09774 6.24769L2.96651 5.5357L2.66917 5.46853C2.18387 5.55249 1.25085 6.16709 0.974026 6.58689C0.93985 6.64398 0.922762 6.70444 0.922762 6.76489C0.922762 6.85221 0.950103 6.94289 0.974026 7.02685L1.02529 7.25522L1.07656 7.38956C1.61996 7.93699 2.98701 8.84712 4.32673 9.55576L5.88517 10.3651L8.26384 11.6447L8.67054 11.9604L8.95079 12.1182C8.95079 12.1182 8.98496 12.135 9.00205 12.1485C8.36637 12.5649 4.67191 14.9897 4.67191 14.9897L2.39576 16.4708C2.18045 16.6152 1.28161 17.0115 1.08339 17.0887C0.591251 17.2869 0.218729 17.5892 0.0615174 17.9183L0 18.0459L0.0615174 18.1332L0.235817 18.2608L0.468216 18.412L0.721121 18.5833L0.956938 18.6202C1.3568 18.6336 1.94805 18.412 3.05878 17.9351C4.07724 17.4918 6.84211 15.8528 8.02461 15.1543L8.53042 14.8554C8.73889 14.8722 8.96788 14.7009 9.17293 14.5498C9.40875 14.3617 9.92481 14.0527 10.2392 13.915C10.2495 13.915 10.4272 13.8109 10.5981 13.7202C10.5981 13.774 10.5981 13.8512 10.5981 13.8512C10.6494 17.4078 10.8578 19.9904 11.2509 21.9786V22.0122L11.2953 22.0928C11.4901 22.3749 11.7122 23.2179 11.907 23.9601L12.3582 25.4446C12.3684 25.4647 12.4846 25.5856 12.4846 25.5856C12.7409 25.7569 13.527 26.0524 14.0499 25.992L14.1798 25.9752L14.2618 25.7938C14.3062 25.5722 14.3199 25.3572 14.3199 25.1154C14.3199 24.8434 14.2994 24.5445 14.2755 24.1784L14.2413 23.6444C14.0738 21.1625 13.9098 17.5791 13.9098 15.2013V15.0099C14.3404 15.2752 16.2133 16.4372 16.2133 16.4372C19.4088 18.4724 24.231 21.5488 27.1429 22.3615C27.2932 22.4085 27.4539 22.3716 27.5667 22.2675C27.5701 22.2641 28.0144 21.9854 28.0144 21.9854L28.0964 21.9518C28.2638 21.8745 28.3766 21.5958 28.3971 21.2969C30.8544 21.176 34.2789 20.2457 36.1142 17.9787C36.825 17.0988 37.1429 16.0241 37.1429 15.1039C37.1429 14.3483 36.931 13.6967 36.5448 13.3407" fill="#F8B500"/>
</svg>
