<svg width="25" height="24" viewBox="0 0 25 24" fill="none" xmlns="http://www.w3.org/2000/svg">
<rect x="2.66602" y="4" width="20" height="18" rx="2" fill="#D9D9D9"/>
<rect x="2.66602" y="4" width="20" height="18" rx="2" fill="#EBEFF5"/>
<path fill-rule="evenodd" clip-rule="evenodd" d="M12.107 8.31055C11.5547 8.31055 11.107 8.75826 11.107 9.31055V11.2355C11.107 11.346 11.0175 11.4355 10.907 11.4355L8.97656 11.4355C8.42428 11.4355 7.97656 11.8833 7.97656 12.4355V13.5551C7.97656 14.1074 8.42428 14.5551 8.97656 14.5551H10.907C11.0175 14.5551 11.107 14.6446 11.107 14.7551V16.691C11.107 17.2433 11.5547 17.691 12.107 17.691H13.2266C13.7789 17.691 14.2266 17.2433 14.2266 16.691V14.7551C14.2266 14.6446 14.3161 14.5551 14.4266 14.5551H16.3571C16.9093 14.5551 17.3571 14.1074 17.3571 13.5551V12.4355C17.3571 11.8833 16.9093 11.4355 16.3571 11.4355L14.4266 11.4355C14.3161 11.4355 14.2266 11.346 14.2266 11.2355V9.31055C14.2266 8.75826 13.7789 8.31055 13.2266 8.31055H12.107Z" fill="#F29295"/>
<path d="M6.66602 3C6.66602 2.44772 7.11373 2 7.66602 2C8.2183 2 8.66602 2.44772 8.66602 3V4H6.66602V3Z" fill="#9AB3FB"/>
<path d="M16.666 3C16.666 2.44772 17.1137 2 17.666 2C18.2183 2 18.666 2.44772 18.666 3V4H16.666V3Z" fill="#9AB3FB"/>
</svg>
