<svg width="92" height="32" viewBox="0 0 92 32" fill="none" xmlns="http://www.w3.org/2000/svg">
<rect width="14.2887" height="8.8384" rx="1.13021" transform="matrix(0.850763 -0.52555 0.525541 0.850768 12.5842 16)" fill="#3E51E5"/>
<rect width="14.2887" height="8.8384" rx="1.13021" transform="matrix(0.850763 -0.52555 0.525541 0.850768 1.61462 16)" fill="#3E51E5"/>
<g filter="url(#filter0_ii_444_8151)">
<rect width="14.2887" height="8.8384" rx="1.13021" transform="matrix(0.850763 -0.52555 0.525541 0.850768 7.35962 16)" fill="#3E51E5"/>
</g>
<rect x="-0.111108" y="-0.0262546" width="14.4501" height="8.99985" rx="1.21094" transform="matrix(0.850763 -0.52555 0.525541 0.850768 7.35684 15.9377)" stroke="#3E51E5" stroke-width="0.161458"/>
<path d="M50.2112 21.1109C50.2112 21.4067 50.353 21.6594 50.6365 21.869C50.9323 22.0785 51.3761 22.2265 51.9678 22.3128C52.7814 22.4237 53.4655 22.4792 54.0202 22.4792C54.5749 22.4792 55.259 22.4237 56.0726 22.3128C56.6643 22.2265 57.1019 22.0785 57.3854 21.869C57.6813 21.6594 57.8292 21.4067 57.8292 21.1109V20.9814C57.8292 20.6486 57.6813 20.3713 57.3854 20.1494C57.1019 19.9152 56.7198 19.7981 56.239 19.7981H51.8014C51.3206 19.7981 50.9323 19.9152 50.6365 20.1494C50.353 20.3713 50.2112 20.6486 50.2112 20.9814V21.1109ZM47.9924 20.9814C47.9924 20.3281 48.202 19.7303 48.6211 19.1879C49.0525 18.6332 49.6195 18.2387 50.3222 18.0045V16.7102H46.5132V14.6762H61.5272V16.7102H57.7182V18.0045C58.4209 18.2387 58.9817 18.6332 59.4008 19.1879C59.8323 19.7303 60.048 20.3281 60.048 20.9814V21.1109C60.048 21.9245 59.7275 22.6209 59.0865 23.2003C58.4455 23.7797 57.5518 24.1495 56.4054 24.3097C55.5426 24.433 54.7475 24.4946 54.0202 24.4946C53.2929 24.4946 52.4978 24.433 51.635 24.3097C50.4886 24.1495 49.5949 23.7797 48.9539 23.2003C48.3129 22.6209 47.9924 21.9245 47.9924 21.1109V20.9814ZM50.2112 10.7932C50.2112 11.1014 50.3037 11.3418 50.4886 11.5144C50.6858 11.6746 51.0001 11.7547 51.4316 11.7547H56.6088C57.0403 11.7547 57.3484 11.6746 57.5333 11.5144C57.7306 11.3418 57.8292 11.1014 57.8292 10.7932V10.6823C57.8292 10.3988 57.7306 10.1831 57.5333 10.0351C57.3361 9.88721 56.9786 9.78243 56.4609 9.7208C55.6843 9.59753 54.8707 9.5359 54.0202 9.5359C53.182 9.5359 52.3684 9.59753 51.5795 9.7208C51.0618 9.78243 50.7043 9.88721 50.5071 10.0351C50.3098 10.1831 50.2112 10.3988 50.2112 10.6823V10.7932ZM47.9924 10.6823C47.9924 9.86872 48.2759 9.20307 48.8429 8.68534C49.41 8.15528 50.2235 7.82245 51.2836 7.68686C52.1465 7.56359 53.0587 7.50195 54.0202 7.50195C54.994 7.50195 55.9062 7.56359 56.7567 7.68686C57.8168 7.82245 58.6304 8.15528 59.1974 8.68534C59.7645 9.20307 60.048 9.86872 60.048 10.6823V10.7932C60.048 11.3233 59.9186 11.8164 59.6597 12.2725C59.4008 12.7286 59.0125 13.0984 58.4948 13.3819C57.9771 13.6531 57.3484 13.7887 56.6088 13.7887H51.4316C50.692 13.7887 50.0633 13.6531 49.5456 13.3819C49.0278 13.0984 48.6396 12.7286 48.3807 12.2725C48.1218 11.8164 47.9924 11.3233 47.9924 10.7932V10.6823ZM55.4994 17.7641V16.7102H52.541V17.7641H55.4994Z" fill="#3E51E5"/>
<path d="M42.316 13.5129V11.2016C42.316 10.1785 41.2127 9.66688 39.0062 9.66688C37.4531 9.66688 35.4315 9.90726 32.9415 10.388L32.5347 8.39105C35.1233 7.9103 37.225 7.66992 38.8398 7.66992C42.6365 7.66992 44.5348 8.84714 44.5348 11.2016V13.5129H42.316ZM46.7394 16.7117H31V14.6778H46.7394V16.7117ZM32.7381 17.8766H44.276V24.4962H35.9739C35.0863 24.4962 34.3775 24.2681 33.8475 23.812C33.3298 23.3683 33.0709 22.7334 33.0709 21.9075C33.0709 21.6856 33.0894 21.4576 33.1264 21.2234C33.262 20.7426 33.4161 20.305 33.5886 19.9106H32.7381V17.8766ZM35.2712 22C35.2712 22.1849 35.3205 22.3081 35.4192 22.3698C35.5301 22.4314 35.715 22.4622 35.9739 22.4622H42.0571V19.9106H35.9923C35.6842 20.5146 35.4561 21.0816 35.3082 21.6117L35.2712 22Z" fill="#3E51E5"/>
<path d="M78.192 12.2012H87.5666C87.7268 12.2012 87.8501 12.1334 87.9364 11.9978C88.035 11.8499 88.0843 11.6773 88.0843 11.4801C88.0843 11.3198 88.0473 11.1719 87.9733 11.0363C87.9117 10.8884 87.8193 10.7898 87.696 10.7405C87.4371 10.6172 86.9749 10.5186 86.3092 10.4446C85.6559 10.3583 84.9286 10.3152 84.1274 10.3152C83.2152 10.3152 82.3092 10.3707 81.4093 10.4816C80.5218 10.5925 79.7267 10.759 79.0241 10.9808L78.3215 9.05785C79.1227 8.79898 80.0287 8.60791 81.0395 8.48464C82.0627 8.34905 83.0858 8.28125 84.1089 8.28125C85.095 8.28125 85.9949 8.33672 86.8085 8.44766C87.6344 8.55861 88.2507 8.70653 88.6575 8.89143C89.1999 9.1503 89.6066 9.51394 89.8778 9.98237C90.1613 10.4385 90.3031 10.9377 90.3031 11.4801C90.3031 11.9485 90.1922 12.3984 89.9703 12.8299C89.7607 13.249 89.4464 13.588 89.0273 13.8469C88.6205 14.1057 88.1336 14.2352 87.5666 14.2352H81.132C80.9964 14.5063 80.9286 14.7652 80.9286 15.0118C80.9286 15.4309 81.1012 15.7514 81.4463 15.9733C81.8654 16.2198 82.6975 16.3431 83.9425 16.3431C84.9163 16.3431 85.9456 16.2629 87.0303 16.1027C88.1274 15.9301 89.0889 15.6897 89.9148 15.3816L90.6914 17.2676C89.8039 17.6127 88.7561 17.8901 87.5481 18.0996C86.34 18.2969 85.169 18.3955 84.0349 18.3955C83.1967 18.3955 82.4448 18.3339 81.7791 18.2106C81.1135 18.0873 80.5896 17.9024 80.2075 17.6559C79.7021 17.323 79.3261 16.9286 79.0796 16.4725C78.833 16.0164 78.7098 15.5418 78.7098 15.0487C78.7098 14.7652 78.7467 14.494 78.8207 14.2352H78.192V12.2012ZM91.7084 22.9811H76.6943V20.9472H80.6882V18.7098H82.907V20.9472H85.4957V18.7098H87.7145V20.9472H91.7084V22.9811Z" fill="#3E51E5"/>
<path fill-rule="evenodd" clip-rule="evenodd" d="M76.1791 24.108V7.98438H73.9603V24.108H76.1791ZM72.9521 18.9133C69.279 18.9133 68.5493 16.8761 68.489 15.0064L68.489 12.3415H72.0827V9.97988H68.489V8.04547H66.0119V9.97988H62.4183V12.3415H66.0119L66.0119 14.7328L66.0117 14.7326C66.0117 16.6713 65.1842 18.9133 61.3309 18.9133L62.0302 21.0447C63.8152 21.0447 66.1682 20.2073 67.2316 18.6004C68.235 20.2073 70.4678 21.0447 72.2528 21.0447L72.9521 18.9133Z" fill="#3E51E5"/>
<defs>
<filter id="filter0_ii_444_8151" x="7.13892" y="8.59245" width="16.7582" height="14.6634" filterUnits="userSpaceOnUse" color-interpolation-filters="sRGB">
<feFlood flood-opacity="0" result="BackgroundImageFix"/>
<feBlend mode="normal" in="SourceGraphic" in2="BackgroundImageFix" result="shape"/>
<feColorMatrix in="SourceAlpha" type="matrix" values="0 0 0 0 0 0 0 0 0 0 0 0 0 0 0 0 0 0 127 0" result="hardAlpha"/>
<feOffset dx="-0.484375" dy="-0.161458"/>
<feGaussianBlur stdDeviation="0.322917"/>
<feComposite in2="hardAlpha" operator="arithmetic" k2="-1" k3="1"/>
<feColorMatrix type="matrix" values="0 0 0 0 0.0588235 0 0 0 0 0.0705882 0 0 0 0 0.235294 0 0 0 0.18 0"/>
<feBlend mode="normal" in2="shape" result="effect1_innerShadow_444_8151"/>
<feColorMatrix in="SourceAlpha" type="matrix" values="0 0 0 0 0 0 0 0 0 0 0 0 0 0 0 0 0 0 127 0" result="hardAlpha"/>
<feOffset/>
<feGaussianBlur stdDeviation="0.322917"/>
<feComposite in2="hardAlpha" operator="arithmetic" k2="-1" k3="1"/>
<feColorMatrix type="matrix" values="0 0 0 0 0.0538097 0 0 0 0 0.0878922 0 0 0 0 0.350814 0 0 0 0.44 0"/>
<feBlend mode="normal" in2="effect1_innerShadow_444_8151" result="effect2_innerShadow_444_8151"/>
</filter>
</defs>
</svg>
