<svg width="32" height="32" viewBox="0 0 32 32" fill="none" xmlns="http://www.w3.org/2000/svg">
<path d="M15.9991 17.6016L18.3992 16.9844C18.3992 16.9844 18.1278 19.5209 20.4435 19.4702C27.3785 19.3325 28.2951 24.1881 28.7052 28.7611H15.9991H3.29297C3.70304 24.1808 4.61966 19.3252 11.5547 19.4702C13.8764 19.5136 13.599 16.9844 13.599 16.9844L15.9991 17.6016Z" fill="#F9DDBD"/>
<path d="M15.9991 21.7977C16.9669 21.7977 17.8496 21.594 18.417 21.1805C19.4939 20.3956 19.8365 19.4673 19.8365 19.4673C27.6449 19.2594 28.2951 24.1853 28.7052 28.7583H15.9991H3.29297C3.70304 24.178 4.29171 19.2594 12.0641 19.4673C12.0641 19.4673 12.6539 20.5805 13.7084 21.1805C14.5496 21.6591 15.0313 21.7977 15.9991 21.7977Z" fill="#9AB3FB"/>
<ellipse cx="15.9985" cy="10.9176" rx="5.27783" ry="6.63444" fill="#F9DDBD"/>
<path d="M21.3584 9.93286C21.3584 9.93286 21.3915 9.78205 21.4032 9.71293C21.4719 9.30636 21.4905 8.37191 21.4746 7.82638C21.3584 5.63398 20.0006 4.12401 18.6898 3.66956C17.7546 3.34533 17.0946 3.1994 16.2281 3.1994C15.3616 3.1994 14.6079 3.17575 13.4878 3.66981C12.5156 4.10212 12.9555 4.2433 12.1842 4.32049C10.9921 4.87262 10.5536 6.45227 10.4796 7.83667C10.4637 8.37706 10.6183 9.78205 10.6183 9.78205C10.6183 9.78205 10.4397 9.65206 10.2779 9.78205C9.85806 10.1195 9.85085 11.7326 10.7121 12.9008C10.7966 13.0192 10.897 13.1221 10.9921 13.2199C11.0132 13.2456 11.0396 13.2662 11.0555 13.2868C12.2654 16.9562 14.083 17.8106 15.9745 17.8106C17.866 17.8106 20.0587 16.9614 20.8935 13.2868C20.9146 13.2662 20.9357 13.2456 20.9569 13.2199C21.052 13.1221 21.1471 13.0192 21.2369 12.9008C22.0928 11.7326 22.3073 9.85955 21.4746 9.93286H21.3584ZM20.5553 12.4325C20.3862 12.6641 20.1432 12.8133 20.1009 13.014C19.3559 16.5497 17.4539 16.9974 15.9798 16.9974C14.5057 16.9974 12.9364 16.5548 11.8586 13.014C11.8005 12.8185 11.5733 12.6589 11.4042 12.4325C10.7332 11.5164 10.7966 10.3893 11.0661 10.0497C11.1929 9.89012 11.2246 9.85924 11.3936 9.79234C11.4623 9.76661 11.5627 9.70485 11.4782 9.49384C11.3567 9.1902 11.3778 9.20049 11.3514 8.98949C11.2457 8.15061 12.0488 7.51245 12.9893 7.38378C13.7871 7.27571 14.3894 7.86241 14.96 8.25869C16.0537 9.02551 17.3218 8.85053 17.866 8.5263C18.3362 8.24325 19.002 7.87785 19.5831 8.15576C20.4866 8.58806 20.55 9.113 20.4444 9.58648C20.4127 9.72544 20.5236 9.77175 20.5606 9.78205C20.6821 9.82322 20.7508 9.82837 20.8935 10.0445C21.1365 10.3996 21.2263 11.5113 20.5553 12.4273V12.4325Z" fill="#F9DDBD"/>
<path d="M13.4775 11.7461C13.4775 11.7461 13.6933 11.0585 14.134 11.0585C14.5747 11.0585 14.7458 11.7461 14.7458 11.7461" stroke="#5A5D6B" stroke-width="0.533333" stroke-miterlimit="10" stroke-linecap="round" stroke-linejoin="round"/>
<path d="M18.707 11.7461C18.707 11.7461 18.4912 11.0585 18.0506 11.0585C17.6099 11.0585 17.4388 11.7461 17.4388 11.7461" stroke="#5A5D6B" stroke-width="0.533333" stroke-miterlimit="10" stroke-linecap="round" stroke-linejoin="round"/>
<path d="M12.2711 4.3461C10.2375 4.66085 9.88675 7.08387 10.6294 9.80954C10.7489 10.0881 11.1004 10.9171 11.233 10.9171C11.4386 10.9171 10.7091 7.99906 13.9322 8.14673C15.2978 8.2093 15.2954 9.10083 16.6513 9.2461C18.0071 9.39137 18.4475 8.68208 19.7549 8.60945C20.6243 8.56115 20.9287 10.612 21.1078 10.612C21.1873 10.612 21.3466 9.92262 21.3466 9.92262C23.23 2.44178 14.7651 2.62722 13.2395 3.59508C12.8804 3.8229 13.0062 4.23234 12.2711 4.3461Z" fill="#D1924A"/>
</svg>
