<svg width="40" height="30" viewBox="0 0 40 30" fill="none" xmlns="http://www.w3.org/2000/svg">
<path d="M9.65186 8.82345C9.65186 6.85312 11.2491 5.25586 13.2194 5.25586H29.4431C31.4134 5.25586 33.0107 6.85312 33.0107 8.82345V26.6351H9.65186V8.82345Z" fill="#116F25"/>
<path d="M6.48462 26.2383H36.9699" stroke="#116F25" stroke-width="0.891898" stroke-linecap="round"/>
<rect x="14.4027" y="10.0059" width="14.2528" height="15.8365" fill="white"/>
<path d="M17.5699 15.1523H25.4882" stroke="#8D8F98" stroke-width="0.891898" stroke-linecap="round"/>
<path d="M17.5699 17.9238H25.4882" stroke="#8D8F98" stroke-width="0.891898" stroke-linecap="round"/>
<path d="M17.5699 20.6953H25.4882" stroke="#8D8F98" stroke-width="0.891898" stroke-linecap="round"/>
<circle cx="34.2525" cy="5.5969" r="5.5969" fill="#7F98F8"/>
<path fill-rule="evenodd" clip-rule="evenodd" d="M36.2018 3.52016L33.6522 6.59029L32.4636 5.44362C32.1535 5.1662 31.7745 5.1662 31.5333 5.44362C31.2921 5.72104 31.361 6.12792 31.585 6.38685L33.2732 7.99589C33.5316 8.27332 33.9106 8.18084 34.1518 7.94041L37.1493 4.31544C37.4077 4.03802 37.3216 3.63113 37.0976 3.37221C36.8392 3.16876 36.4602 3.16876 36.2018 3.52016Z" fill="white"/>
<path d="M6.38416 29.2225C5.94671 29.6532 5.24115 29.649 4.80534 29.2165C2.00155 26.4455 0.150513 24.6179 0.150513 22.3749C0.150513 20.5473 1.46802 19.1113 3.14484 19.1113C4.03595 19.1113 4.89334 19.5366 5.48589 20.2193C5.54291 20.285 5.64659 20.285 5.70361 20.2193C6.29616 19.5366 7.15355 19.1113 8.04466 19.1113C9.72148 19.1113 11.039 20.5473 11.039 22.3749C11.039 24.6179 9.18795 26.4455 6.38416 29.2225Z" fill="#FF39A4"/>
<path fill-rule="evenodd" clip-rule="evenodd" d="M5.23822 21.9668C4.99193 21.9668 4.79227 22.1665 4.79227 22.4127V23.3878C4.79227 23.437 4.75234 23.4769 4.70308 23.4769L3.62954 23.4769C3.38325 23.4769 3.18359 23.6766 3.18359 23.9229V24.5376C3.18359 24.7839 3.38325 24.9836 3.62954 24.9836H4.70308C4.75234 24.9836 4.79227 25.0235 4.79227 25.0728V26.0513C4.79227 26.2975 4.99193 26.4972 5.23822 26.4972H5.94908C6.19537 26.4972 6.39503 26.2975 6.39503 26.0513V25.0728C6.39503 25.0235 6.43496 24.9836 6.48422 24.9836H7.55713C7.80342 24.9836 8.00308 24.7839 8.00308 24.5376V23.9229C8.00308 23.6766 7.80342 23.4769 7.55713 23.4769L6.48422 23.4769C6.43496 23.4769 6.39503 23.437 6.39503 23.3878V22.4127C6.39503 22.1665 6.19537 21.9668 5.94908 21.9668H5.23822Z" fill="white"/>
</svg>
