<svg width="32" height="32" viewBox="0 0 32 32" fill="none" xmlns="http://www.w3.org/2000/svg">
<circle cx="16.0003" cy="15.9993" r="12.2845" fill="#FFDF40"/>
<circle cx="16.0011" cy="15.9991" r="10.3448" fill="#FDC915"/>
<path d="M12.9761 20.7764L12.1335 16.9286H10.8809V15.7522H11.8715L11.0289 11.9043H12.6003L13.3405 15.7522H14.4451L15.2649 11.9043H16.7339L17.5538 15.7522H18.664L19.3985 11.9043H20.9699L20.1273 15.7522H21.1179V16.9286H19.8654L19.0227 20.7764H17.3602L16.546 16.9286H15.4528L14.6386 20.7764H12.9761ZM13.5625 16.9286L13.8301 18.3133H13.8985L14.1945 16.9286H13.5625ZM15.7033 15.7522H16.2955L16.0279 14.4777H15.9709L15.7033 15.7522ZM17.8043 16.9286L18.1003 18.3256H18.1687L18.4363 16.9286H17.8043Z" fill="#F3B30E" stroke="#F3B30E" stroke-width="0.4" stroke-linejoin="round"/>
</svg>
