<svg width="60" height="60" viewBox="0 0 60 60" fill="none" xmlns="http://www.w3.org/2000/svg">
<rect width="60" height="60" rx="30" fill="#F5F7FF"/>
<path d="M30 16.5C31.7902 16.5 33.5071 17.2112 34.773 18.477C36.0388 19.7429 36.75 21.4598 36.75 23.25C36.75 25.0402 36.0388 26.7571 34.773 28.023C33.5071 29.2888 31.7902 30 30 30C28.2098 30 26.4929 29.2888 25.227 28.023C23.9612 26.7571 23.25 25.0402 23.25 23.25C23.25 21.4598 23.9612 19.7429 25.227 18.477C26.4929 17.2112 28.2098 16.5 30 16.5ZM30 31.6875C34.5056 31.6875 43.5 33.9319 43.5 38.4375V43.5H16.5V38.4375C16.5 33.9319 25.4944 31.6875 30 31.6875Z" fill="#C7D7FD"/>
</svg>
