<svg width="32" height="32" viewBox="0 0 32 32" fill="none" xmlns="http://www.w3.org/2000/svg">
<path d="M4.20312 5.33268C4.20312 4.0756 4.20312 3.44706 4.59365 3.05654C4.98417 2.66602 5.61271 2.66602 6.86979 2.66602H25.1301C26.3872 2.66602 27.0157 2.66602 27.4063 3.05654C27.7968 3.44706 27.7968 4.0756 27.7968 5.33268V27.5199C27.7968 28.1014 27.7968 28.3921 27.7029 28.5853C27.5502 28.8995 27.2348 29.1021 26.8855 29.1104C26.6708 29.1155 26.4063 28.9946 25.8775 28.7528L25.8307 28.7314C25.2619 28.4714 24.9775 28.3414 24.6868 28.2674C24.1472 28.1301 23.5818 28.1301 23.0423 28.2674C22.7515 28.3414 22.4671 28.4714 21.8984 28.7314C21.3296 28.9914 21.0452 29.1214 20.7545 29.1954C20.2149 29.3328 19.6496 29.3328 19.11 29.1954C18.8192 29.1214 18.5349 28.9914 17.9661 28.7314L17.8991 28.7008C17.3961 28.4708 17.1446 28.3559 16.8889 28.2851C16.3072 28.1241 15.6927 28.1241 15.111 28.2851C14.8553 28.3559 14.6038 28.4708 14.1008 28.7008L13.8817 28.801C13.5589 28.9485 13.3975 29.0223 13.2374 29.0767C12.4852 29.3322 11.6664 29.3106 10.9287 29.0159C10.7717 28.9531 10.6144 28.871 10.2999 28.7066C10.0015 28.5508 9.85238 28.4728 9.70306 28.4123C9.00206 28.1284 8.22533 28.0913 7.50044 28.3071C7.34604 28.3531 7.19012 28.4164 6.87829 28.5432L6.29652 28.7796C5.57404 29.0731 5.2128 29.2199 4.92375 29.1523C4.7017 29.1003 4.50636 28.9688 4.37461 28.7827C4.20312 28.5404 4.20312 28.1504 4.20312 27.3706V5.33268Z" fill="#7F98F8"/>
<path d="M8.13767 10.6882L9.53797 13.332L12.1377 9.33203" stroke="white" stroke-width="1.73333" stroke-linecap="round" stroke-linejoin="round"/>
<line x1="8.86667" y1="17.7993" x2="22.8514" y2="17.7993" stroke="white" stroke-width="1.73333" stroke-linecap="round" stroke-linejoin="round"/>
<line x1="8.86667" y1="21.7993" x2="20.4667" y2="21.7993" stroke="white" stroke-width="1.73333" stroke-linecap="round" stroke-linejoin="round"/>
</svg>
