<svg width="24" height="25" viewBox="0 0 24 25" fill="none" xmlns="http://www.w3.org/2000/svg">
<rect x="2" y="4.5" width="20" height="18" rx="2" fill="#ECC006"/>
<path fill-rule="evenodd" clip-rule="evenodd" d="M11.4403 8.80981C10.888 8.80981 10.4403 9.25753 10.4403 9.80981V11.7348C10.4403 11.8453 10.3507 11.9348 10.2403 11.9348L8.30981 11.9348C7.75753 11.9348 7.30981 12.3825 7.30981 12.9348V14.0544C7.30981 14.6067 7.75753 15.0544 8.30981 15.0544H10.2403C10.3507 15.0544 10.4403 15.1439 10.4403 15.2544V17.1903C10.4403 17.7426 10.888 18.1903 11.4403 18.1903H12.5598C13.1121 18.1903 13.5598 17.7426 13.5598 17.1903V15.2544C13.5598 15.1439 13.6494 15.0544 13.7598 15.0544H15.6903C16.2426 15.0544 16.6903 14.6067 16.6903 14.0544V12.9348C16.6903 12.3825 16.2426 11.9348 15.6903 11.9348L13.7598 11.9348C13.6494 11.9348 13.5598 11.8453 13.5598 11.7348V9.80981C13.5598 9.25753 13.1121 8.80981 12.5598 8.80981H11.4403Z" fill="white"/>
<path d="M6 3.5C6 2.94772 6.44772 2.5 7 2.5C7.55228 2.5 8 2.94772 8 3.5V4.5H6V3.5Z" fill="#ECC006"/>
<path d="M16 3.5C16 2.94772 16.4477 2.5 17 2.5C17.5523 2.5 18 2.94772 18 3.5V4.5H16V3.5Z" fill="#ECC006"/>
</svg>
