<svg width="24" height="24" viewBox="0 0 24 24" fill="none" xmlns="http://www.w3.org/2000/svg">
<path d="M12.1463 21.9621C12.0505 21.9877 11.9495 21.9876 11.8537 21.962C9.60272 21.3602 7.7388 20.0435 6.262 18.012C4.75333 15.9367 3.99933 13.6327 4 11.1V5.4158C4 5.16569 4.15514 4.94182 4.38933 4.854L11.7893 2.079C11.9252 2.02807 12.0748 2.02807 12.2107 2.079L19.6107 4.854C19.8449 4.94182 20 5.16569 20 5.4158V11.1C20 13.6333 19.246 15.9377 17.738 18.013C16.2618 20.0445 14.3979 21.3609 12.1463 21.9621ZM12 19.0864C12 19.4904 12.392 19.7788 12.7633 19.6192C14.0462 19.0679 15.1418 18.1738 16.05 16.937C17.001 15.6419 17.6052 14.2154 17.8627 12.6578C17.9206 12.3073 17.6416 12 17.2864 12H12V4.9908C12 4.57188 11.5816 4.28191 11.1893 4.429L6.38933 6.229C6.15514 6.31682 6 6.54069 6 6.7908V11.55C6 11.8125 6.24082 12 6.50334 12H12V19.0864Z" fill="currentColor"/>
</svg>
