<svg width="36" height="32" viewBox="0 0 36 32" fill="none" xmlns="http://www.w3.org/2000/svg">
<path d="M10.2862 21.823L11.2392 23.7793C11.2807 23.8633 11.3598 23.9225 11.4511 23.9358L13.5822 24.2498C13.8139 24.2841 13.9062 24.5714 13.7386 24.7374L12.197 26.2605C12.1301 26.3264 12.1 26.4209 12.116 26.5134L12.4795 28.6635C12.519 28.8973 12.277 29.0748 12.0708 28.9651L10.1647 27.9497C10.0828 27.9058 9.98485 27.9058 9.90198 27.9497L7.99592 28.9651C7.78874 29.0748 7.54766 28.8973 7.58721 28.6635L7.95072 26.5134C7.96673 26.4209 7.93565 26.3264 7.86973 26.2605L6.32907 24.7365C6.16144 24.5714 6.25373 24.2832 6.48539 24.2488L8.61652 23.9349C8.70787 23.9215 8.78791 23.8633 8.82841 23.7784L9.78049 21.823C9.88408 21.6111 10.1826 21.6111 10.2862 21.823Z" fill="#7F98F8"/>
<path d="M4.04291 15.2214L4.99594 17.1777C5.03738 17.2617 5.11648 17.3209 5.20783 17.3343L7.33896 17.6482C7.57062 17.6826 7.66291 17.9698 7.49528 18.1359L5.95368 19.659C5.88681 19.7248 5.85668 19.8193 5.87269 19.9119L6.23619 22.0619C6.27575 22.2958 6.03372 22.4733 5.82749 22.3635L3.92143 21.3481C3.8395 21.3042 3.74156 21.3042 3.65869 21.3481L1.75264 22.3635C1.54546 22.4733 1.30437 22.2958 1.34393 22.0619L1.70743 19.9119C1.72344 19.8193 1.69237 19.7248 1.62644 19.659L0.0857803 18.1349C-0.081847 17.9698 0.0104422 17.6816 0.242107 17.6473L2.37323 17.3333C2.46458 17.3199 2.54463 17.2617 2.58512 17.1768L3.53721 15.2214C3.6408 15.0095 3.93932 15.0095 4.04291 15.2214Z" fill="#7F98F8"/>
<path d="M26.7429 21.823L27.6959 23.7793C27.7373 23.8633 27.8164 23.9225 27.9078 23.9358L30.0389 24.2498C30.2706 24.2841 30.3629 24.5714 30.1952 24.7374L28.6536 26.2605C28.5868 26.3264 28.5566 26.4209 28.5726 26.5134L28.9361 28.6635C28.9757 28.8973 28.7337 29.0748 28.5274 28.9651L26.6214 27.9497C26.5395 27.9058 26.4415 27.9058 26.3586 27.9497L24.4526 28.9651C24.2454 29.0748 24.0043 28.8973 24.0439 28.6635L24.4074 26.5134C24.4234 26.4209 24.3923 26.3264 24.3264 26.2605L22.7857 24.7365C22.6181 24.5714 22.7104 24.2832 22.9421 24.2488L25.0732 23.9349C25.1645 23.9215 25.2446 23.8633 25.2851 23.7784L26.2372 21.823C26.3407 21.6111 26.6393 21.6111 26.7429 21.823Z" fill="#7F98F8"/>
<path d="M18.7921 24.2976L19.7451 26.2539C19.7865 26.3379 19.8656 26.3971 19.957 26.4104L22.0881 26.7244C22.3198 26.7588 22.4121 27.046 22.2444 27.2121L20.7028 28.7351C20.636 28.801 20.6058 28.8955 20.6218 28.988L20.9853 31.1381C21.0249 31.3719 20.7829 31.5494 20.5766 31.4397L18.6706 30.4243C18.5886 30.3804 18.4907 30.3804 18.4078 30.4243L16.5018 31.4397C16.2946 31.5494 16.0535 31.3719 16.0931 31.1381L16.4566 28.988C16.4726 28.8955 16.4415 28.801 16.3756 28.7351L14.8349 27.2111C14.6673 27.046 14.7596 26.7578 14.9913 26.7234L17.1224 26.4095C17.2137 26.3961 17.2938 26.3379 17.3343 26.253L18.2864 24.2976C18.3899 24.0857 18.6885 24.0857 18.7921 24.2976Z" fill="#7F98F8"/>
<path d="M32.462 15.2214L33.415 17.1777C33.4564 17.2617 33.5355 17.3209 33.6269 17.3343L35.758 17.6482C35.9897 17.6826 36.082 17.9698 35.9143 18.1359L34.3727 19.659C34.3059 19.7248 34.2757 19.8193 34.2918 19.9119L34.6553 22.0619C34.6948 22.2958 34.4528 22.4733 34.2466 22.3635L32.3405 21.3481C32.2586 21.3042 32.1606 21.3042 32.0778 21.3481L30.1717 22.3635C29.9645 22.4733 29.7234 22.2958 29.763 22.0619L30.1265 19.9119C30.1425 19.8193 30.1114 19.7248 30.0455 19.659L28.5048 18.1349C28.3372 17.9698 28.4295 17.6816 28.6612 17.6473L30.7923 17.3333C30.8836 17.3199 30.9637 17.2617 31.0042 17.1768L31.9563 15.2214C32.0599 15.0095 32.3584 15.0095 32.462 15.2214Z" fill="#7F98F8"/>
<path d="M29.5312 7.961C29.5312 18.9345 21.7258 22.8283 18.3807 22.8283C15.0356 22.8283 7.23022 19.2885 7.23022 7.961C7.23022 5.12913 15.4072 0.527344 18.3807 0.527344C21.3542 0.527344 29.5312 5.8371 29.5312 7.961Z" fill="#181C4B"/>
<circle cx="18.5353" cy="11.5097" r="6.02332" fill="#9AB3FB"/>
<path fill-rule="evenodd" clip-rule="evenodd" d="M20.6326 9.27436L17.8888 12.5784L16.6096 11.3444C16.2759 11.0458 15.868 11.0458 15.6084 11.3444C15.3489 11.6429 15.4231 12.0808 15.6641 12.3595L17.4809 14.0911C17.759 14.3896 18.1669 14.2901 18.4264 14.0314L21.6523 10.1302C21.9304 9.83167 21.8377 9.39378 21.5967 9.11513C21.3186 8.89619 20.9107 8.89619 20.6326 9.27436Z" fill="white"/>
</svg>
