<svg width="140" height="40" viewBox="0 0 140 40" fill="none" xmlns="http://www.w3.org/2000/svg">
<path d="M13.8543 18.6261C9.83931 17.9184 8.19559 17.4655 8.19559 13.7575C8.19559 10.8137 9.86636 9.45508 13.4771 9.45508C15.2556 9.45508 19.4862 9.96466 19.5131 9.99289H19.54C19.7018 10.0212 19.8365 9.87973 19.8365 9.70987L19.9173 8.52108C19.9173 8.37956 19.8095 8.23798 19.6748 8.20968H19.6478C19.6209 8.20968 15.8753 7.67188 13.4771 7.67188C8.68071 7.67188 6.36328 9.68152 6.36328 13.8142C6.36328 18.9374 9.05796 19.6733 13.4501 20.4658C17.3844 21.1452 18.7047 21.8812 18.7047 24.9099C18.7047 28.6461 17.1149 30.2878 13.504 30.2878C11.3214 30.2878 7.01004 29.7217 6.95605 29.7217H6.92912C6.76748 29.6934 6.63278 29.8067 6.63278 29.9765L6.49798 31.2219C6.47104 31.3918 6.5789 31.5333 6.74054 31.5333H6.76748C6.82136 31.5333 11.1598 32.0711 13.531 32.0711C18.3544 32.0711 20.5102 29.8349 20.5102 24.7966C20.5371 20.1546 17.6268 19.277 13.8543 18.6261Z" fill="url(#paint0_linear_238_6787)"/>
<path d="M76.5586 31.4782V8.91885C76.5586 8.72064 76.7198 8.55078 76.9086 8.55078H80.4924C80.6812 8.55078 80.8424 8.72064 80.8424 8.91885V26.8926C80.8424 27.0908 81.0047 27.2607 81.1935 27.2607H88.7916C88.9804 27.2607 89.1416 27.4304 89.1416 27.6286V31.4782C89.1416 31.6763 88.9804 31.8461 88.7916 31.8461H76.9086C76.7198 31.8461 76.5586 31.6763 76.5586 31.4782Z" fill="url(#paint1_linear_238_6787)"/>
<path d="M90.6 8.55078H94.2379C94.4267 8.55078 94.5879 8.72064 94.5879 8.91885V31.4782C94.5879 31.6763 94.4267 31.8461 94.2379 31.8461H90.6C90.4112 31.8461 90.25 31.6763 90.25 31.4782V8.91885C90.25 8.72064 90.4112 8.55078 90.6 8.55078Z" fill="url(#paint2_linear_238_6787)"/>
<path d="M97.7914 8.55078H103.855C103.99 8.55078 104.124 8.63571 104.178 8.77722L110.349 25.2793C110.403 25.3925 110.484 25.4774 110.618 25.4774V8.91885C110.618 8.72064 110.78 8.55078 110.968 8.55078H114.606C114.795 8.55078 114.956 8.72064 114.956 8.91885V31.4782C114.956 31.6763 114.795 31.8461 114.606 31.8461H108.894C108.759 31.8461 108.624 31.7612 108.57 31.6197L102.076 14.9479C102.022 14.8346 101.942 14.778 101.807 14.778V31.4782C101.807 31.6763 101.645 31.8461 101.457 31.8461H97.7914C97.6026 31.8461 97.4414 31.6763 97.4414 31.4782V8.91885C97.4414 8.72064 97.6026 8.55078 97.7914 8.55078Z" fill="url(#paint3_linear_238_6787)"/>
<path d="M124.253 22.6214L122.393 22.7629C122.205 22.7629 122.07 22.9328 122.07 23.1309V31.5092C122.07 31.7075 121.909 31.8772 121.72 31.8772H118.136C117.947 31.8772 117.785 31.7075 117.785 31.5092V8.92158C117.785 8.72348 117.947 8.55362 118.136 8.55362H121.72C121.909 8.55362 122.07 8.72348 122.07 8.92158V18.0642C122.07 18.2907 122.232 18.4605 122.448 18.4322L124.226 18.319C124.361 18.319 124.468 18.2341 124.522 18.0926L128.483 8.75183C128.538 8.6102 128.672 8.52539 128.807 8.52539H133.038C133.307 8.52539 133.468 8.80841 133.36 9.06309L128.51 19.9041C128.456 20.0173 128.456 20.1305 128.51 20.2155L133.603 31.3394C133.711 31.5942 133.549 31.8772 133.28 31.8772H128.914C128.779 31.8772 128.645 31.7923 128.591 31.6791L124.576 22.8479C124.522 22.678 124.387 22.5931 124.253 22.6214Z" fill="url(#paint4_linear_238_6787)"/>
<path d="M31.4797 8.04297H28.1384C27.9497 8.04297 27.7611 8.1845 27.7072 8.38269L21.0784 31.4798C21.0244 31.6779 21.1592 31.8478 21.3478 31.8478H22.5604C22.6952 31.8478 22.776 31.7629 22.8299 31.6496L24.8778 24.7431L25.3898 22.9598L29.1353 10.0244C29.1623 9.91109 29.2701 9.82616 29.4048 9.82616H30.2402C30.3749 9.82616 30.4827 9.91109 30.5097 10.0244L34.2552 22.9598L34.7671 24.7431L36.8151 31.593C36.842 31.7063 36.9498 31.7911 37.0846 31.7911H38.2972C38.4857 31.7911 38.6205 31.593 38.5666 31.4231L31.9378 8.38269C31.8569 8.1845 31.6953 8.04297 31.4797 8.04297Z" fill="url(#paint5_linear_238_6787)"/>
<path d="M48.3209 20.013V21.2302C48.3209 21.4 48.4556 21.5132 48.5903 21.5132H52.794C52.9556 21.5132 53.0634 21.6547 53.0634 21.7962V29.5802C53.0634 29.7217 52.9556 29.8633 52.8209 29.8633C51.6622 30.0331 48.9136 30.4294 47.7011 30.3445C43.9825 30.118 42.1231 28.4198 41.5573 25.3061V25.2778C41.1261 21.2302 41.2339 20.5792 41.2878 16.673C41.2878 15.9087 41.3956 15.1728 41.6112 14.4652C42.4734 11.5214 44.1441 9.6816 47.728 9.6816C48.8867 9.6816 53.1712 10.3043 54.276 10.4741C54.4108 10.5024 54.5455 10.3893 54.5993 10.2477L54.8688 8.86076C54.8958 8.71925 54.815 8.57774 54.6532 8.54939C53.5484 8.37953 49.1293 7.72852 47.728 7.72852C42.5004 7.72852 39.7789 10.5874 39.3208 15.7672C39.3208 15.7672 38.8627 20.6924 39.3208 23.8909C39.7789 27.0893 40.3447 28.5047 41.665 30.0898C42.9046 31.5899 45.222 32.0994 47.728 32.0994C49.5604 32.0994 54.3298 31.3917 54.5455 31.3635H54.5724C54.7071 31.3352 54.815 31.222 54.815 31.0804V19.9564C54.815 19.7866 54.6802 19.6734 54.5455 19.6734H48.5903C48.4286 19.73 48.3209 19.8432 48.3209 20.013Z" fill="url(#paint6_linear_238_6787)"/>
<path d="M73.9978 14.921C73.5396 11.8075 72.1386 9.9676 70.4681 8.86362C69.013 7.90129 66.4261 7.75977 65.7521 7.75977C65.7521 7.75977 65.7252 7.75977 65.6713 7.75977C65.6173 7.75977 65.5904 7.75977 65.5904 7.75977C64.9437 7.78808 62.3569 7.90129 60.8748 8.86362C59.1772 9.99583 57.8029 11.8075 57.3448 14.921C56.8867 18.0346 56.8867 20.0442 56.8867 20.0442C56.8867 20.0442 56.8867 22.0256 57.3448 25.1676C57.8029 28.2811 59.2041 30.121 60.8748 31.2248C62.3299 32.1873 64.9168 32.3288 65.5904 32.3288C65.5904 32.3288 65.6173 32.3288 65.6713 32.3288C65.7252 32.3288 65.7521 32.3288 65.7521 32.3288C66.3986 32.3005 68.9854 32.1873 70.4681 31.2248C72.1651 30.0926 73.5396 28.2811 73.9978 25.1676C74.456 22.054 74.456 20.0442 74.456 20.0442C74.456 20.0442 74.4825 18.0346 73.9978 14.921ZM71.6263 26.696C70.7375 28.8755 69.6058 29.47 68.6619 29.7814C67.7466 30.0926 66.8567 30.2341 65.6713 30.2341C64.4856 30.2341 63.5964 30.0926 62.6802 29.7814C61.7371 29.4416 60.6053 28.8755 59.7161 26.696C58.8269 24.5165 58.9346 20.016 58.9346 20.016C58.9346 20.016 58.8269 15.5437 59.7161 13.3359C60.6053 11.1564 61.7371 10.562 62.6802 10.2506C63.5964 9.93925 64.4856 9.79774 65.6713 9.79774C66.8567 9.79774 67.7466 9.93925 68.6619 10.2506C69.6058 10.5903 70.7375 11.1564 71.6263 13.3359C72.5161 15.5154 72.408 20.016 72.408 20.016C72.408 20.016 72.5161 24.5165 71.6263 26.696Z" fill="url(#paint7_linear_238_6787)"/>
<defs>
<linearGradient id="paint0_linear_238_6787" x1="13.4368" y1="7.67188" x2="13.4368" y2="32.0711" gradientUnits="userSpaceOnUse">
<stop stop-color="#95ACEF"/>
<stop offset="1" stop-color="#C7D2FF"/>
</linearGradient>
<linearGradient id="paint1_linear_238_6787" x1="82.8501" y1="8.55078" x2="82.8501" y2="31.8461" gradientUnits="userSpaceOnUse">
<stop stop-color="#95ACEF"/>
<stop offset="1" stop-color="#C7D2FF"/>
</linearGradient>
<linearGradient id="paint2_linear_238_6787" x1="92.4189" y1="8.55078" x2="92.4189" y2="31.8461" gradientUnits="userSpaceOnUse">
<stop stop-color="#95ACEF"/>
<stop offset="1" stop-color="#C7D2FF"/>
</linearGradient>
<linearGradient id="paint3_linear_238_6787" x1="106.199" y1="8.55078" x2="106.199" y2="31.8461" gradientUnits="userSpaceOnUse">
<stop stop-color="#95ACEF"/>
<stop offset="1" stop-color="#C7D2FF"/>
</linearGradient>
<linearGradient id="paint4_linear_238_6787" x1="125.711" y1="8.52539" x2="125.711" y2="31.8772" gradientUnits="userSpaceOnUse">
<stop stop-color="#95ACEF"/>
<stop offset="1" stop-color="#C7D2FF"/>
</linearGradient>
<linearGradient id="paint5_linear_238_6787" x1="29.8225" y1="8.04297" x2="29.8225" y2="31.8478" gradientUnits="userSpaceOnUse">
<stop stop-color="#95ACEF"/>
<stop offset="1" stop-color="#C7D2FF"/>
</linearGradient>
<linearGradient id="paint6_linear_238_6787" x1="46.9956" y1="7.72852" x2="46.9956" y2="32.0994" gradientUnits="userSpaceOnUse">
<stop stop-color="#95ACEF"/>
<stop offset="1" stop-color="#C7D2FF"/>
</linearGradient>
<linearGradient id="paint7_linear_238_6787" x1="65.6715" y1="7.75977" x2="65.6715" y2="32.3288" gradientUnits="userSpaceOnUse">
<stop stop-color="#95ACEF"/>
<stop offset="1" stop-color="#C7D2FF"/>
</linearGradient>
</defs>
</svg>
