<svg width="820" height="200" viewBox="0 0 820 200" fill="none" xmlns="http://www.w3.org/2000/svg">
<path fill-rule="evenodd" clip-rule="evenodd" d="M122.069 64.1715C122.069 64.1715 119.718 60.8895 116.643 57.6075C116.417 57.3915 116.191 57.154 115.965 56.9165C115.738 56.679 115.512 56.4415 115.286 56.2255C114.201 55.189 113.116 54.239 112.121 53.3755C112.03 53.3325 111.962 53.2675 111.895 53.2025C111.827 53.138 111.759 53.073 111.668 53.03C110.583 52.2525 109.407 51.5615 108.141 50.957L107.056 50.439L106.513 50.18C106.151 50.007 105.699 49.8343 105.338 49.7479C105.157 49.6616 104.976 49.5752 104.704 49.5752C103.529 49.1433 102.262 48.7979 101.087 48.5388C100.861 48.4956 100.657 48.4524 100.454 48.4092C100.25 48.366 100.047 48.3228 99.821 48.2796L97.379 48.0205C95.9315 47.9342 94.4845 48.1069 93.2185 48.366C92.8565 48.4524 92.495 48.5388 92.0425 48.6251C90.9575 48.9706 89.872 49.4025 88.877 49.8343C88.5155 50.007 88.244 50.18 87.973 50.3525C87.8825 50.3955 87.8145 50.439 87.7465 50.482C87.679 50.525 87.611 50.5685 87.5205 50.6115L86.7065 51.13C86.5255 51.216 86.4355 51.3025 86.345 51.389C86.0735 51.5615 85.802 51.7345 85.6215 51.907C85.169 52.2525 84.717 52.598 84.355 52.857C84.2645 52.9435 84.174 53.0085 84.084 53.073C83.9935 53.138 83.903 53.2025 83.8125 53.289C83.6315 53.4185 83.496 53.548 83.3715 53.667C83.247 53.7855 83.134 53.8935 82.9985 53.98L82.727 54.239L82.546 54.412C82.546 54.412 82.456 54.5845 82.1845 54.8435C82.1395 54.887 82.1165 54.93 82.094 54.9735C82.0715 55.0165 82.049 55.0595 82.0035 55.103C81.9225 55.1805 81.841 55.2755 81.7515 55.3805C81.642 55.5085 81.52 55.651 81.3705 55.794C80.8275 56.485 80.014 57.5215 79.1095 58.7305C78.768 59.2195 78.406 59.728 78.024 60.265C77.597 60.8655 77.145 61.5015 76.6675 62.185C76.6675 62.185 79.381 60.458 82.1845 60.976C84.988 61.494 86.164 62.5305 87.3395 64.517L129.395 127.826C129.395 127.826 133.556 132.835 140.339 134.822C147.122 136.722 152.729 138.104 162.859 131.713L166.024 129.295L122.069 64.1715ZM104.892 60.975C104.892 60.975 100.641 54.152 94.3105 51.82L99.5565 50.3515C99.5565 50.3515 105.254 51.215 110.952 60.802L111.133 61.0615L104.892 60.975ZM112.929 63.834H106.779L115.552 76.703H121.521L112.929 63.834ZM117.277 79.2965H123.337L131.476 91.475H125.417L117.277 79.2965ZM133.109 93.978H127.14L135.461 106.156H141.34L133.109 93.978ZM137.084 108.749H143.053L151.736 121.618L145.947 121.704L137.084 108.749ZM151.727 136.206C152.812 136.033 154.078 135.687 154.078 135.687L158.6 132.319L153.355 124.114H147.566L153.445 132.837L149.285 136.378C149.285 136.378 150.551 136.378 151.727 136.206Z" fill="black"/>
<path fill-rule="evenodd" clip-rule="evenodd" d="M83.371 66.7649C83.371 66.7649 82.738 65.2104 79.6625 64.9509H79.0295C76.407 64.9509 74.0555 66.4194 73.784 66.5919L31.9995 128.001L34.0797 130.592C34.0797 130.592 35.7981 131.801 40.5916 134.047C45.5659 136.379 52.8015 135.861 52.8015 135.861C64.1065 134.306 69.262 126.101 69.262 126.101L96.5755 86.1119L83.371 66.7649ZM52.973 134.556H46.3706L55.686 120.996H62.2885L52.973 134.556ZM57.7805 117.891H64.383L73.9695 103.899H67.3675L57.7805 117.891ZM76.1345 100.799H69.532L78.848 87.1529H85.45L76.1345 100.799ZM87.9875 73.8474L81.023 84.0389V84.1254H87.535L91.243 78.6839L87.9875 73.8474Z" fill="black"/>
<path d="M255.315 94.116C236.387 91.083 228.638 89.142 228.638 73.25C228.638 60.6335 236.514 54.8105 253.536 54.8105C261.921 54.8105 281.865 56.9945 281.992 57.1155H282.119C282.882 57.237 283.517 56.6305 283.517 55.9025L283.897 50.8075C283.897 50.201 283.389 49.5942 282.754 49.4729H282.627C282.5 49.4729 264.842 47.168 253.536 47.168C230.925 47.168 220 55.781 220 73.493C220 95.4505 232.703 98.6045 253.41 102.001C271.957 104.913 278.181 108.067 278.181 121.048C278.181 137.061 270.686 144.097 253.664 144.097C243.374 144.097 223.049 141.671 222.794 141.671H222.668C221.906 141.549 221.271 142.035 221.271 142.763L220.635 148.1C220.508 148.828 221.017 149.435 221.779 149.435H221.905C222.159 149.435 242.612 151.74 253.79 151.74C276.529 151.74 286.693 142.156 286.693 120.562C286.82 100.667 273.099 96.906 255.315 94.116Z" fill="black"/>
<path d="M550.925 149.191V52.505C550.925 51.6555 551.685 50.9275 552.575 50.9275H569.47C570.36 50.9275 571.12 51.6555 571.12 52.505V129.538C571.12 130.387 571.885 131.115 572.775 131.115H608.595C609.485 131.115 610.245 131.843 610.245 132.692V149.191C610.245 150.04 609.485 150.768 608.595 150.768H552.575C551.685 150.768 550.925 150.04 550.925 149.191Z" fill="black"/>
<path d="M617.11 50.9275H634.26C635.15 50.9275 635.91 51.6555 635.91 52.505V149.191C635.91 150.04 635.15 150.768 634.26 150.768H617.11C616.22 150.768 615.46 150.04 615.46 149.191V52.505C615.46 51.6555 616.22 50.9275 617.11 50.9275Z" fill="black"/>
<path d="M651.015 50.9275H679.6C680.235 50.9275 680.87 51.2915 681.125 51.898L710.215 122.623C710.47 123.108 710.85 123.472 711.485 123.472V52.505C711.485 51.6555 712.245 50.9275 713.135 50.9275H730.285C731.175 50.9275 731.935 51.6555 731.935 52.505V149.191C731.935 150.04 731.175 150.768 730.285 150.768H703.355C702.72 150.768 702.085 150.404 701.83 149.797L671.215 78.3445C670.96 77.859 670.58 77.6165 669.945 77.6165V149.191C669.945 150.04 669.18 150.768 668.295 150.768H651.015C650.125 150.768 649.365 150.04 649.365 149.191V52.505C649.365 51.6555 650.125 50.9275 651.015 50.9275Z" fill="black"/>
<path d="M775.76 111.234L766.995 111.841C766.105 111.841 765.47 112.569 765.47 113.418V149.326C765.47 150.176 764.71 150.903 763.82 150.903H746.925C746.035 150.903 745.27 150.176 745.27 149.326V52.5186C745.27 51.6696 746.035 50.9416 746.925 50.9416H763.82C764.71 50.9416 765.47 51.6696 765.47 52.5186V91.7026C765.47 92.6731 766.235 93.4011 767.25 93.2796L775.635 92.7946C776.27 92.7946 776.775 92.4306 777.03 91.8241L795.705 51.7911C795.96 51.1841 796.595 50.8206 797.23 50.8206H817.175C818.445 50.8206 819.205 52.0336 818.695 53.1251L795.83 99.5881C795.575 100.073 795.575 100.559 795.83 100.923L819.84 148.598C820.35 149.69 819.585 150.903 818.315 150.903H797.735C797.1 150.903 796.465 150.539 796.21 150.054L777.285 112.205C777.03 111.477 776.395 111.113 775.76 111.234Z" fill="black"/>
<path d="M338.399 48.75H322.647C321.758 48.75 320.869 49.3566 320.615 50.206L289.364 149.197C289.11 150.046 289.746 150.774 290.635 150.774H296.351C296.986 150.774 297.368 150.41 297.622 149.924L307.276 120.324L309.69 112.682L327.347 57.242C327.474 56.7565 327.983 56.3925 328.618 56.3925H332.556C333.191 56.3925 333.699 56.7565 333.826 57.242L351.483 112.682L353.897 120.324L363.551 149.682C363.678 150.167 364.187 150.531 364.822 150.531H370.538C371.427 150.531 372.063 149.682 371.809 148.954L340.559 50.206C340.178 49.3566 339.416 48.75 338.399 48.75Z" fill="black"/>
<path d="M417.794 100.052V105.268C417.794 105.996 418.429 106.481 419.064 106.481H438.882C439.644 106.481 440.152 107.088 440.152 107.694V141.055C440.152 141.662 439.644 142.269 439.009 142.269C433.547 142.996 420.589 144.695 414.873 144.331C397.342 143.36 388.576 136.082 385.909 122.737V122.616C383.876 105.268 384.384 102.478 384.638 85.737C384.638 82.4615 385.147 79.3075 386.163 76.275C390.228 63.658 398.104 55.773 414.999 55.773C420.462 55.773 440.66 58.442 445.868 59.1695C446.504 59.291 447.139 58.806 447.393 58.199L448.663 52.255C448.79 51.6485 448.41 51.042 447.647 50.9205C442.439 50.1925 421.605 47.4023 414.999 47.4023C390.355 47.4023 377.525 59.655 375.365 81.855C375.365 81.855 373.206 102.963 375.365 116.672C377.525 130.38 380.193 136.446 386.417 143.24C392.26 149.669 403.185 151.852 414.999 151.852C423.638 151.852 446.123 148.82 447.139 148.699H447.266C447.901 148.577 448.409 148.092 448.409 147.485V99.8095C448.409 99.0815 447.774 98.5965 447.139 98.5965H419.064C418.302 98.839 417.794 99.324 417.794 100.052Z" fill="black"/>
<path d="M538.85 78.231C536.69 64.887 530.085 57.0015 522.21 52.27C515.35 48.1456 503.155 47.5391 499.978 47.5391C499.978 47.5391 499.85 47.5391 499.596 47.5391C499.342 47.5391 499.215 47.5391 499.215 47.5391C496.167 47.6604 483.971 48.1456 476.984 52.27C468.981 57.1225 462.503 64.887 460.343 78.231C458.184 91.5755 458.184 100.189 458.184 100.189C458.184 100.189 458.184 108.681 460.343 122.147C462.503 135.491 469.108 143.376 476.984 148.107C483.844 152.232 496.04 152.839 499.215 152.839C499.215 152.839 499.342 152.839 499.596 152.839C499.85 152.839 499.978 152.839 499.978 152.839C503.025 152.717 515.22 152.232 522.21 148.107C530.21 143.255 536.69 135.491 538.85 122.147C541.01 108.802 541.01 100.189 541.01 100.189C541.01 100.189 541.135 91.5755 538.85 78.231ZM527.67 128.697C523.48 138.038 518.145 140.586 513.695 141.921C509.38 143.255 505.185 143.861 499.596 143.861C494.007 143.861 489.815 143.255 485.496 141.921C481.05 140.465 475.714 138.038 471.522 128.697C467.33 119.356 467.838 100.068 467.838 100.068C467.838 100.068 467.33 80.9 471.522 71.4375C475.714 62.0965 481.05 59.549 485.496 58.2145C489.815 56.88 494.007 56.2735 499.596 56.2735C505.185 56.2735 509.38 56.88 513.695 58.2145C518.145 59.6705 523.48 62.0965 527.67 71.4375C531.865 80.7785 531.355 100.068 531.355 100.068C531.355 100.068 531.865 119.356 527.67 128.697Z" fill="black"/>
</svg>
