<svg width="108" height="76" viewBox="0 0 108 76" fill="none" xmlns="http://www.w3.org/2000/svg">
<mask id="mask0_221_8027" style="mask-type:alpha" maskUnits="userSpaceOnUse" x="0" y="0" width="108" height="76">
<rect width="108" height="76" fill="#D9D9D9"/>
</mask>
<g mask="url(#mask0_221_8027)">
<path d="M59.0994 9.30664H61.3398V59.4479H59.0994V9.30664Z" fill="#FFD859"/>
<path d="M69.7401 9.30664H71.9805V59.4479H69.7401V9.30664Z" fill="#FFD859"/>
<path d="M80.3846 9.30664H82.625V59.4479H80.3846V9.30664Z" fill="#FFD859"/>
<path d="M91.033 9.30664H93.2734V59.4479H91.033V9.30664Z" fill="#FFD859"/>
<path d="M101.053 9.30664H103.293V59.4479H101.053V9.30664Z" fill="#FFD859"/>
<path d="M56.2955 8H116.352V10.4499H56.2955V8Z" fill="#FFD859"/>
<path d="M61.6378 28.4121C63.2744 28.0547 64.5509 26.6621 64.8267 24.9121C65.1026 26.6621 66.379 28.0547 68.0156 28.4121C66.379 28.7696 65.1026 30.1621 64.8267 31.9121C64.5509 30.1621 63.2744 28.7696 61.6378 28.4121Z" fill="white"/>
<path d="M51.6163 37.9121C52.7852 37.6062 53.6969 36.4121 53.8941 34.9121C54.0913 36.4121 55.0029 37.6062 56.1719 37.9121C55.0029 38.2181 54.0913 39.4121 53.8941 40.9121C53.6969 39.4121 52.7852 38.2181 51.6163 37.9121Z" fill="#5182FF"/>
<path d="M68.9258 38.7352C68.9258 38.7352 66.6709 36.0797 65.6898 35.9637C64.7087 35.8476 59.5119 35.9637 59.5119 35.9637C59.5119 35.9637 58.0895 36.0209 57.9924 37.6387V39.487C57.9924 39.487 58.1881 41.6228 59.9046 41.6817C61.6212 41.7389 66.2781 41.9121 66.2781 41.9121C66.2781 41.9121 68.8272 38.5637 68.9258 38.737V38.7352Z" fill="white"/>
<path d="M90.7647 38.9528L69.6065 42.3573L64.9177 44.8692C64.9177 44.8692 50.6483 49.3951 44.7904 52.6174C44.7904 52.6174 44.1743 53.0703 43.5429 53.7539L53.8152 58.4068C53.8152 58.4068 54.2111 58.8284 54.46 60.1906L55.0356 65.2591L41.2429 63.5141C41.1538 64.5319 41.0617 66.6011 41.0617 66.6011C41.0617 66.6011 40.0754 67.9749 40.6131 76.0055H116.414V44.3996L90.7647 38.9512V38.9528Z" fill="white"/>
<path d="M54.8484 59.8332C54.6802 58.2006 53.5336 57.5713 53.5336 57.5713L43.5033 53.3613C43.0516 53.905 42.5902 54.5946 42.3901 55.3195C42.0593 56.5176 41.6076 61.7947 41.388 64.5583L55.1875 65.7128L54.847 59.8332H54.8484Z" fill="#284A78"/>
<path d="M54.0841 60.2734C53.8814 58.8206 53.1425 58.5787 53.1425 58.5787L45.1153 55.4199C44.7577 55.8279 43.4234 55.952 43.2657 56.497C43.0039 57.3952 42.5014 61.7343 42.3269 63.8063L54.3516 64.6835L54.0827 60.2734H54.0841Z" fill="#ADF4FF"/>
<path opacity="0.5" d="M53.307 58.663C53.307 58.663 53.9452 59.117 54.1317 60.1929L54.4141 64.6878L48.7873 64.2539C49.0992 61.8791 49.6006 59.7258 50.5217 57.6484L52.4059 58.2809L53.307 58.663Z" fill="white"/>
<path d="M86.1859 57.5294C86.1859 57.5294 84.9405 58.1528 84.8986 59.7613L84.5338 65.7128L101.031 64.7548V53.3613L86.1859 57.5294Z" fill="#284A78"/>
<path d="M86.723 58.6499C86.723 58.6499 85.7764 59.0843 85.7444 60.2092L85.467 64.6835L99.7422 63.6938V55.4199L86.723 58.6483V58.6499Z" fill="#ADF4FF"/>
<path opacity="0.5" d="M86.6921 60.2332C86.7254 59.1155 87.7079 58.6817 87.7079 58.6817L91.5938 57.4785C91.5226 59.7235 92.0606 61.9684 92.9688 64.131L86.4042 64.6835L86.6921 60.2316V60.2332Z" fill="white"/>
<path d="M116.414 20.416C116.414 20.416 81.8855 20.416 78.9478 20.416C76.0102 20.416 75.1149 22.0086 73.9845 24.4016L64.8353 45.1189H116.414V20.416Z" fill="white"/>
<path opacity="0.5" d="M57.899 67.5206L42.3253 66.8979C42.3253 66.8979 44.0215 70.6345 47.4138 70.7901C50.806 70.9458 88.2773 72.4937 97.6552 70.7901C99.5574 70.4446 100.938 66.7422 100.938 66.7422L84.4206 67.9877L57.899 67.5206Z" fill="#D3E7FF"/>
<path opacity="0.5" d="M71.4848 43.1955L66.9459 45.2177C66.9459 45.2177 53.3594 50.5979 52.7501 51.1026C52.1409 51.6074 54.2733 56.1498 55.4918 56.8227L67.0677 49.252C67.0677 49.252 58.0812 56.991 58.5381 57.3274C58.995 57.6639 82.9084 57.3274 82.9084 57.3274L97.6571 51.4391L114.539 45.2177L109.85 44.7014C109.85 44.7014 71.1802 43.0272 71.4848 43.1955Z" fill="#D3E7FF"/>
<path d="M78.5902 22.9785C78.5902 22.9785 78.5764 22.9785 78.5579 22.9785C78.2937 22.9785 76.9341 23.0643 76.063 24.7403L67.9005 44.2142H116.418V22.9802L78.5902 22.9802V22.9785Z" fill="#004E87"/>
<path d="M69.9059 39.4264L76.062 24.7403C76.9315 23.0643 78.2927 22.9785 78.5569 22.9785C78.5754 22.9785 78.5877 22.9785 78.5892 22.9785H78.6061H87.9961C80.8046 26.3777 74.4212 32.2515 69.9059 39.4247V39.4264Z" fill="#A6E9FE"/>
<path d="M68.3027 43.8043L76.4652 25.1525C77.3347 23.4748 78.6944 23.3907 78.9601 23.3907C78.9786 23.3907 78.9924 23.3907 78.9924 23.3907H79.0093H116.417V22.2946H80.5081C80.4912 22.2946 79.8648 22.293 78.9617 22.293C78.5991 22.293 76.7294 22.4056 75.5864 24.6297L66.7141 44.9004H116.445V43.8043H68.3027Z" fill="#233156"/>
<path d="M80.0687 60.8532H58.8965C57.7529 60.8532 56.8261 61.8972 56.8261 63.1816V63.5699C56.8261 64.8559 57.7544 65.8982 58.8965 65.8982H80.0687C81.2123 65.8982 82.1406 64.8543 82.1406 63.5682V63.1799C82.1406 61.8938 81.2123 60.8516 80.0702 60.8516L80.0687 60.8532Z" fill="#284A78"/>
<path d="M58.9125 66.4874H80.5103C81.9698 66.4874 83.1562 65.1778 83.1562 63.5707V63.1823C83.1562 61.5735 81.9682 60.2656 80.5103 60.2656H58.9125C57.4531 60.2656 56.2651 61.5752 56.2651 63.1823V63.5707C56.2651 65.1795 57.4531 66.4874 58.9125 66.4874ZM80.5103 61.4407C81.3811 61.4407 82.0887 62.2207 82.0887 63.1807V63.569C82.0887 64.5289 81.3811 65.3089 80.5103 65.3089H58.9125C58.0417 65.3089 57.3326 64.5289 57.3326 63.569V63.1807C57.3326 62.2207 58.0417 61.4407 58.9125 61.4407H80.5103Z" fill="#71AEFF"/>
<path d="M89.2188 76.0058V74.8837C89.2188 73.2288 87.9324 71.8887 86.3472 71.8887H56.4541C54.8674 71.8887 53.5825 73.2288 53.5825 74.8837V76.0058H89.2188Z" fill="#283B78"/>
<path d="M50.7695 76.0058V75.5971C50.7695 73.5489 49.0905 71.8887 47.0175 71.8887C44.9462 71.8887 43.2672 73.5489 43.2672 75.5971V76.0058H50.7695Z" fill="#FF7D5C"/>
<path d="M97.6562 76.0058V75.5971C97.6562 73.5489 95.9773 71.8887 93.9043 71.8887C91.8329 71.8887 90.1539 73.5489 90.1539 75.5971V76.0058H97.6562Z" fill="#FF7D5C"/>
<path d="M62.9592 52.332C64.403 52.0171 65.529 50.7881 65.7726 49.2441C66.0161 50.7881 67.1421 52.0171 68.5859 52.332C67.1421 52.6469 66.0161 53.8759 65.7726 55.4199C65.529 53.8759 64.403 52.6469 62.9592 52.332Z" fill="#FF533E"/>
<g opacity="0.5">
<path d="M62.675 42.3777C63.2634 42.2852 64.0791 40.7891 64.6998 39.4492C65.7952 39.7972 67.8984 42.097 67.8984 42.097C67.7955 41.9288 65.1331 45.1784 65.1331 45.1784C65.1331 45.1784 60.2675 45.0103 58.4762 44.9548C56.6833 44.8993 56.479 42.8249 56.479 42.8249V42.4214C58.8173 42.455 62.0097 42.4802 62.675 42.376V42.3777Z" fill="#D3E7FF"/>
</g>
<path d="M25.056 60.3982L25.7492 63.2203C25.7492 63.2203 30.2022 71.1458 30.4991 72.4486C30.7959 73.7513 30.3996 76.0946 30.3996 76.0946H21.691L22.0873 73.8604L17.0406 65.0669L18.1286 60.1816L25.056 60.3982Z" fill="#124A77"/>
<path d="M36.9102 45.3718C36.9102 45.3718 37.9833 52.1656 38.3143 54.1588C38.6439 56.152 37.9017 57.9644 36.168 58.5083C34.4343 59.0522 32.0386 58.4171 30.7175 51.4426C30.7175 51.4426 29.6443 46.9123 30.2217 46.2788C30.7992 45.6438 35.3412 42.2925 36.9102 45.3734V45.3718Z" fill="#FF9E83"/>
<path d="M34.6839 40.9297C34.8487 41.2016 36.7427 41.6104 36.7427 41.6104C36.7427 41.6104 37.6556 44.5529 37.8203 47.6339L31.6277 50.0798L32.7008 42.107L34.6824 40.9297H34.6839Z" fill="#FF526F"/>
<path d="M30.6 34.7242C30.6 34.7242 35.0857 37.1278 36.7422 41.6108L26.4246 60.4989L9.9915 58.8689L18.4136 35.5873C18.4136 35.5873 21.7994 32.236 27.2499 33.5029L30.6 34.7258V34.7242Z" fill="#FF526F"/>
<path d="M32.2848 49.809L32.9453 45.733L21.798 43.2871C21.798 43.2871 15.2743 51.5302 13.9533 51.9845L12.3012 51.8038L8.87238 60.5517L25.9467 63.548L32.2848 49.8106V49.809Z" fill="#124A77"/>
<path d="M27.8434 56.1211L29.1719 52.2748L20.778 50.2344L18.069 56.0625C18.069 56.0625 17.7499 58.1599 18.973 58.8601C20.1946 59.5587 24.8703 61.0162 25.9316 59.4431C26.9944 57.8701 27.8449 56.1211 27.8449 56.1211H27.8434Z" fill="#2666A2"/>
<path d="M20.3143 45.3692L15.9385 51.6207L29.5098 54.9916L30.1406 56.6037L28.8225 58.8916C28.8225 58.8916 19.3228 59.3216 14.7822 57.9634C10.2401 56.6053 8.34169 53.8875 9.91063 48.6326C11.4796 43.3776 15.8079 39.4141 15.8079 39.4141L20.3143 45.3708V45.3692Z" fill="#FF9E83"/>
<path d="M22.4641 42.5614L19.491 47.0917L13.7927 40.2067C13.7927 40.2067 17.2571 35.4061 20.438 34.3184C20.438 34.3184 23.0401 36.2204 22.8753 38.3047C22.7105 40.3891 22.4627 42.5631 22.4627 42.5631L22.4641 42.5614Z" fill="#FF526F"/>
<path d="M23.3714 46.8213C25.0235 39.6644 24.9685 33.1719 24.9685 33.1719C24.9685 33.1719 24.0735 33.1865 23.6193 33.3233C23.6193 33.3233 23.6193 39.3029 22.1335 46.4598L23.3729 46.8213H23.3714Z" fill="#124A77"/>
<path d="M31.7375 47.8471C33.2783 41.6265 32.7291 36.2511 32.7291 36.2511C32.7291 36.2511 31.9038 35.5265 31.5728 35.3457C31.5728 35.3457 32.0686 40.4785 30.3616 47.4856L31.2967 48.0898L31.7375 47.8487V47.8471Z" fill="#124A77"/>
<path d="M36.5339 28.3738C36.5339 28.3738 37.1114 24.6805 33.6647 23.3077C33.6647 23.3077 28.4948 21.2885 27.1515 26.887C27.1515 26.887 25.9373 31.2154 28.615 31.9921C31.2928 32.7672 36.5325 28.3738 36.5325 28.3738H36.5339Z" fill="#1A1613"/>
<path d="M26.6207 34.4922L28.4835 29.3105L31.617 30.61L32.1172 33.0722L30.8703 36.7248L29.009 37.7898L26.6207 34.4922Z" fill="#FF9E83"/>
<path d="M33.7064 24.099C33.7064 24.099 37.1723 26.102 36.3723 29.3686C36.3723 29.3686 35.8839 31.9839 35.0735 33.2866C34.2616 34.5893 32.9791 35.5159 30.7838 34.832C30.7838 34.832 28.0081 34.122 28.1595 31.3439L28.6359 29.2041L29.7655 25.5793C29.7655 25.5793 31.3641 23.2539 33.7064 24.099Z" fill="#FF9E83"/>
<path d="M27.1989 28.5716C27.0208 29.2571 27.3845 29.972 28.0094 30.1658C28.6343 30.3612 29.2859 29.9623 29.4626 29.2767C29.6407 28.5911 29.277 27.8779 28.6521 27.6825C28.0272 27.487 27.3756 27.886 27.1989 28.5716Z" fill="#FF9E83"/>
<path d="M33.5166 30.1055L33.3503 30.7503C33.3503 30.7503 33.9055 31.0369 33.7778 31.5287C33.6502 32.0205 32.8976 31.8218 32.8976 31.8218" stroke="#512A21" stroke-width="0.5" stroke-linecap="round" stroke-linejoin="round"/>
<path d="M34.4139 29.987C34.3486 30.2426 34.4837 30.508 34.7152 30.5813C34.9483 30.653 35.1917 30.5048 35.257 30.2491C35.3223 29.9935 35.1872 29.728 34.9542 29.6548C34.7212 29.5831 34.4792 29.7313 34.4124 29.987H34.4139Z" fill="#1A1613"/>
<path d="M31.5857 29.1031C31.5189 29.3587 31.6539 29.6242 31.887 29.6975C32.12 29.7707 32.3635 29.6209 32.4288 29.3669C32.4941 29.1112 32.3605 28.8458 32.126 28.7725C31.8929 28.6992 31.651 28.8491 31.5842 29.1047L31.5857 29.1031Z" fill="#1A1613"/>
<path d="M32.4062 23.0885C32.4062 23.0885 31.2529 22.7189 30.3594 22.7612C29.4643 22.8035 28.4446 23.393 27.9429 24.4189C27.4397 25.4432 28.5514 25.8015 28.5514 25.8015L32.1213 24.7072L32.4062 23.0885Z" fill="#1A1613"/>
<path d="M31.3275 32.0094L31.2429 32.296C31.0871 32.8285 31.3543 33.3985 31.8396 33.5678C32.325 33.7388 32.8445 33.4457 32.9989 32.9132L33.082 32.6266L31.3261 32.0078L31.3275 32.0094Z" fill="#FF6F57" stroke="#512A21" stroke-width="0.5" stroke-linecap="round" stroke-linejoin="round"/>
<path d="M30.5273 26.98L29.4779 29.0367L29.0623 28.8836L28.9629 27.8332L29.0029 26.4654L30.177 26.0664L30.5273 26.98Z" fill="#1A1613"/>
<path d="M35.2398 27.1014L36.7999 28.1827C36.7999 28.1827 38.9521 29.6678 38.9135 30.0684C38.875 30.469 31.0451 28.5833 28.8572 26.8555C28.8572 26.8555 29.5875 25.1115 35.2413 27.1014H35.2398Z" fill="white"/>
<path d="M33.4337 21.7349C33.4337 21.7349 29.4423 20.6325 27.9105 23.7118C27.9105 23.7118 27.3168 24.6921 27.0971 26.9166C27.0971 26.9166 31.3987 26.4117 36.7467 28.1656C36.7467 28.1656 37.0688 27.4523 37.1045 25.946C37.146 24.1629 35.8888 22.5003 33.4337 21.7349Z" fill="#F44567"/>
<path d="M29.011 37.7741L31.4275 35.0938L32.0391 35.7207L30.7106 40.6744L29.011 37.7741Z" fill="white"/>
<path d="M27.2092 32.8652L29.0156 37.7619L26.093 39.4522L25.8807 33.274L27.2092 32.8652Z" fill="white"/>
<path d="M15.9375 51.6211L14.3686 52.4369" stroke="#512A21" stroke-width="0.5" stroke-linecap="round" stroke-linejoin="round"/>
<path d="M39.3274 55.6314L39.4922 44.5174C39.4922 44.5174 39.3645 43.3645 38.2661 43.2619C38.2661 43.2619 37 43.213 37.0608 44.7861L36.7165 54.6234L39.3289 55.6314H39.3274Z" fill="#004167"/>
<path d="M41.1089 59.478L42.8901 52.707L44.281 53.3307C45.3215 53.7981 45.133 56.9409 43.8609 60.3525C42.5888 63.764 40.7141 66.1513 39.6751 65.6839L38.4579 65.1384L41.1104 59.4764L41.1089 59.478Z" fill="#FF5D3B"/>
<path d="M38.7905 58.0774C37.5184 61.4889 37.3299 64.6318 38.3704 65.0992C39.4109 65.5649 41.2841 63.1792 42.5562 59.7677C43.8283 56.3561 44.0168 53.2117 42.9763 52.7459C41.9358 52.2786 40.0625 54.6658 38.789 58.0774H38.7905Z" fill="#FFD061"/>
<path d="M34.5983 60.3472L39.3704 62.7019C42.0452 60.0264 42.1758 55.9814 42.1758 55.9814L37.2894 53.5859C37.2894 53.5859 37.1305 57.5691 34.5983 60.3472Z" fill="#366EB8"/>
<path d="M39.029 53.5191C37.7138 53.3497 36.3111 52.459 36.3943 51.5129C36.4789 50.5684 38.2333 51.4657 38.2333 51.4657C35.9861 50.7866 36.1909 49.4301 36.1909 49.4301C36.4432 48.313 38.174 49.3682 38.174 49.3682C36.608 48.7543 36.0811 48.5361 36.185 47.5151C36.2978 46.4094 38.3165 47.1601 38.3165 47.1601C37.7465 46.9793 36.5902 47.077 36.4655 46.0316C36.3423 45.0024 37.3635 44.7435 37.3635 44.7435C38.453 44.4699 40.9512 44.7191 41.6963 46.7904C41.6963 46.7904 42.3153 48.0948 41.6458 50.7589C41.6458 50.7589 40.9259 53.7617 39.0275 53.5175L39.029 53.5191Z" fill="white"/>
<path d="M39.5039 47.1744C39.5039 47.1744 38.3105 46.7445 37.2596 46.7461" stroke="#193B4E" stroke-width="0.5" stroke-linecap="round" stroke-linejoin="round"/>
<path d="M39.3594 49.4339C39.3594 49.4339 38.0561 48.8281 36.9651 48.8281" stroke="#193B4E" stroke-width="0.5" stroke-linecap="round" stroke-linejoin="round"/>
<path d="M38.9766 51.638C38.9766 51.638 37.8648 51.1251 37.0514 51.0078" stroke="#193B4E" stroke-width="0.5" stroke-linecap="round" stroke-linejoin="round"/>
<path d="M31.0931 60.28L32.6101 60.9656C33.9059 61.5518 35.3932 60.8728 35.9276 59.4512L37.7845 54.5122C38.3188 53.0922 37.6999 51.4589 36.4041 50.8726L34.8871 50.1871C33.5912 49.6008 32.1039 50.2815 31.5696 51.7015L29.7127 56.6405C29.1783 58.0605 29.7973 59.6938 31.0931 60.28ZM35.9187 52.1623C36.5658 52.4555 36.8761 53.2713 36.6089 53.9829L34.7535 58.9219C34.4863 59.6319 33.7426 59.9723 33.0955 59.6792L31.5785 58.9936C30.9313 58.7005 30.6211 57.8846 30.8883 57.173L32.7452 52.234C33.0123 51.524 33.756 51.1837 34.4032 51.4768L35.9202 52.1623H35.9187Z" fill="#004167"/>
<path d="M29.3174 54.5206L27.5837 54.3398C27.5837 54.3398 26.2627 56.605 26.5106 59.2316L27.9147 59.3212L29.6484 57.2384L29.3189 54.5206H29.3174Z" fill="white"/>
<path d="M27.7571 56.1702C27.7571 56.1702 29.7224 51.2605 31.4175 51.1855C33.1126 51.1123 35.6894 52.0779 35.7562 53.4914C35.8245 54.9049 33.7226 53.7894 33.7226 53.7894C33.7226 53.7894 35.5528 54.0874 35.3495 55.2029C35.1461 56.3183 33.9928 55.5741 32.976 55.3511C32.976 55.3511 35.0096 55.5741 34.6711 56.5414C34.3327 57.5087 33.451 57.0625 32.366 56.7645C32.366 56.7645 34.2644 57.2107 33.8577 57.9549C33.451 58.6991 32.841 58.7724 31.1458 58.1031C31.1458 58.1031 29.7906 60.1858 28.2989 59.4417C26.8071 58.6975 27.6205 57.2107 27.7571 56.1702Z" fill="white"/>
<path d="M34.8047 54.1972C34.8047 54.1972 33.5846 53.4171 32.2962 53.1191" stroke="#193B4E" stroke-width="0.5" stroke-linecap="round" stroke-linejoin="round"/>
<path d="M34.2969 55.7984C34.2969 55.7984 32.9743 55.0916 31.7883 54.7578" stroke="#193B4E" stroke-width="0.5" stroke-linecap="round" stroke-linejoin="round"/>
<path d="M33.3477 57.1C33.3477 57.1 32.3309 56.6164 31.3468 56.3184" stroke="#193B4E" stroke-width="0.5" stroke-linecap="round" stroke-linejoin="round"/>
<path d="M39.0113 59.4105C38.9401 59.5945 39.0173 59.8078 39.185 59.886C39.3527 59.9641 39.5472 59.8794 39.6184 59.6954L40.4422 57.5866C40.5135 57.4026 40.4363 57.1893 40.2686 57.1111C40.1008 57.033 39.9064 57.1176 39.8351 57.3016L39.0113 59.4121V59.4105Z" fill="#A2B7C9"/>
<path d="M37.8981 58.8851C37.8253 59.0691 37.904 59.2824 38.0717 59.3606C38.2395 59.4387 38.4339 59.354 38.5052 59.17L39.329 57.0612C39.4002 56.8772 39.323 56.6639 39.1553 56.5857C38.9876 56.5076 38.7931 56.5922 38.7219 56.7763L37.8981 58.8851Z" fill="#A2B7C9"/>
<path d="M21.101 62.7866L15.9548 60.072C15.9548 60.072 9.7102 58.3882 8.87452 60.5491C8.13681 62.4593 8.43367 64.3059 8.43367 64.3059L9.52169 74.0765L8.8285 76.0941H17.9319C17.9319 76.0941 18.6251 74.4022 18.5257 73.8599C18.4262 73.3176 18.0314 67.781 18.0314 67.781L20.7032 66.3691L22.7812 65.6087L21.0995 62.7866H21.101Z" fill="#124A77"/>
</g>
</svg>
