<svg width="10" height="10" viewBox="0 0 10 10" fill="none" xmlns="http://www.w3.org/2000/svg">
<path d="M5.31619 0.208942L6.5694 2.78151C6.62389 2.89194 6.72791 2.96974 6.84803 2.98731L9.65042 3.40018C9.95506 3.44535 10.0764 3.82308 9.85599 4.04144L7.82881 6.04427C7.74088 6.13086 7.70126 6.2551 7.72231 6.37682L8.20031 9.20413C8.25232 9.51159 7.93407 9.745 7.66287 9.60069L5.15644 8.26546C5.04871 8.20774 4.91992 8.20774 4.81094 8.26546L2.30452 9.60069C2.03208 9.745 1.71507 9.51159 1.76708 9.20413L2.24508 6.37682C2.26613 6.2551 2.22527 6.13086 2.13858 6.04427L0.112639 4.04018C-0.107788 3.82308 0.0135708 3.4441 0.318205 3.39892L3.12059 2.98606C3.24072 2.96849 3.34597 2.89194 3.39922 2.78025L4.6512 0.208942C4.78742 -0.0696475 5.17997 -0.0696475 5.31619 0.208942Z" fill="#FCDA13"/>
</svg>
