<svg width="50" height="50" viewBox="0 0 50 50" fill="none" xmlns="http://www.w3.org/2000/svg">
<path d="M19.9933 6.25C11.3625 6.25 4.16577 12.1853 4.16577 19.7034C4.16577 23.5495 6.27083 26.9017 9.26064 29.3487C9.06604 30.6484 8.5376 31.8754 7.72696 32.9098C7.39599 33.3344 7.04967 33.7467 6.68868 34.146C6.50196 34.3426 6.33595 34.558 6.19327 34.7886C6.10306 34.9358 5.96219 35.1004 5.8973 35.4328C5.83241 35.7651 5.92104 36.308 6.19327 36.7179L6.39112 37.0646L6.78681 37.2624C8.17171 37.9541 9.66741 37.8322 11.0412 37.4603C12.4135 37.0867 13.7335 36.4473 14.9981 35.7778C16.2627 35.1083 17.4625 34.4103 18.4105 33.8991C18.5435 33.8278 18.6289 33.8104 18.7571 33.7503C21.2531 37.1817 25.8241 39.4878 30.9237 39.4878C30.9728 39.4941 31.0187 39.4878 31.0725 39.4878C33.1301 39.4878 39.7777 46.2841 43.7345 43.5934C43.8928 42.9619 40.2556 41.3776 40.0736 36.6689C43.1711 34.4799 45.1701 31.2242 45.1701 27.6171C45.1701 22.2801 40.9346 17.8706 35.2779 16.291C33.4878 10.4664 27.2644 6.25 19.9933 6.25ZM19.9933 9.4155C27.19 9.4155 32.6553 14.2429 32.6553 19.7034C32.6553 25.1639 27.19 29.9913 19.9933 29.9913C18.7081 29.9913 17.9705 30.5167 16.9259 31.0802C15.8813 31.6436 14.6831 32.3401 13.5135 32.9589C12.5005 33.4939 11.5351 33.9054 10.6456 34.195C11.5113 32.9447 12.4151 31.3002 12.5733 29.002L12.624 28.1109L11.8817 27.5681C9.06122 25.5912 7.33127 22.747 7.33127 19.7034C7.33127 14.2429 12.7965 9.4155 19.9933 9.4155Z" fill="currentColor"/>
</svg>
