<svg width="50" height="50" viewBox="0 0 50 50" fill="none" xmlns="http://www.w3.org/2000/svg">
<circle cx="23.9583" cy="28.125" r="15.625" fill="#FEF1F8"/>
<path d="M24.2194 4.16799C24.1485 4.16955 24.0777 4.17632 24.0078 4.18826H19.8503C19.6563 4.18548 19.4637 4.22178 19.2836 4.29506C19.1036 4.36833 18.9397 4.47711 18.8016 4.61507C18.6634 4.75304 18.5537 4.91745 18.4788 5.09873C18.404 5.28001 18.3654 5.47457 18.3654 5.67108C18.3654 5.86759 18.404 6.06214 18.4788 6.24342C18.5537 6.42471 18.6634 6.58911 18.8016 6.72708C18.9397 6.86504 19.1036 6.97382 19.2836 7.0471C19.4637 7.12037 19.6563 7.15667 19.8503 7.15389H22.7783V10.1948C13.7769 10.953 6.67407 18.6043 6.67407 27.913C6.67407 37.7227 14.5569 45.7067 24.2423 45.7067C33.9277 45.7067 41.8106 37.7227 41.8106 27.913C41.8106 23.5411 40.2376 19.5372 37.6444 16.4357L39.769 14.2839L40.807 15.3322C40.942 15.4742 41.1035 15.5876 41.2822 15.6656C41.461 15.7436 41.6533 15.7848 41.8479 15.7866C42.0425 15.7885 42.2355 15.7511 42.4156 15.6765C42.5958 15.6019 42.7595 15.4917 42.8971 15.3523C43.0347 15.213 43.1435 15.0472 43.2171 14.8647C43.2907 14.6823 43.3277 14.4868 43.3259 14.2897C43.324 14.0925 43.2834 13.8978 43.2064 13.7168C43.1293 13.5358 43.0174 13.3721 42.8772 13.2354L40.9957 11.3327C40.8972 11.1883 40.7743 11.0628 40.6325 10.9619L38.7338 9.03889C38.5974 8.89684 38.4343 8.78393 38.254 8.70683C38.0738 8.62973 37.8801 8.59 37.6844 8.58999C37.3932 8.59007 37.1086 8.67812 36.867 8.84288C36.6254 9.00764 36.4378 9.24163 36.3283 9.51493C36.2187 9.78823 36.192 10.0884 36.2518 10.3771C36.3115 10.6658 36.4549 10.93 36.6636 11.1357L37.6987 12.187L35.5741 14.3388C32.8626 12.013 29.4497 10.5098 25.7063 10.1945V7.15356H28.6344C28.8284 7.15634 29.021 7.12004 29.201 7.04677C29.3811 6.9735 29.5449 6.86472 29.6831 6.72675C29.8212 6.58878 29.9309 6.42438 30.0058 6.24309C30.0807 6.06181 30.1193 5.86726 30.1193 5.67075C30.1193 5.47424 30.0807 5.27969 30.0058 5.0984C29.9309 4.91712 29.8212 4.75272 29.6831 4.61475C29.5449 4.47678 29.3811 4.368 29.201 4.29473C29.021 4.22146 28.8284 4.18516 28.6344 4.18794H24.4682C24.386 4.17402 24.3027 4.16756 24.2194 4.16799ZM24.0707 13.0938C24.1885 13.1083 24.3075 13.1083 24.4253 13.0938C28.2989 13.1421 31.7993 14.7035 34.3875 17.2237C34.495 17.3856 34.633 17.5243 34.7935 17.6321C37.3238 20.2956 38.8825 23.9133 38.8825 27.9133C38.8825 36.1202 32.3452 42.7414 24.2423 42.7414C16.1394 42.7414 9.60212 36.1202 9.60212 27.9133C9.60212 19.7651 16.0483 13.1875 24.0707 13.0938Z" fill="#FF39A4"/>
<path fill-rule="evenodd" clip-rule="evenodd" d="M23.9339 16.8361C23.52 16.8426 23.1256 17.0125 22.8373 17.3087C22.5489 17.6048 22.3901 18.003 22.3958 18.4158V23.5045C21.9216 23.7785 21.5277 24.1724 21.2534 24.6467C20.9792 25.1211 20.8343 25.6592 20.8333 26.2072C20.8331 26.618 20.9139 27.0248 21.0708 27.4044C21.2278 27.784 21.458 28.1289 21.7482 28.4195C22.0384 28.71 22.3829 28.9405 22.7621 29.0978C23.1414 29.255 23.5478 29.3359 23.9583 29.3359C24.3688 29.3359 24.7753 29.255 25.1545 29.0978C25.5337 28.9405 25.8783 28.71 26.1685 28.4195C26.4587 28.1289 26.6888 27.784 26.8458 27.4044C27.0028 27.0248 27.0835 26.618 27.0833 26.2072C27.0828 25.6587 26.9382 25.12 26.6639 24.6451C26.3897 24.1702 25.9955 23.7758 25.5208 23.5015V18.4158C25.5237 18.2073 25.4846 18.0003 25.4058 17.8072C25.327 17.6141 25.2102 17.4387 25.0622 17.2914C24.9143 17.1441 24.7382 17.0279 24.5444 16.9497C24.3505 16.8715 24.1429 16.8329 23.9339 16.8361Z" fill="#CCD4DE"/>
</svg>
