<svg width="51" height="45" viewBox="0 0 51 45" fill="none" xmlns="http://www.w3.org/2000/svg">
<path d="M20.8655 2.5C22.79 -0.833337 27.6012 -0.83333 29.5257 2.5L49.4443 37C51.3688 40.3333 48.9632 44.5 45.1142 44.5H5.27698C1.42798 44.5 -0.977636 40.3333 0.946865 37L20.8655 2.5Z" fill="#FE605F"/>
<path d="M24.6806 15C25.9436 15 26.9578 16.0418 26.924 17.3043L26.6479 27.61C26.6193 28.6759 25.747 29.5252 24.6806 29.5252C23.6143 29.5252 22.7419 28.6759 22.7134 27.61L22.4372 17.3043C22.4034 16.0418 23.4177 15 24.6806 15ZM22.1959 33.5935C22.166 32.2756 23.3035 31.2012 24.7106 31.2156C26.0428 31.2012 27.1953 32.2756 27.1953 33.5935C27.1953 34.9256 26.0428 36 24.7106 36C23.3035 36 22.166 34.9256 22.1959 33.5935Z" fill="white"/>
</svg>
