<svg width="73" height="81" viewBox="0 0 73 81" fill="none" xmlns="http://www.w3.org/2000/svg">
<path d="M0.195312 22.5625C0.195312 16.9056 0.195312 14.0772 1.95267 12.3199C3.71003 10.5625 6.53846 10.5625 12.1953 10.5625H49.8258C55.4826 10.5625 58.311 10.5625 60.0684 12.3199C61.8258 14.0772 61.8258 16.9056 61.8258 22.5625V70.7255C61.8258 74.7218 61.8258 76.7199 60.9119 78.1802C60.4298 78.9506 59.779 79.6014 59.0087 80.0835C57.5484 80.9973 55.5503 80.9973 51.554 80.9973H41.2823H31.0105H20.7388H11.751C6.52505 80.9973 3.91206 80.9973 2.20645 79.4794C2.03262 79.3247 1.86794 79.16 1.71324 78.9862C0.195312 77.2805 0.195312 74.6675 0.195312 69.4416V22.5625Z" fill="#BED8FF"/>
<line x1="14.9014" y1="25.793" x2="47.1188" y2="25.793" stroke="white" stroke-width="3" stroke-linecap="round" stroke-linejoin="round"/>
<line x1="14.9014" y1="38.1211" x2="29.5101" y2="38.1211" stroke="white" stroke-width="3" stroke-linecap="round" stroke-linejoin="round"/>
<line x1="14.9014" y1="50.4414" x2="47.1188" y2="50.4414" stroke="white" stroke-width="3" stroke-linecap="round" stroke-linejoin="round"/>
<line x1="14.9014" y1="62.7734" x2="38.3144" y2="62.7734" stroke="white" stroke-width="3" stroke-linecap="round" stroke-linejoin="round"/>
<path d="M70.4709 18.902C70.2941 19.8874 69.7542 20.7707 68.9579 21.3774L63.4897 25.5436C62.0578 26.6347 60.0734 26.6347 58.6414 25.5436L53.1732 21.3774C52.3769 20.7707 51.8371 19.8874 51.6603 18.902L49.854 8.83373C49.5411 7.0897 50.4129 5.34764 51.9964 4.55263L59.2708 0.900468C60.4001 0.333487 61.731 0.333487 62.8603 0.900468L70.1347 4.55263C71.7182 5.34765 72.59 7.0897 72.2771 8.83373L70.4709 18.902Z" fill="#2979FF"/>
<path d="M57.1514 11.136L61.2228 16.9562L66.0023 8.69531" stroke="white" stroke-width="2" stroke-linecap="round" stroke-linejoin="round"/>
</svg>
