<svg width="21" height="62" viewBox="0 0 21 62" fill="none" xmlns="http://www.w3.org/2000/svg">
<path d="M12.7396 28.0287C9.86442 29.2513 8.56516 30.5909 7.37952 33.5555C7.12758 34.182 6.26305 34.182 6.0111 33.5555C4.82547 30.5909 3.52621 29.2513 0.651041 28.0287C0.0434029 27.769 0.0434029 26.8775 0.651041 26.6178C3.52621 25.4003 4.83041 24.0556 6.0111 21.091C6.26305 20.4645 7.12758 20.4645 7.37952 21.091C8.56516 24.0556 9.86442 25.3953 12.7396 26.6178C13.3472 26.8775 13.3472 27.769 12.7396 28.0287Z" fill="white"/>
<circle cx="17.2441" cy="2.5" r="2.5" fill="#FFECA7"/>
<rect x="12.125" y="61.5156" width="4" height="12" rx="2" transform="rotate(-137.108 12.125 61.5156)" fill="#96C0FF"/>
</svg>
