<svg width="204" height="200" viewBox="0 0 204 200" fill="none" xmlns="http://www.w3.org/2000/svg">
<g clip-path="url(#clip0_803_11594)">
<rect width="204" height="200" rx="9.64063" fill="white"/>
<path d="M41.2461 34.4141V45.1016H39.7344V34.4141H41.2461ZM32.6328 38.9609C32.627 36.6348 33.8164 35.1641 35.457 35.1641C37.0625 35.1641 38.2578 36.6348 38.2578 38.9609C38.2578 41.3047 37.0625 42.7695 35.457 42.7695C33.8164 42.7695 32.627 41.3047 32.6328 38.9609ZM34.0742 38.9609C34.0684 40.5488 34.625 41.416 35.457 41.4102C36.2656 41.416 36.8105 40.5488 36.8164 38.9609C36.8105 37.3789 36.2656 36.5117 35.457 36.5117C34.625 36.5117 34.0684 37.3789 34.0742 38.9609ZM45.9045 35.1289C47.5979 35.123 48.8518 36.2129 48.8577 37.7422C48.8518 39.2773 47.5979 40.3613 45.9045 40.3672C44.2229 40.3613 42.9338 39.2773 42.9397 37.7422C42.9338 36.2129 44.2229 35.123 45.9045 35.1289ZM42.4944 41.7031C44.3987 41.709 47.0354 41.6855 49.3147 41.3633L49.4319 42.4414C47.0647 42.9043 44.5334 42.9219 42.6702 42.9219L42.4944 41.7031ZM44.428 37.7422C44.4221 38.5859 45.0608 39.0723 45.9045 39.0664C46.7541 39.0723 47.3987 38.5859 47.4045 37.7422C47.3987 36.9102 46.7541 36.418 45.9045 36.418C45.0608 36.418 44.4221 36.9102 44.428 37.7422ZM49.9241 45.1016V34.4141H51.4123V45.1016H49.9241ZM60.9927 34.4141V38.5039H62.5044V39.7344H60.9927V45.0547H59.4927V34.4141H60.9927ZM52.4614 42.0664C54.9868 40.8008 56.3462 39.1016 56.6274 36.7227H53.0708V35.5039H58.145C58.1333 38.6914 56.8911 41.4512 53.3052 43.2148L52.4614 42.0664ZM69.1142 41.2578C69.1142 42.1133 69.4775 43.0039 70.3388 43.5898C71.2236 42.9629 71.6103 42.0488 71.6103 41.2578V40.8945H73.0869V41.2578C73.0752 42.3711 73.667 43.3965 75.0908 43.8359L74.3642 44.9258C73.3447 44.5801 72.6767 43.9297 72.3076 43.1035C71.956 43.9297 71.3349 44.6445 70.3798 45.0195C69.3779 44.6562 68.7509 43.9648 68.4052 43.1445C68.0244 43.9355 67.3681 44.5801 66.3955 44.9258L65.6572 43.8359C67.0576 43.3555 67.6552 42.2949 67.6611 41.2578V40.8945H69.1142V41.2578ZM65.3994 37.5312C65.3994 36.0195 66.6533 34.9648 68.3173 34.9648C69.9755 34.9648 71.2295 36.0195 71.2353 37.5312C71.2295 39.0137 69.9755 40.0801 68.3173 40.0742C66.6533 40.0801 65.3994 39.0137 65.3994 37.5312ZM66.8642 37.5312C66.8525 38.334 67.4619 38.8379 68.3173 38.832C69.1494 38.8379 69.7529 38.334 69.7588 37.5312C69.7529 36.7051 69.1494 36.2188 68.3173 36.2188C67.4619 36.2188 66.8525 36.7051 66.8642 37.5312ZM72.665 40.4492V34.4258H74.165V40.4492H72.665ZM84.0266 37.3203V38.4922H76.5734V34.7891H78.0617V37.3203H84.0266ZM75.3547 40.8125V39.6406H85.1164V40.8125H75.3547ZM76.4797 44.8438V41.6797H77.9797V43.6484H84.0969V44.8438H76.4797ZM96.4841 34.4141V37.1445H97.9255V38.3867H96.4841V41.1875H94.9841V34.4141H96.4841ZM88.0231 36.5938V35.4336H90.4489V34.3555H91.9372V35.4336H94.3512V36.5938H88.0231ZM88.5387 38.8789C88.5387 37.7422 89.6169 36.9629 91.1872 36.957C92.7399 36.9629 93.8122 37.7422 93.8122 38.8789C93.8122 40.0273 92.7399 40.7891 91.1872 40.7891C89.6227 40.7891 88.5387 40.0273 88.5387 38.8789ZM89.3942 43.1914C89.3825 41.9902 90.7595 41.2871 93.0036 41.2812C95.195 41.2871 96.5954 41.9902 96.6012 43.1914C96.5954 44.3633 95.195 45.084 93.0036 45.0781C90.7595 45.084 89.3825 44.3633 89.3942 43.1914ZM90.0036 38.8789C89.9977 39.4062 90.4723 39.6816 91.1872 39.6758C91.9079 39.6816 92.3942 39.4062 92.3942 38.8789C92.3942 38.3457 91.9079 38.0527 91.1872 38.0469C90.4723 38.0527 89.9977 38.3457 90.0036 38.8789ZM90.8708 43.1914C90.8649 43.6895 91.6032 43.9648 93.0036 43.9648C94.363 43.9648 95.1012 43.6895 95.1012 43.1914C95.1012 42.6582 94.363 42.4238 93.0036 42.418C91.6032 42.4238 90.8649 42.6582 90.8708 43.1914ZM106.65 34.8359V38.5859H103.756V39.6055H107.881V40.8125H98.1542V39.6055H102.256V38.5859H99.3613V34.8359H106.65ZM99.2323 42.7695V41.5977H106.697V45.0781H105.209V42.7695H99.2323ZM100.826 37.4141H105.185V35.9961H100.826V37.4141ZM113.149 34.5664C115.604 34.5664 117.022 35.2109 117.027 36.3828C117.022 37.5723 115.604 38.2109 113.149 38.2109C110.688 38.2109 109.258 37.5723 109.258 36.3828C109.258 35.2109 110.688 34.5664 113.149 34.5664ZM108.285 39.8984V38.7148H118.012V39.8984H108.285ZM109.41 41.6094V40.5195H116.828V43.2383H110.887V43.8828H117.11V45.0078H109.422V42.1953H115.352V41.6094H109.41ZM110.828 36.3828C110.822 36.9043 111.584 37.1094 113.149 37.1094C114.725 37.1094 115.481 36.9043 115.481 36.3828C115.481 35.9082 114.725 35.6562 113.149 35.6562C111.584 35.6562 110.822 35.9082 110.828 36.3828ZM129.403 34.4141V36.4766H130.844V37.707H129.403V39.7461H127.903V34.4141H129.403ZM121.012 37.1445C121.006 35.7207 122.243 34.7363 123.883 34.7305C125.518 34.7363 126.743 35.7207 126.743 37.1445C126.743 38.5508 125.518 39.5586 123.883 39.5586C122.243 39.5586 121.006 38.5508 121.012 37.1445ZM122.325 41.3164V40.168H129.403V43.0742H123.813V43.7891H129.708V44.9609H122.348V41.9961H127.915V41.3164H122.325ZM122.477 37.1445C122.465 37.9004 123.063 38.375 123.883 38.375C124.698 38.375 125.29 37.9004 125.29 37.1445C125.29 36.4004 124.698 35.9492 123.883 35.9492C123.063 35.9492 122.465 36.4004 122.477 37.1445ZM140.061 34.4141V45.1016H138.573V40.8008H136.745V39.5703H138.573V37.8945H136.78V36.6758H138.573V34.4141H140.061ZM131.425 36.4883V35.3047H136.218V39.4062H132.936V41.4863C134.255 41.4746 135.421 41.416 136.768 41.2109L136.886 42.4297C135.292 42.6816 133.933 42.7168 132.292 42.7109H131.448V38.2461H134.753V36.4883H131.425ZM150.931 40.2969V41.4922H146.782V45.0781H145.306V41.4922H141.204V40.2969H150.931ZM141.685 38.5039C143.841 38.2402 145.036 37.1973 145.194 36.1484H142.083V34.9766H150.064V36.1484H146.952C147.105 37.1973 148.282 38.2402 150.474 38.5039L149.935 39.6758C148.06 39.4238 146.718 38.627 146.073 37.5312C145.423 38.627 144.093 39.4238 142.235 39.6758L141.685 38.5039ZM154.757 37.0977C154.751 38.8262 155.232 40.6074 156.691 41.5391L155.882 42.6992C154.956 42.1426 154.376 41.2168 154.036 40.127C153.656 41.334 153.017 42.3477 152.05 42.9336L151.136 41.832C152.718 40.8535 153.304 38.9727 153.304 37.168V35.3281H154.757V37.0977ZM155.566 39.2305V38.0117H156.949V34.5664H158.343V44.5859H156.949V39.2305H155.566ZM159.152 45.0781V34.4141H160.581V45.0781H159.152ZM171.228 42.6055V43.8359H161.466V42.6055H163.646V39.9922C162.82 39.4941 162.322 38.7383 162.322 37.8008C162.322 36.0723 164.009 34.9355 166.33 34.9297C168.638 34.9355 170.343 36.0723 170.349 37.8008C170.343 38.7207 169.863 39.4648 169.06 39.9629V42.6055H171.228ZM163.798 37.8008C163.798 38.8438 164.8 39.4883 166.33 39.4883C167.836 39.4883 168.867 38.8438 168.873 37.8008C168.867 36.7285 167.836 36.1074 166.33 36.1133C164.8 36.1074 163.798 36.7285 163.798 37.8008ZM165.123 42.6055H167.548V40.5312C167.168 40.6074 166.757 40.6484 166.33 40.6484C165.902 40.6484 165.498 40.6074 165.123 40.5371V42.6055Z" fill="#1B1C23"/>
<path d="M28.7578 73.3281C28.75 74.5898 29.3828 75.8633 30.4766 76.3906L29.9453 77.0859C29.1797 76.6992 28.6289 75.9531 28.3281 75.0547C28.0195 76.0156 27.4414 76.8125 26.6328 77.2188L26.1016 76.5234C27.2383 75.9844 27.8867 74.6328 27.8906 73.3281V72.2031H28.7578V73.3281ZM30.8984 78.6953V71.6328H31.7656V74.3984H32.8516V75.1406H31.7656V78.6953H30.8984ZM38.7541 72.2812V72.9609C38.7463 73.8398 38.7463 74.8203 38.4728 76.2969L37.5978 76.2031C37.8752 74.8281 37.8752 73.8242 37.8791 72.9766H33.6603V72.2812H38.7541ZM32.9884 77.7812V77.0703H35.3634V74.6172H36.2228V77.0703H39.4259V77.7812H32.9884ZM45.6253 71.6406V75.9453H44.7503V71.6406H45.6253ZM40.1019 72.7734V72.0625H43.3597V74.1328H40.9691V74.8906C42.1761 74.8867 43.0394 74.8477 44.0472 74.6953L44.1566 75.3906C43.0433 75.5742 42.0863 75.6055 40.7191 75.6016H40.1175V73.4844H42.5003V72.7734H40.1019ZM40.8363 77.3828C40.8323 76.5469 41.7464 76.0703 43.2503 76.0703C44.7464 76.0703 45.6644 76.5469 45.6644 77.3828C45.6644 78.2031 44.7464 78.6875 43.2503 78.6875C41.7464 78.6875 40.8323 78.2031 40.8363 77.3828ZM41.6956 77.3828C41.6956 77.7891 42.2503 78.0039 43.2503 78.0078C44.2425 78.0039 44.7933 77.7891 44.7972 77.3828C44.7933 76.9727 44.2425 76.75 43.2503 76.75C42.2503 76.75 41.6956 76.9727 41.6956 77.3828ZM52.2231 72.2891V73.1328C52.2231 74.1602 52.2231 75.1289 51.9106 76.625L51.0434 76.5469C51.188 75.9297 51.2661 75.3867 51.313 74.8867L47.1528 75.1016L47.0356 74.3984L51.352 74.2344C51.3677 73.8555 51.3716 73.4922 51.3716 73.1328V72.9922H47.2466V72.2891H52.2231ZM46.4966 77.7969V77.0859H52.9341V77.7969H46.4966ZM60.7 77.8516V78.5547H55.7859V76.5156H56.6531V77.8516H60.7ZM54.9891 76.0391V75.3359H57.7703V74.2734H58.6297V75.3359H61.4266V76.0391H54.9891ZM55.3563 74.0312C56.8055 73.8164 57.7547 72.9688 57.7547 72.0781V71.8281H58.6375V72.0781C58.6375 73 59.5672 73.832 61.0438 74.0312L60.7 74.7109C59.5477 74.5195 58.6375 73.9766 58.1922 73.2031C57.7469 73.9727 56.8445 74.5273 55.7 74.7109L55.3563 74.0312ZM65.1884 72.7578V73.4531H61.7275V72.7578H63.04V71.8359H63.8994V72.7578H65.1884ZM61.9306 75.4688C61.9228 74.5078 62.5752 73.8242 63.4697 73.8281C64.3681 73.8242 65.0088 74.5078 65.0088 75.4688C65.0088 76.4492 64.3681 77.1328 63.4697 77.1328C62.5752 77.1328 61.9228 76.4492 61.9306 75.4688ZM62.6963 75.4688C62.6923 76.0391 63.0127 76.3945 63.4697 76.3906C63.9228 76.3945 64.2431 76.0391 64.2431 75.4688C64.2431 74.9141 63.9228 74.5469 63.4697 74.5469C63.0127 74.5469 62.6923 74.9141 62.6963 75.4688ZM65.4853 78.375V71.7812H66.2978V74.5391H66.9853V71.6328H67.8134V78.6953H66.9853V75.2422H66.2978V78.375H65.4853ZM71.0206 73.3281C71.0128 74.5898 71.6456 75.8633 72.7394 76.3906L72.2081 77.0859C71.4425 76.6992 70.8917 75.9531 70.5909 75.0547C70.2823 76.0156 69.7042 76.8125 68.8956 77.2188L68.3644 76.5234C69.5011 75.9844 70.1495 74.6328 70.1534 73.3281V72.2031H71.0206V73.3281ZM73.1613 78.6953V71.6328H74.0284V74.3984H75.1144V75.1406H74.0284V78.6953H73.1613ZM81.1653 71.6328V75.8281H80.2981V74.1016H79.095V73.3906H80.2981V71.6328H81.1653ZM75.2278 75.125C76.3645 74.7344 76.9622 73.7852 76.9622 72.8516V72.7969H75.4934V72.0938H79.3059V72.7969H77.845V72.8438C77.845 73.7031 78.4153 74.5703 79.5091 74.9375L79.0716 75.625C78.2864 75.3594 77.7317 74.8203 77.4192 74.1562C77.1106 74.9062 76.5208 75.5156 75.6809 75.8125L75.2278 75.125ZM76.3763 77.3516C76.3684 76.5039 77.2864 76.0078 78.7747 76.0078C80.2708 76.0078 81.1848 76.5039 81.1888 77.3516C81.1848 78.1992 80.2708 78.6914 78.7747 78.6953C77.2864 78.6914 76.3684 78.1992 76.3763 77.3516ZM77.2356 77.3516C77.2317 77.7891 77.7942 78.0273 78.7747 78.0234C79.763 78.0273 80.3216 77.7891 80.3216 77.3516C80.3216 76.9102 79.763 76.6719 78.7747 76.6719C77.7942 76.6719 77.2317 76.9102 77.2356 77.3516ZM89.4078 71.9766V72.5234C89.4117 73.0742 89.4117 73.6992 89.2359 74.5312H90.1969V75.2344H83.7438V74.5312H88.357C88.525 73.7656 88.5406 73.1875 88.5406 72.6719H84.5406V71.9766H89.4078ZM84.5172 78.6094V76.0547H89.4V78.6094H84.5172ZM85.3688 77.9062H88.5406V76.7344H85.3688V77.9062ZM92.1619 72.0703C93.0955 72.0664 93.7869 72.7695 93.7869 73.7734C93.7869 74.7812 93.0955 75.4648 92.1619 75.4688C91.2205 75.4648 90.5408 74.7812 90.5447 73.7734C90.5408 72.7695 91.2205 72.0664 92.1619 72.0703ZM91.3259 73.7734C91.3181 74.3594 91.6697 74.7422 92.1619 74.7344C92.6462 74.7422 92.9978 74.3594 92.9978 73.7734C92.9978 73.1836 92.6462 72.8086 92.1619 72.8125C91.6697 72.8086 91.3181 73.1836 91.3259 73.7734ZM91.7009 76.8828V76.1875H96.5369V78.6953H95.6697V76.8828H91.7009ZM94.2087 75.8047V71.7734H95.0134V73.3906H95.7087V71.6406H96.5369V75.8516H95.7087V74.0859H95.0134V75.8047H94.2087Z" fill="#CCD4DE"/>
<path d="M133.807 78V77.2656L135.807 75.3359C136.377 74.7656 136.674 74.4297 136.674 73.9531C136.674 73.4258 136.256 73.0938 135.706 73.0938C135.124 73.0938 134.749 73.457 134.752 74.0312H133.784C133.78 72.9609 134.585 72.2656 135.713 72.2656C136.87 72.2656 137.647 72.957 137.651 73.9062C137.647 74.543 137.342 75.0586 136.229 76.1094L135.221 77.1094V77.1484H137.737V78H133.807ZM139.608 77.4453L138.952 79.6328H138.21L138.616 77.4453H139.608ZM142.37 78.0781C141.108 78.0781 140.218 77.4062 140.222 76.4844C140.218 75.7656 140.753 75.1797 141.432 75.0703V75.0391C140.839 74.9141 140.436 74.3984 140.432 73.7812C140.436 72.9062 141.253 72.2656 142.37 72.2656C143.479 72.2656 144.3 72.9062 144.3 73.7812C144.3 74.4023 143.886 74.9141 143.3 75.0391V75.0703C143.975 75.1797 144.515 75.7656 144.518 76.4844C144.515 77.4062 143.62 78.0781 142.37 78.0781ZM141.268 76.3906C141.265 76.9141 141.698 77.2734 142.37 77.2734C143.034 77.2734 143.468 76.9141 143.472 76.3906C143.468 75.8594 143.007 75.4648 142.37 75.4688C141.733 75.4648 141.265 75.8555 141.268 76.3906ZM141.425 73.875C141.429 74.3711 141.819 74.7109 142.37 74.7109C142.913 74.7109 143.307 74.3711 143.307 73.875C143.307 73.3945 142.925 73.0625 142.37 73.0625C141.804 73.0625 141.429 73.3945 141.425 73.875ZM147.288 78.0781C145.925 78.0781 145.112 77.0234 145.116 75.1719C145.112 73.3281 145.933 72.2656 147.288 72.2656C148.644 72.2656 149.46 73.3281 149.46 75.1719C149.46 77.0273 148.647 78.0781 147.288 78.0781ZM146.14 75.1719C146.14 76.5312 146.577 77.2227 147.288 77.2266C147.995 77.2227 148.437 76.5312 148.437 75.1719C148.433 73.8242 147.995 73.1133 147.288 73.1094C146.581 73.1133 146.144 73.8242 146.14 75.1719ZM152.237 78.0781C150.874 78.0781 150.062 77.0234 150.066 75.1719C150.062 73.3281 150.882 72.2656 152.237 72.2656C153.593 72.2656 154.409 73.3281 154.409 75.1719C154.409 77.0273 153.597 78.0781 152.237 78.0781ZM151.089 75.1719C151.089 76.5312 151.527 77.2227 152.237 77.2266C152.945 77.2227 153.386 76.5312 153.386 75.1719C153.382 73.8242 152.945 73.1133 152.237 73.1094C151.53 73.1133 151.093 73.8242 151.089 75.1719ZM156.015 77.4453L155.359 79.6328H154.617L155.023 77.4453H156.015ZM158.792 78.0781C157.429 78.0781 156.617 77.0234 156.621 75.1719C156.617 73.3281 157.437 72.2656 158.792 72.2656C160.148 72.2656 160.964 73.3281 160.964 75.1719C160.964 77.0273 160.152 78.0781 158.792 78.0781ZM157.644 75.1719C157.644 76.5312 158.082 77.2227 158.792 77.2266C159.5 77.2227 159.941 76.5312 159.941 75.1719C159.937 73.8242 159.5 73.1133 158.792 73.1094C158.085 73.1133 157.648 73.8242 157.644 75.1719ZM163.742 78.0781C162.379 78.0781 161.566 77.0234 161.57 75.1719C161.566 73.3281 162.386 72.2656 163.742 72.2656C165.097 72.2656 165.914 73.3281 165.914 75.1719C165.914 77.0273 165.101 78.0781 163.742 78.0781ZM162.593 75.1719C162.593 76.5312 163.031 77.2227 163.742 77.2266C164.449 77.2227 164.89 76.5312 164.89 75.1719C164.886 73.8242 164.449 73.1133 163.742 73.1094C163.035 73.1133 162.597 73.8242 162.593 75.1719ZM168.691 78.0781C167.328 78.0781 166.515 77.0234 166.519 75.1719C166.515 73.3281 167.336 72.2656 168.691 72.2656C170.047 72.2656 170.863 73.3281 170.863 75.1719C170.863 77.0273 170.051 78.0781 168.691 78.0781ZM167.543 75.1719C167.543 76.5312 167.98 77.2227 168.691 77.2266C169.398 77.2227 169.84 76.5312 169.84 75.1719C169.836 73.8242 169.398 73.1133 168.691 73.1094C167.984 73.1133 167.547 73.8242 167.543 75.1719ZM177.242 71.6406V76.9844H176.367V76.3672H174.984V75.7578H176.367V71.6406H177.242ZM171.289 74.8125C172.59 74.8047 174.344 74.793 175.844 74.6016L175.891 75.2266C175.309 75.3242 174.707 75.3867 174.109 75.4297V76.7891H173.242V75.4766C172.582 75.5039 171.953 75.5078 171.398 75.5078L171.289 74.8125ZM171.828 73.1484C171.828 72.4023 172.547 71.8945 173.594 71.8984C174.621 71.8945 175.344 72.4023 175.352 73.1484C175.344 73.9062 174.621 74.3867 173.594 74.3906C172.547 74.3867 171.828 73.9062 171.828 73.1484ZM172.227 78.5547V76.4688H173.094V77.8516H177.406V78.5547H172.227ZM172.648 73.1484C172.648 73.5312 173.027 73.7539 173.594 73.7578C174.133 73.7539 174.52 73.5312 174.523 73.1484C174.52 72.7656 174.133 72.5352 173.594 72.5391C173.027 72.5352 172.648 72.7656 172.648 73.1484Z" fill="#CCD4DE"/>
<path d="M32.6875 90.1328V90.8438H26.2344V90.1328H29.0156V88.7578H26.9453V85.1016H27.8125V86.2578H31.0859V85.1016H31.9531V88.7578H29.875V90.1328H32.6875ZM27.8125 88.0547H31.0859V86.9531H27.8125V88.0547ZM38.9025 84.6328V88.8281H38.0353V87.1016H36.8322V86.3906H38.0353V84.6328H38.9025ZM32.965 88.125C34.1017 87.7344 34.6994 86.7852 34.6994 85.8516V85.7969H33.2306V85.0938H37.0431V85.7969H35.5822V85.8438C35.5822 86.7031 36.1525 87.5703 37.2463 87.9375L36.8088 88.625C36.0236 88.3594 35.4689 87.8203 35.1564 87.1562C34.8478 87.9062 34.258 88.5156 33.4181 88.8125L32.965 88.125ZM34.1134 90.3516C34.1056 89.5039 35.0236 89.0078 36.5119 89.0078C38.008 89.0078 38.922 89.5039 38.9259 90.3516C38.922 91.1992 38.008 91.6914 36.5119 91.6953C35.0236 91.6914 34.1056 91.1992 34.1134 90.3516ZM34.9728 90.3516C34.9689 90.7891 35.5314 91.0273 36.5119 91.0234C37.5002 91.0273 38.0588 90.7891 38.0588 90.3516C38.0588 89.9102 37.5002 89.6719 36.5119 89.6719C35.5314 89.6719 34.9689 89.9102 34.9728 90.3516ZM47.9341 90.125V90.8359H41.4809V90.125H42.9731V88.3398C42.4106 88.0156 42.0708 87.5078 42.0747 86.8828C42.0708 85.7578 43.1723 85.0156 44.6919 85.0156C46.2192 85.0156 47.3286 85.7578 47.3247 86.8828C47.3286 87.5 46.9966 87.9961 46.4497 88.3203V90.125H47.9341ZM42.9263 86.8828C42.9223 87.6055 43.6372 88.0664 44.6919 88.0625C45.7427 88.0664 46.4731 87.6055 46.4731 86.8828C46.4731 86.1484 45.7427 85.6992 44.6919 85.7031C43.6372 85.6992 42.9223 86.1484 42.9263 86.8828ZM43.8325 90.125H45.5669V88.6523C45.2973 88.7109 45.0044 88.7422 44.6919 88.7422C44.3872 88.7422 44.0981 88.7109 43.8325 88.6562V90.125ZM50.7741 86.1406C50.7702 86.9141 51.3756 87.6758 52.485 87.9766L52.0788 88.6484C51.2663 88.4258 50.6803 87.9531 50.3561 87.3398C50.0475 88.0312 49.4616 88.5781 48.6178 88.8281L48.2116 88.1562C49.317 87.8203 49.9069 86.9922 49.9069 86.1406V86.1016H48.4303V85.4141H49.9069V84.6016H50.7819V85.4141H52.2506V86.1016H50.7741V86.1406ZM49.36 90.3594C49.3522 89.5195 50.2741 89.0469 51.7584 89.0469C53.2506 89.0469 54.1686 89.5195 54.1725 90.3594C54.1686 91.1992 53.2506 91.6875 51.7584 91.6875C50.2741 91.6875 49.3522 91.1992 49.36 90.3594ZM50.2194 90.3594C50.2155 90.7773 50.778 91.0156 51.7584 91.0156C52.7584 91.0156 53.3053 90.7773 53.3053 90.3594C53.3053 89.9375 52.7584 89.7148 51.7584 89.7109C50.778 89.7148 50.2155 89.9375 50.2194 90.3594ZM52.0397 87.2734V86.5703H53.2819V84.6328H54.1491V88.9062H53.2819V87.2734H52.0397ZM62.3916 84.9766V85.5234C62.3955 86.0742 62.3955 86.6992 62.2197 87.5312H63.1806V88.2344H56.7275V87.5312H61.3408C61.5088 86.7656 61.5244 86.1875 61.5244 85.6719H57.5244V84.9766H62.3916ZM57.5009 91.6094V89.0547H62.3838V91.6094H57.5009ZM58.3525 90.9062H61.5244V89.7344H58.3525V90.9062ZM65.1456 85.0703C66.0792 85.0664 66.7706 85.7695 66.7706 86.7734C66.7706 87.7812 66.0792 88.4648 65.1456 88.4688C64.2042 88.4648 63.5245 87.7812 63.5284 86.7734C63.5245 85.7695 64.2042 85.0664 65.1456 85.0703ZM64.3097 86.7734C64.3019 87.3594 64.6534 87.7422 65.1456 87.7344C65.63 87.7422 65.9816 87.3594 65.9816 86.7734C65.9816 86.1836 65.63 85.8086 65.1456 85.8125C64.6534 85.8086 64.3019 86.1836 64.3097 86.7734ZM64.6847 89.8828V89.1875H69.5206V91.6953H68.6534V89.8828H64.6847ZM67.1925 88.8047V84.7734H67.9972V86.3906H68.6925V84.6406H69.5206V88.8516H68.6925V87.0859H67.9972V88.8047H67.1925Z" fill="#A4ADBA"/>
<path d="M134.409 91V90.2656L136.409 88.3359C136.979 87.7656 137.276 87.4297 137.276 86.9531C137.276 86.4258 136.858 86.0938 136.307 86.0938C135.725 86.0938 135.35 86.457 135.354 87.0312H134.385C134.381 85.9609 135.186 85.2656 136.315 85.2656C137.471 85.2656 138.249 85.957 138.252 86.9062C138.249 87.543 137.944 88.0586 136.831 89.1094L135.823 90.1094V90.1484H138.338V91H134.409ZM140.21 90.4453L139.553 92.6328H138.811L139.217 90.4453H140.21ZM141.159 91L143.612 86.2344V86.1953H140.768V85.3438H144.667V86.2109L142.214 91H141.159ZM147.288 91.0781C145.925 91.0781 145.112 90.0234 145.116 88.1719C145.112 86.3281 145.933 85.2656 147.288 85.2656C148.644 85.2656 149.46 86.3281 149.46 88.1719C149.46 90.0273 148.647 91.0781 147.288 91.0781ZM146.14 88.1719C146.14 89.5312 146.577 90.2227 147.288 90.2266C147.995 90.2227 148.437 89.5312 148.437 88.1719C148.433 86.8242 147.995 86.1133 147.288 86.1094C146.581 86.1133 146.144 86.8242 146.14 88.1719ZM152.237 91.0781C150.874 91.0781 150.062 90.0234 150.066 88.1719C150.062 86.3281 150.882 85.2656 152.237 85.2656C153.593 85.2656 154.409 86.3281 154.409 88.1719C154.409 90.0273 153.597 91.0781 152.237 91.0781ZM151.089 88.1719C151.089 89.5312 151.527 90.2227 152.237 90.2266C152.945 90.2227 153.386 89.5312 153.386 88.1719C153.382 86.8242 152.945 86.1133 152.237 86.1094C151.53 86.1133 151.093 86.8242 151.089 88.1719ZM156.015 90.4453L155.359 92.6328H154.617L155.023 90.4453H156.015ZM158.792 91.0781C157.429 91.0781 156.617 90.0234 156.621 88.1719C156.617 86.3281 157.437 85.2656 158.792 85.2656C160.148 85.2656 160.964 86.3281 160.964 88.1719C160.964 90.0273 160.152 91.0781 158.792 91.0781ZM157.644 88.1719C157.644 89.5312 158.082 90.2227 158.792 90.2266C159.5 90.2227 159.941 89.5312 159.941 88.1719C159.937 86.8242 159.5 86.1133 158.792 86.1094C158.085 86.1133 157.648 86.8242 157.644 88.1719ZM163.742 91.0781C162.379 91.0781 161.566 90.0234 161.57 88.1719C161.566 86.3281 162.386 85.2656 163.742 85.2656C165.097 85.2656 165.914 86.3281 165.914 88.1719C165.914 90.0273 165.101 91.0781 163.742 91.0781ZM162.593 88.1719C162.593 89.5312 163.031 90.2227 163.742 90.2266C164.449 90.2227 164.89 89.5312 164.89 88.1719C164.886 86.8242 164.449 86.1133 163.742 86.1094C163.035 86.1133 162.597 86.8242 162.593 88.1719ZM168.691 91.0781C167.328 91.0781 166.515 90.0234 166.519 88.1719C166.515 86.3281 167.336 85.2656 168.691 85.2656C170.047 85.2656 170.863 86.3281 170.863 88.1719C170.863 90.0273 170.051 91.0781 168.691 91.0781ZM167.543 88.1719C167.543 89.5312 167.98 90.2227 168.691 90.2266C169.398 90.2227 169.84 89.5312 169.84 88.1719C169.836 86.8242 169.398 86.1133 168.691 86.1094C167.984 86.1133 167.547 86.8242 167.543 88.1719ZM177.242 84.6406V89.9844H176.367V89.3672H174.984V88.7578H176.367V84.6406H177.242ZM171.289 87.8125C172.59 87.8047 174.344 87.793 175.844 87.6016L175.891 88.2266C175.309 88.3242 174.707 88.3867 174.109 88.4297V89.7891H173.242V88.4766C172.582 88.5039 171.953 88.5078 171.398 88.5078L171.289 87.8125ZM171.828 86.1484C171.828 85.4023 172.547 84.8945 173.594 84.8984C174.621 84.8945 175.344 85.4023 175.352 86.1484C175.344 86.9062 174.621 87.3867 173.594 87.3906C172.547 87.3867 171.828 86.9062 171.828 86.1484ZM172.227 91.5547V89.4688H173.094V90.8516H177.406V91.5547H172.227ZM172.648 86.1484C172.648 86.5312 173.027 86.7539 173.594 86.7578C174.133 86.7539 174.52 86.5312 174.523 86.1484C174.52 85.7656 174.133 85.5352 173.594 85.5391C173.027 85.5352 172.648 85.7656 172.648 86.1484Z" fill="#FF39A4"/>
<rect x="20" y="105" width="164" height="138.5" rx="6" fill="#E1E9FE"/>
<path d="M37 117.5C37 120.261 34.7614 122.5 32 122.5C29.2386 122.5 27 120.261 27 117.5C27 114.739 29.2386 112.5 32 112.5C34.7614 112.5 37 114.739 37 117.5Z" fill="#586CE1"/>
<path fill-rule="evenodd" clip-rule="evenodd" d="M34.6036 115.646C34.7988 115.842 34.7988 116.158 34.6036 116.354L31.4369 119.52C31.2416 119.715 30.925 119.715 30.7298 119.52L29.1464 117.937C28.9512 117.742 28.9512 117.425 29.1464 117.23C29.3417 117.035 29.6583 117.035 29.8536 117.23L31.0833 118.46L33.8964 115.646C34.0917 115.451 34.4083 115.451 34.6036 115.646Z" fill="white"/>
<path d="M42.5547 113.984C43.6094 113.98 44.3711 114.57 44.375 115.438C44.3711 116.297 43.6094 116.891 42.5547 116.883C41.5039 116.891 40.7461 116.297 40.75 115.438C40.7461 114.57 41.5039 113.98 42.5547 113.984ZM40.25 117.43C41.543 117.43 43.3281 117.402 44.8594 117.172L44.9141 117.727C44.2734 117.848 43.6133 117.922 42.9688 117.965V120.445H42.2266V118.008C41.5469 118.039 40.9062 118.043 40.3516 118.047L40.25 117.43ZM41.4688 115.438C41.4609 115.945 41.918 116.281 42.5547 116.273C43.207 116.281 43.6641 115.945 43.6641 115.438C43.6641 114.926 43.207 114.582 42.5547 114.586C41.918 114.582 41.4609 114.926 41.4688 115.438ZM45.3438 120.664V113.672H46.0781V120.664H45.3438ZM49.4494 115.727C49.4455 116.832 50.1759 118.066 51.2384 118.57L50.8166 119.148C50.0314 118.773 49.4064 117.984 49.09 117.07C48.7697 118.066 48.1134 118.93 47.3166 119.328L46.8791 118.742C47.9416 118.23 48.7111 116.91 48.715 115.727V114.984H47.1369V114.367H50.9728V114.984H49.4494V115.727ZM51.7228 120.664V113.664H52.465V116.438H53.59V117.062H52.465V120.664H51.7228ZM60.1722 119.203V119.828H53.7659V119.203H55.5159V117.969H54.5472V115.742H58.6566V114.766H54.5316V114.156H59.3909V116.344H55.2816V117.359H59.555V117.969H58.4925V119.203H60.1722ZM56.2347 119.203H57.7659V117.969H56.2347V119.203Z" fill="#1B1C23"/>
<path d="M142.508 120.078C141.336 120.078 140.504 119.449 140.469 118.523H141.344C141.375 119.02 141.867 119.336 142.5 119.336C143.184 119.336 143.68 118.965 143.68 118.414C143.68 117.855 143.215 117.457 142.406 117.453H141.922V116.75H142.406C143.051 116.754 143.5 116.395 143.5 115.852C143.5 115.336 143.113 114.984 142.516 114.984C141.949 114.984 141.441 115.301 141.422 115.812H140.594C140.617 114.891 141.469 114.266 142.523 114.266C143.637 114.266 144.336 114.969 144.328 115.805C144.336 116.449 143.938 116.91 143.328 117.062V117.102C144.102 117.211 144.551 117.73 144.547 118.445C144.551 119.387 143.68 120.078 142.508 120.078ZM147.301 120.078C145.992 120.078 145.223 119.023 145.223 117.172C145.223 115.332 146 114.266 147.301 114.266C148.598 114.266 149.375 115.332 149.379 117.172C149.375 119.023 148.61 120.078 147.301 120.078ZM146.082 117.172C146.078 118.582 146.535 119.336 147.301 119.336C148.063 119.336 148.52 118.582 148.52 117.172C148.52 115.766 148.059 114.996 147.301 114.992C146.539 114.996 146.082 115.766 146.082 117.172ZM152.078 120.078C150.77 120.078 150 119.023 150 117.172C150 115.332 150.778 114.266 152.078 114.266C153.375 114.266 154.153 115.332 154.157 117.172C154.153 119.023 153.387 120.078 152.078 120.078ZM150.86 117.172C150.856 118.582 151.313 119.336 152.078 119.336C152.84 119.336 153.297 118.582 153.297 117.172C153.297 115.766 152.836 114.996 152.078 114.992C151.317 114.996 150.86 115.766 150.86 117.172ZM155.692 119.461L155.067 121.617H154.403L154.817 119.461H155.692ZM158.415 120.078C157.106 120.078 156.337 119.023 156.337 117.172C156.337 115.332 157.114 114.266 158.415 114.266C159.712 114.266 160.489 115.332 160.493 117.172C160.489 119.023 159.723 120.078 158.415 120.078ZM157.196 117.172C157.192 118.582 157.649 119.336 158.415 119.336C159.176 119.336 159.633 118.582 159.633 117.172C159.633 115.766 159.172 114.996 158.415 114.992C157.653 114.996 157.196 115.766 157.196 117.172ZM163.192 120.078C161.884 120.078 161.114 119.023 161.114 117.172C161.114 115.332 161.891 114.266 163.192 114.266C164.489 114.266 165.266 115.332 165.27 117.172C165.266 119.023 164.501 120.078 163.192 120.078ZM161.973 117.172C161.97 118.582 162.427 119.336 163.192 119.336C163.954 119.336 164.411 118.582 164.411 117.172C164.411 115.766 163.95 114.996 163.192 114.992C162.43 114.996 161.973 115.766 161.973 117.172ZM167.97 120.078C166.661 120.078 165.892 119.023 165.892 117.172C165.892 115.332 166.669 114.266 167.97 114.266C169.267 114.266 170.044 115.332 170.048 117.172C170.044 119.023 169.278 120.078 167.97 120.078ZM166.751 117.172C166.747 118.582 167.204 119.336 167.97 119.336C168.731 119.336 169.188 118.582 169.188 117.172C169.188 115.766 168.728 114.996 167.97 114.992C167.208 114.996 166.751 115.766 166.751 117.172ZM176.357 113.672V118.977H175.614V118.305H174.208V117.781H175.614V113.672H176.357ZM170.505 116.867C171.798 116.855 173.544 116.844 175.036 116.656L175.083 117.188C174.485 117.289 173.857 117.352 173.239 117.395V118.758H172.497V117.434C171.817 117.461 171.165 117.461 170.599 117.461L170.505 116.867ZM171.052 115.172C171.048 114.43 171.755 113.938 172.794 113.938C173.817 113.938 174.528 114.43 174.528 115.172C174.528 115.918 173.817 116.391 172.794 116.391C171.759 116.391 171.048 115.918 171.052 115.172ZM171.474 120.516V118.461H172.208V119.914H176.528V120.516H171.474ZM171.755 115.172C171.751 115.586 172.173 115.844 172.794 115.844C173.392 115.844 173.821 115.586 173.825 115.172C173.821 114.754 173.392 114.484 172.794 114.492C172.173 114.484 171.751 114.754 171.755 115.172Z" fill="#1B1C23"/>
<path d="M42.9389 132.234C43.9936 132.23 44.7553 132.82 44.7592 133.688C44.7553 134.547 43.9936 135.141 42.9389 135.133C41.8881 135.141 41.1303 134.547 41.1342 133.688C41.1303 132.82 41.8881 132.23 42.9389 132.234ZM40.6342 135.68C41.9272 135.68 43.7123 135.652 45.2436 135.422L45.2983 135.977C44.6577 136.098 43.9975 136.172 43.353 136.215V138.695H42.6108V136.258C41.9311 136.289 41.2905 136.293 40.7358 136.297L40.6342 135.68ZM41.853 133.688C41.8452 134.195 42.3022 134.531 42.9389 134.523C43.5912 134.531 44.0483 134.195 44.0483 133.688C44.0483 133.176 43.5912 132.832 42.9389 132.836C42.3022 132.832 41.8452 133.176 41.853 133.688ZM45.728 138.914V131.922H46.4623V138.914H45.728ZM49.8336 133.977C49.8297 135.082 50.5602 136.316 51.6227 136.82L51.2008 137.398C50.4156 137.023 49.7906 136.234 49.4742 135.32C49.1539 136.316 48.4977 137.18 47.7008 137.578L47.2633 136.992C48.3258 136.48 49.0953 135.16 49.0992 133.977V133.234H47.5211V132.617H51.357V133.234H49.8336V133.977ZM52.107 138.914V131.914H52.8492V134.688H53.9742V135.312H52.8492V138.914H52.107ZM60.5564 137.453V138.078H54.1502V137.453H55.9002V136.219H54.9314V133.992H59.0408V133.016H54.9158V132.406H59.7752V134.594H55.6658V135.609H59.9392V136.219H58.8767V137.453H60.5564ZM56.6189 137.453H58.1502V136.219H56.6189V137.453ZM69.1036 137.43V138.047H62.6973V137.43H65.5177V135.992H63.4317V132.391H64.1739V133.594H67.6114V132.391H68.3458V135.992H66.252V137.43H69.1036ZM64.1739 135.391H67.6114V134.195H64.1739V135.391ZM75.2873 131.914V136.078H74.5452V134.305H73.2405V133.695H74.5452V131.914H75.2873ZM69.4514 135.445C70.5373 135.066 71.2053 134.121 71.2014 133.156V133H69.6858V132.398H73.4592V133H71.9592V133.148C71.9553 134.035 72.5881 134.898 73.6467 135.258L73.2639 135.844C72.4788 135.574 71.9006 135.012 71.5959 134.32C71.2913 135.102 70.678 135.73 69.842 136.039L69.4514 135.445ZM70.5764 137.594C70.5725 136.762 71.4709 136.277 72.9436 136.273C74.4084 136.277 75.3069 136.762 75.3108 137.594C75.3069 138.426 74.4084 138.91 72.9436 138.914C71.4709 138.91 70.5725 138.426 70.5764 137.594ZM71.3108 137.594C71.3069 138.066 71.9163 138.336 72.9436 138.328C73.9631 138.336 74.5725 138.066 74.5764 137.594C74.5725 137.117 73.9631 136.848 72.9436 136.852C71.9163 136.848 71.3069 137.117 71.3108 137.594ZM82.6117 137.422V138.039H76.2055V137.422H77.7367V135.594C77.1625 135.277 76.8109 134.777 76.8148 134.148C76.8109 133.047 77.893 132.324 79.393 132.32C80.8969 132.324 81.9789 133.047 81.9789 134.148C81.9789 134.766 81.643 135.262 81.0805 135.578V137.422H82.6117ZM77.5336 134.148C77.5336 134.898 78.2953 135.387 79.393 135.391C80.4828 135.387 81.2562 134.898 81.2602 134.148C81.2562 133.395 80.4828 132.914 79.393 132.914C78.2953 132.914 77.5336 133.395 77.5336 134.148ZM78.4711 137.422H80.3305V135.867C80.0453 135.934 79.7289 135.969 79.393 135.969C79.0648 135.969 78.7523 135.934 78.4711 135.867V137.422ZM85.4127 133.406C85.4127 134.23 86.0884 135 87.1548 135.297L86.8033 135.875C85.9908 135.645 85.3814 135.145 85.0611 134.496C84.7564 135.219 84.147 135.793 83.3111 136.055L82.9595 135.484C84.022 135.145 84.6783 134.309 84.6783 133.406V133.32H83.1548V132.727H84.6783V131.883H85.4205V132.727H86.9361V133.32H85.4127V133.406ZM84.0845 137.602C84.0806 136.781 84.983 136.316 86.4517 136.312C87.9166 136.316 88.815 136.781 88.8189 137.602C88.815 138.426 87.9166 138.902 86.4517 138.898C84.983 138.902 84.0806 138.426 84.0845 137.602ZM84.8189 137.602C84.815 138.055 85.4244 138.324 86.4517 138.328C87.4791 138.324 88.0806 138.055 88.0845 137.602C88.0806 137.148 87.4791 136.891 86.4517 136.891C85.4244 136.891 84.815 137.148 84.8189 137.602ZM86.7173 134.484V133.875H88.0533V131.914H88.7955V136.156H88.0533V134.484H86.7173Z" fill="#AD0852"/>
<path d="M137.296 138V137.375L139.257 135.398C139.878 134.754 140.187 134.395 140.187 133.898C140.187 133.34 139.733 132.984 139.14 132.984C138.511 132.984 138.112 133.383 138.108 133.984H137.296C137.288 132.949 138.077 132.266 139.155 132.266C140.245 132.266 140.999 132.957 141.007 133.875C140.999 134.508 140.702 135.012 139.64 136.055L138.491 137.219V137.266H141.101V138H137.296ZM143.862 138.078C142.554 138.078 141.784 137.023 141.784 135.172C141.784 133.332 142.562 132.266 143.862 132.266C145.159 132.266 145.937 133.332 145.941 135.172C145.937 137.023 145.171 138.078 143.862 138.078ZM142.644 135.172C142.64 136.582 143.097 137.336 143.862 137.336C144.624 137.336 145.081 136.582 145.081 135.172C145.081 133.766 144.62 132.996 143.862 132.992C143.101 132.996 142.644 133.766 142.644 135.172ZM148.64 138.078C147.331 138.078 146.562 137.023 146.562 135.172C146.562 133.332 147.339 132.266 148.64 132.266C149.937 132.266 150.714 133.332 150.718 135.172C150.714 137.023 149.949 138.078 148.64 138.078ZM147.421 135.172C147.417 136.582 147.874 137.336 148.64 137.336C149.402 137.336 149.859 136.582 149.859 135.172C149.859 133.766 149.398 132.996 148.64 132.992C147.878 132.996 147.421 133.766 147.421 135.172ZM152.253 137.461L151.628 139.617H150.964L151.378 137.461H152.253ZM154.976 138.078C153.668 138.078 152.898 137.023 152.898 135.172C152.898 133.332 153.675 132.266 154.976 132.266C156.273 132.266 157.05 133.332 157.054 135.172C157.05 137.023 156.285 138.078 154.976 138.078ZM153.757 135.172C153.754 136.582 154.211 137.336 154.976 137.336C155.738 137.336 156.195 136.582 156.195 135.172C156.195 133.766 155.734 132.996 154.976 132.992C154.215 132.996 153.757 133.766 153.757 135.172ZM159.754 138.078C158.445 138.078 157.676 137.023 157.676 135.172C157.676 133.332 158.453 132.266 159.754 132.266C161.051 132.266 161.828 133.332 161.832 135.172C161.828 137.023 161.062 138.078 159.754 138.078ZM158.535 135.172C158.531 136.582 158.988 137.336 159.754 137.336C160.515 137.336 160.972 136.582 160.972 135.172C160.972 133.766 160.512 132.996 159.754 132.992C158.992 132.996 158.535 133.766 158.535 135.172ZM164.531 138.078C163.223 138.078 162.453 137.023 162.453 135.172C162.453 133.332 163.23 132.266 164.531 132.266C165.828 132.266 166.605 133.332 166.609 135.172C166.605 137.023 165.84 138.078 164.531 138.078ZM163.312 135.172C163.309 136.582 163.766 137.336 164.531 137.336C165.293 137.336 165.75 136.582 165.75 135.172C165.75 133.766 165.289 132.996 164.531 132.992C163.77 132.996 163.312 133.766 163.312 135.172Z" fill="#F0117F"/>
<rect x="102" y="142" width="65" height="0.5" rx="0.25" fill="#F0117F"/>
<path d="M177.121 131.922V137.227H176.379V136.555H174.973V136.031H176.379V131.922H177.121ZM171.27 135.117C172.562 135.105 174.309 135.094 175.801 134.906L175.848 135.438C175.25 135.539 174.621 135.602 174.004 135.645V137.008H173.262V135.684C172.582 135.711 171.93 135.711 171.363 135.711L171.27 135.117ZM171.816 133.422C171.812 132.68 172.52 132.188 173.559 132.188C174.582 132.188 175.293 132.68 175.293 133.422C175.293 134.168 174.582 134.641 173.559 134.641C172.523 134.641 171.812 134.168 171.816 133.422ZM172.238 138.766V136.711H172.973V138.164H177.293V138.766H172.238ZM172.52 133.422C172.516 133.836 172.938 134.094 173.559 134.094C174.156 134.094 174.586 133.836 174.59 133.422C174.586 133.004 174.156 132.734 173.559 132.742C172.938 132.734 172.516 133.004 172.52 133.422Z" fill="#1B1C23"/>
<rect x="26" y="147.5" width="152" height="78" rx="7" fill="white"/>
<path d="M34.2217 156.202C35.1616 156.199 35.8418 156.725 35.8418 157.501C35.8418 158.263 35.1616 158.796 34.2217 158.793C33.292 158.796 32.6152 158.263 32.6152 157.501C32.6152 156.725 33.292 156.199 34.2217 156.202ZM32.2119 159.217C33.3262 159.217 34.8882 159.196 36.2178 158.998L36.2725 159.559C35.7393 159.661 35.1855 159.726 34.6455 159.767V161.917H33.8799V159.812C33.3091 159.835 32.7725 159.842 32.3076 159.846L32.2119 159.217ZM33.3535 157.501C33.3501 157.915 33.7158 158.174 34.2217 158.171C34.748 158.174 35.1172 157.915 35.1172 157.501C35.1172 157.074 34.748 156.811 34.2217 156.817C33.7158 156.811 33.3501 157.074 33.3535 157.501ZM36.6211 162.102V155.936H37.373V162.102H36.6211ZM40.3297 157.686C40.3263 158.639 40.9005 159.726 41.8746 160.181L41.4508 160.782C40.7536 160.454 40.2374 159.791 39.9606 159.019C39.6803 159.866 39.1403 160.591 38.4293 160.933L37.985 160.338C38.9694 159.87 39.5675 158.714 39.5709 157.686V157.166H38.2243V156.537H41.6217V157.166H40.3297V157.686ZM42.1959 162.108V155.929H42.9547V158.335H43.9049V158.971H42.9547V162.108H42.1959ZM49.6712 160.762V161.391H44.0247V160.762H45.5218V159.743H44.6946V157.727H48.2493V156.968H44.6809V156.353H49.0013V158.335H45.4534V159.128H49.1448V159.743H48.2425V160.762H49.6712ZM46.26 160.762H47.4973V159.743H46.26V160.762ZM55.2665 155.929V162.108H54.5351V155.929H55.2665ZM49.996 158.602C49.996 157.241 50.5224 156.397 51.329 156.4C52.0776 156.397 52.5868 157.098 52.6757 158.253H53.2704V156.038H53.995V161.808H53.2704V158.868H52.6825C52.6108 160.075 52.0946 160.813 51.329 160.81C50.5224 160.813 49.996 159.965 49.996 158.602ZM50.7001 158.602C50.6967 159.569 50.936 160.088 51.329 160.085C51.7392 160.088 51.9819 159.569 51.9853 158.602C51.9819 157.638 51.7392 157.115 51.329 157.118C50.936 157.115 50.6967 157.638 50.7001 158.602ZM62.6838 155.929V162.108H61.9592V158.957H61.2619V161.794H60.5646V156.045H61.2619V158.349H61.9592V155.929H62.6838ZM57.5568 160.666V156.66H59.8674V157.275H58.3225V160.023C58.9924 160.017 59.5461 159.982 60.175 159.866L60.2297 160.488C59.4812 160.639 58.8352 160.659 57.9738 160.666H57.5568ZM68.1493 155.936V157.877H69.0106V158.506H68.1493V160.55H67.3905V155.936H68.1493ZM63.2821 157.228V156.619H64.7381V155.929H65.4969V156.619H66.9461V157.228H63.2821ZM63.5965 158.663C63.5965 157.952 64.2152 157.48 65.1141 157.48C66.0062 157.48 66.6214 157.952 66.6248 158.663C66.6214 159.371 66.0062 159.832 65.1141 159.832C64.2152 159.832 63.5965 159.371 63.5965 158.663ZM64.1912 161.985V160.188H64.95V161.37H68.3954V161.985H64.1912ZM64.3348 158.663C64.3314 159.036 64.6458 159.248 65.1141 159.244C65.5824 159.248 65.9002 159.036 65.9002 158.663C65.9002 158.287 65.5824 158.068 65.1141 158.068C64.6458 158.068 64.3314 158.287 64.3348 158.663ZM76.339 159.641V160.263H73.8917V162.115H73.1398V160.263H70.7062V159.641H76.339ZM71.0138 158.663C72.2477 158.513 73.0577 157.88 73.1329 157.262H71.2257V156.66H73.1398V155.936H73.8917V156.66H75.8126V157.262H73.9054C73.9772 157.874 74.7838 158.513 76.0177 158.663L75.7374 159.265C74.7155 159.135 73.9225 158.687 73.5226 158.092C73.1193 158.694 72.316 159.135 71.2872 159.265L71.0138 158.663ZM81.4558 155.929V158.342H82.3718V158.978H81.4558V162.095H80.697V155.929H81.4558ZM76.5818 160.406C78.0857 159.654 78.8992 158.608 79.0496 157.2H76.9168V156.571H79.822C79.8186 158.386 79.0667 159.982 77.0125 160.994L76.5818 160.406ZM86.0498 156.359C87.0308 156.356 87.7452 156.975 87.752 157.85C87.7452 158.728 87.0308 159.343 86.0498 159.347C85.0791 159.343 84.3511 158.728 84.3545 157.85C84.3511 156.975 85.0791 156.356 86.0498 156.359ZM84.0743 160.201C85.1885 160.201 86.73 160.188 88.0664 159.996L88.128 160.55C86.7437 160.813 85.2603 160.823 84.17 160.823L84.0743 160.201ZM85.1065 157.85C85.1031 158.366 85.5098 158.684 86.0498 158.684C86.5967 158.684 87.0035 158.366 87.0069 157.85C87.0035 157.337 86.6001 157.016 86.0498 157.016C85.5098 157.016 85.1031 157.337 85.1065 157.85ZM88.4356 162.115V155.929H89.1944V162.115H88.4356ZM95.1315 155.936V160.502H94.3727V159.155H92.8825V158.533H94.3727V157.768H92.9645C92.527 158.718 91.6179 159.429 90.3669 159.812L90.0456 159.217C91.4059 158.779 92.2844 157.997 92.4245 157.016H90.3669V156.407H93.2585C93.2585 156.667 93.2277 156.917 93.1764 157.152H94.3727V155.936H95.1315ZM91.1052 161.985V160.051H91.8776V161.37H95.2887V161.985H91.1052ZM98.6761 156.024C100.084 156.028 100.901 156.4 100.905 157.084C100.901 157.774 100.084 158.147 98.6761 158.15C97.2713 158.147 96.4476 157.774 96.4476 157.084C96.4476 156.4 97.2713 156.028 98.6761 156.024ZM95.8665 159.087V158.479H101.499V159.087H95.8665ZM96.5296 160.064V159.504H100.795V161.015H97.2816V161.473H100.966V162.054H96.5364V160.475H100.05V160.064H96.5296ZM97.2474 157.084C97.244 157.426 97.7362 157.583 98.6761 157.583C99.6297 157.583 100.118 157.426 100.118 157.084C100.118 156.766 99.6297 156.585 98.6761 156.585C97.7362 156.585 97.244 156.766 97.2474 157.084ZM108.445 155.929V159.244H107.679V155.929H108.445ZM103.407 157.651C103.407 156.793 104.118 156.199 105.075 156.202C106.028 156.199 106.739 156.793 106.736 157.651C106.739 158.496 106.028 159.09 105.075 159.087C104.118 159.09 103.407 158.496 103.407 157.651ZM104.152 157.651C104.149 158.147 104.535 158.461 105.075 158.465C105.605 158.461 105.991 158.147 105.991 157.651C105.991 157.156 105.605 156.834 105.075 156.838C104.535 156.834 104.149 157.156 104.152 157.651ZM104.357 162.033V159.531H105.109V160.167H107.686V159.531H108.445V162.033H104.357ZM105.109 161.418H107.686V160.762H105.109V161.418ZM112.16 156.298V158.157H110.212V158.916C111.207 158.916 111.771 158.889 112.427 158.766L112.502 159.381C111.764 159.507 111.125 159.524 109.911 159.524H109.46V157.59H111.402V156.899H109.447V156.298H112.16ZM110.157 160.639V160.03H114.382V162.108H113.623V160.639H110.157ZM112.53 158.718V158.109H113.623V157.419H112.53V156.811H113.623V155.936H114.382V159.736H113.623V158.718H112.53ZM118.132 156.913V157.521H115.103V156.913H116.252V156.106H117.004V156.913H118.132ZM115.281 159.285C115.274 158.444 115.845 157.846 116.628 157.85C117.414 157.846 117.974 158.444 117.974 159.285C117.974 160.143 117.414 160.741 116.628 160.741C115.845 160.741 115.274 160.143 115.281 159.285ZM115.951 159.285C115.948 159.784 116.228 160.095 116.628 160.092C117.024 160.095 117.305 159.784 117.305 159.285C117.305 158.8 117.024 158.479 116.628 158.479C116.228 158.479 115.948 158.8 115.951 159.285ZM118.391 161.828V156.059H119.102V158.472H119.704V155.929H120.429V162.108H119.704V159.087H119.102V161.828H118.391ZM126.66 159.374V159.989H124.206V162.102H123.454V159.989H121.027V159.374H126.66ZM121.321 158.362C122.534 158.208 123.348 157.556 123.402 156.879H121.546V156.277H126.14V156.879H124.284C124.335 157.556 125.142 158.208 126.366 158.362L126.092 158.957C125.04 158.807 124.219 158.325 123.843 157.658C123.464 158.325 122.65 158.807 121.608 158.957L121.321 158.362ZM128.864 157.549C128.868 158.547 129.21 159.586 130.047 160.112L129.63 160.693C129.073 160.358 128.711 159.784 128.506 159.111C128.283 159.853 127.887 160.481 127.306 160.837L126.834 160.27C127.733 159.726 128.13 158.636 128.133 157.583V156.476H128.864V157.549ZM129.384 158.684V158.055H130.266V156.038H130.984V161.808H130.266V158.684H129.384ZM131.537 162.108V155.929H132.269V162.108H131.537ZM138.493 160.734V161.356H132.846V160.734H134.152V159.172C133.66 158.889 133.363 158.444 133.366 157.897C133.363 156.913 134.326 156.264 135.656 156.264C136.992 156.264 137.963 156.913 137.96 157.897C137.963 158.438 137.673 158.872 137.194 159.155V160.734H138.493ZM134.111 157.897C134.108 158.53 134.733 158.933 135.656 158.93C136.575 158.933 137.215 158.53 137.215 157.897C137.215 157.255 136.575 156.862 135.656 156.865C134.733 156.862 134.108 157.255 134.111 157.897ZM134.904 160.734H136.422V159.446C136.186 159.497 135.929 159.524 135.656 159.524C135.389 159.524 135.137 159.497 134.904 159.449V160.734Z" fill="#A4ADBA"/>
<rect x="123" y="128" width="44" height="12" fill="white"/>
<rect x="123" y="111" width="48" height="12" fill="white"/>
<rect x="131" y="83" width="48" height="12" fill="#F5F7FF"/>
<rect x="131" y="68" width="48" height="12" fill="#F5F7FF"/>
</g>
<rect x="0.482032" y="0.482032" width="203.036" height="199.036" rx="9.1586" stroke="#CCD4DE" stroke-width="0.964064"/>
<defs>
<clipPath id="clip0_803_11594">
<rect width="204" height="200" rx="9.64063" fill="white"/>
</clipPath>
</defs>
</svg>
