<svg width="204" height="200" viewBox="0 0 204 200" fill="none" xmlns="http://www.w3.org/2000/svg">
<rect x="0.482032" y="0.482032" width="203.036" height="199.036" rx="9.1586" fill="white"/>
<rect x="0.482032" y="0.482032" width="203.036" height="199.036" rx="9.1586" stroke="#CCD4DE" stroke-width="0.964064"/>
<path d="M27.5879 52.7832V53.623C27.583 54.7363 27.583 55.9863 27.2266 57.8711L25.9766 57.7441C26.3184 56.0645 26.333 54.8145 26.3379 53.7695H21.1035V52.7832H27.5879ZM20.2637 59.8145V58.7988H23.1641V55.7422H24.4043V58.7988H28.3691V59.8145H20.2637ZM31.548 53.5938C31.548 54.5557 32.0461 55.5029 33.2277 55.957L32.5637 56.9043C31.802 56.6162 31.2795 56.0889 30.9621 55.4346C30.6398 56.2012 30.0832 56.8408 29.2531 57.1875L28.5793 56.2305C29.8342 55.6787 30.3371 54.585 30.3371 53.5938V52.5488H31.548V53.5938ZM30.2297 59.2383C30.2248 58.1982 31.4211 57.5732 33.3059 57.5781C35.1809 57.5732 36.382 58.1982 36.3918 59.2383C36.382 60.2686 35.1809 60.9033 33.3059 60.8984C31.4211 60.9033 30.2248 60.2686 30.2297 59.2383ZM31.4797 59.2383C31.4699 59.7168 32.1389 59.9609 33.3059 59.9609C34.4631 59.9609 35.132 59.7168 35.132 59.2383C35.132 58.7549 34.4631 58.5059 33.3059 58.5059C32.1389 58.5059 31.4699 58.7549 31.4797 59.2383ZM33.257 57.1777V52.1777H34.4191V54.1895H35.1613V52.0215H36.343V57.4512H35.1613V55.1953H34.4191V57.1777H33.257ZM46.3043 52.0117V53.877H47.5055V54.9023H46.3043V56.4453H45.0543V52.0117H46.3043ZM39.5172 56.2695V52.5684H43.7848V56.2695H39.5172ZM40.0543 60.6641V57.1875H41.2652V59.6484C41.7584 59.6143 42.2223 59.541 42.6812 59.3945L42.857 60.3613C42.11 60.6299 41.3922 60.6641 40.5426 60.6641H40.0543ZM40.7477 55.293H42.5543V53.5352H40.7477V55.293ZM42.5543 58.1738V57.2754H44.1949V56.6309H45.4059V57.2754H47.027V58.1738H42.5543ZM43.0719 59.6484C43.0621 58.8721 43.7604 58.3984 44.7809 58.3984C45.8014 58.3984 46.5045 58.8721 46.5094 59.6484C46.5045 60.4102 45.8014 60.8887 44.7809 60.8887C43.7555 60.8887 43.0621 60.4102 43.0719 59.6484ZM44.1754 59.6484C44.1705 59.9219 44.4293 60.0586 44.7809 60.0586C45.1373 60.0586 45.3912 59.9219 45.3961 59.6484C45.3912 59.375 45.1373 59.2432 44.7809 59.2383C44.4293 59.2432 44.1705 59.375 44.1754 59.6484ZM51.7488 52.4609C53.6238 52.4658 55.0936 53.4814 55.0984 55.0195C55.0936 56.5723 53.6238 57.583 51.7488 57.5781C49.8689 57.583 48.409 56.5723 48.409 55.0195C48.409 53.4814 49.8689 52.4658 51.7488 52.4609ZM47.6961 59.8145V58.8086H55.8309V59.8145H47.6961ZM49.6199 55.0195C49.615 55.9863 50.5135 56.5625 51.7488 56.5625C52.9744 56.5625 53.8631 55.9863 53.868 55.0195C53.8631 54.0674 52.9744 53.4668 51.7488 53.4766C50.5135 53.4668 49.615 54.0674 49.6199 55.0195ZM63.6289 52.0117V57.1289H62.3887V55.5664H60.9141V54.5703H62.3887V53.8965H60.9141V52.9004H62.3887V52.0117H63.6289ZM56.0801 56.2012C57.5596 55.6689 58.2041 54.4385 58.209 53.1641V52.334H59.4688V53.1641C59.4639 54.3604 60.0693 55.5811 61.4902 56.084L60.7773 57.0703C59.8496 56.7139 59.21 56.04 58.8389 55.1904C58.4482 56.0889 57.7646 56.8018 56.7734 57.1777L56.0801 56.2012ZM56.6074 59.8633C57.7793 59.4727 58.2725 58.5693 58.2773 57.6855V57.4512H59.4883V57.6855C59.4834 58.4131 59.7812 59.1602 60.5088 59.6631C61.2412 59.126 61.5391 58.3447 61.5488 57.6855V57.4512H62.7695V57.6855C62.7744 58.6133 63.2578 59.4922 64.4688 59.8633L63.834 60.7812C62.9893 60.4883 62.4424 59.9365 62.1348 59.248C61.8418 59.9316 61.3193 60.5371 60.5137 60.8594C59.6934 60.5566 59.1709 59.9707 58.8779 59.2725C58.5654 59.9414 58.0234 60.4834 57.2129 60.7812L56.6074 59.8633ZM66.759 57.3438V58.0957H70.4211V57.3438H71.6613V60.8008H65.5285V57.3438H66.759ZM64.5812 56.8945V55.8887H72.6867V56.8945H64.5812ZM64.9816 54.5215C66.9641 54.2822 67.9895 53.3154 67.9992 52.4023V52.0996H69.2785V52.4023C69.2785 53.291 70.299 54.2969 72.2863 54.5215L71.8469 55.498C70.3186 55.3027 69.2053 54.668 68.634 53.8086C68.0578 54.668 66.9445 55.3027 65.4309 55.498L64.9816 54.5215ZM66.759 59.8242H70.4211V59.043H66.759V59.8242ZM80.4945 52.0117V60.8984H79.2543V52.0117H80.4945ZM73.5023 58.7012V52.8613H74.7328V57.6416C75.934 57.6221 77.223 57.5098 78.5316 57.2559L78.6879 58.2812C77.1303 58.6084 75.6557 58.7061 74.2836 58.7012H73.5023ZM88.4781 52.0117V55.3125H89.7867V56.3281H88.4781V60.918H87.2281V52.0117H88.4781ZM81.818 58.7598V52.832H85.9879V53.8379H83.0582V57.7344C84.3473 57.7246 85.4117 57.6562 86.5934 57.4512L86.7301 58.4961C85.3482 58.7305 84.1373 58.7646 82.5699 58.7598H81.818ZM93.166 60.0879C92.707 60.0879 92.3359 59.7217 92.3457 59.2676C92.3359 58.8184 92.707 58.4521 93.166 58.457C93.6006 58.4521 93.9766 58.8184 93.9766 59.2676C93.9766 59.7217 93.6006 60.0879 93.166 60.0879ZM92.3457 55.5469C92.3359 55.0977 92.707 54.7314 93.166 54.7363C93.6006 54.7314 93.9766 55.0977 93.9766 55.5469C93.9766 56.001 93.6006 56.3672 93.166 56.3672C92.707 56.3672 92.3359 56.001 92.3457 55.5469ZM97.4875 57.3047C97.4826 59.1455 96.9162 60.6738 95.9836 61.9922H94.6066C95.2805 61.0107 95.9836 59.0576 95.9836 57.3047C95.9836 55.5566 95.2805 53.5986 94.6066 52.627H95.9836C96.9162 53.9404 97.4826 55.4688 97.4875 57.3047ZM27.7344 68.0117V76.8984H26.4746V68.0117H27.7344ZM20.2441 73.8418C20.5664 73.8418 20.9082 73.8369 21.2695 73.832V69.8281H20.4883V68.832H25.5176V69.8281H24.7266V73.6904C25.1172 73.6611 25.5029 73.6221 25.8789 73.5781L25.9375 74.5059C24.0479 74.8135 21.9922 74.8477 20.3613 74.8574L20.2441 73.8418ZM22.4805 73.8076C22.8223 73.7979 23.1689 73.7881 23.5156 73.7686V69.8281H22.4805V73.8076ZM32.9934 69.3691V70.3555H28.6965V69.3691H30.2395V68.2559H31.4699V69.3691H32.9934ZM28.9016 72.8652C28.9016 71.6299 29.7316 70.7607 30.8645 70.7559C32.0021 70.7607 32.8127 71.6299 32.8176 72.8652C32.8127 74.1055 32.0021 74.9844 30.8645 74.9844C29.7316 74.9844 28.9016 74.1055 28.9016 72.8652ZM29.9953 72.8652C29.9953 73.5439 30.3469 73.9297 30.8645 73.9297C31.3625 73.9297 31.7189 73.5439 31.7238 72.8652C31.7189 72.1963 31.3625 71.791 30.8645 71.791C30.3469 71.791 29.9953 72.1963 29.9953 72.8652ZM33.3254 76.5176V68.1875H34.4875V71.625H35.2102V68.0117H36.3918V76.8984H35.2102V72.6211H34.4875V76.5176H33.3254ZM40.4301 70.4336C40.4252 71.7861 41.1479 73.3486 42.6078 74.0273L41.9145 75.0039C40.9232 74.5498 40.2201 73.6416 39.8197 72.5771C39.4242 73.749 38.6918 74.7451 37.6664 75.2285L36.9438 74.2422C38.4232 73.5537 39.1703 71.9033 39.1801 70.4336V69.8867H37.2953V68.8711H42.2172V69.8867H40.4301V70.4336ZM42.9105 76.8984V68.0117H44.1605V71.4004H45.4691V72.4453H44.1605V76.8984H42.9105ZM48.2379 68.5391C49.61 68.5439 50.6695 69.4424 50.6793 70.7168C50.6695 71.791 49.9225 72.5967 48.8727 72.8262V74.042C49.5709 74.0078 50.274 73.9492 50.9332 73.8613L51.0211 74.7793C49.1607 75.1357 47.1588 75.1309 45.65 75.1113L45.484 74.1055C46.1285 74.1055 46.8609 74.1055 47.6324 74.0859V72.8359C46.5484 72.6162 45.7965 71.8057 45.7965 70.7168C45.7965 69.4424 46.8365 68.5439 48.2379 68.5391ZM47.0172 70.7168C47.0123 71.415 47.5348 71.8398 48.2379 71.8398C48.9264 71.8398 49.4488 71.415 49.4488 70.7168C49.4488 70.0088 48.9264 69.5986 48.2379 69.5938C47.5348 69.5986 47.0123 70.0088 47.0172 70.7168ZM51.402 76.8984V68.0117H52.652V71.498H53.8629V72.543H52.652V76.8984H51.402ZM63.6289 68.0215V74.5156H62.3887V72.4062H60.3574C59.9277 72.8604 59.3125 73.1387 58.6191 73.1387C57.2715 73.1387 56.2461 72.1621 56.2559 70.8438C56.2461 69.5059 57.2715 68.5342 58.6191 68.5293C59.3076 68.5342 59.9229 68.8076 60.3525 69.2617H62.3887V68.0215H63.6289ZM57.4375 70.8438C57.4326 71.5859 57.9258 72.0352 58.6191 72.0352C59.2734 72.0352 59.7764 71.5859 59.7812 70.8438C59.7764 70.0918 59.2734 69.6426 58.6191 69.6426C57.9258 69.6426 57.4326 70.0918 57.4375 70.8438ZM57.7305 76.7422V73.8613H58.9805V75.7461H63.8438V76.7422H57.7305ZM60.8896 70.2578C60.9385 70.4434 60.9629 70.6387 60.9629 70.8438C60.9629 71.0391 60.9385 71.2295 60.8945 71.4102H62.3887V70.2578H60.8896ZM68.9758 68.5098V71.2344H66.1437V72.084C67.6086 72.0742 68.6047 72.0254 69.7375 71.8203L69.8742 72.8164C68.5998 73.0459 67.4572 73.1045 65.6555 73.0996H64.9035V70.2871H67.7648V69.5059H64.8937V68.5098H68.9758ZM65.6457 74.8184V73.8223H71.632V76.8887H70.382V74.8184H65.6457ZM70.382 73.4121V68.0215H71.632V70.1406H72.8332V71.166H71.632V73.4121H70.382ZM80.0355 68.0117V71.4883H81.3441V72.5137H80.0355V76.8984H78.8051V68.0117H80.0355ZM72.975 70.3359V69.3398H74.9867V68.1484H76.2367V69.3398H78.1996V70.3359H72.975ZM73.3363 72.9531C73.3314 71.7129 74.2982 70.8291 75.6117 70.834C76.9057 70.8291 77.8773 71.7129 77.8773 72.9531C77.8773 74.1934 76.9057 75.0674 75.6117 75.0723C74.2982 75.0674 73.3314 74.1934 73.3363 72.9531ZM74.5277 72.9531C74.5277 73.6416 74.9818 74.0518 75.6117 74.0469C76.2318 74.0518 76.6859 73.6416 76.6859 72.9531C76.6859 72.2695 76.2318 71.8496 75.6117 71.8398C74.9818 71.8496 74.5277 72.2695 74.5277 72.9531ZM83.9176 68.6367C84.7184 68.6367 85.3824 69.0713 85.7877 69.8379H87.7359V68.0117H88.9664V76.918H87.7359V73.5879H85.8805C85.485 74.4668 84.777 74.9746 83.9176 74.9746C82.5699 74.9746 81.6031 73.7539 81.6129 71.8008C81.6031 69.8623 82.5699 68.6367 83.9176 68.6367ZM82.8043 71.8008C82.7994 73.124 83.2535 73.8467 83.9176 73.8418C84.5865 73.8467 85.0309 73.124 85.0309 71.8008C85.0309 70.4824 84.5865 69.7598 83.9176 69.7598C83.2535 69.7598 82.7994 70.4824 82.8043 71.8008ZM86.1344 70.8438C86.193 71.1367 86.2223 71.459 86.2223 71.8008C86.2223 72.0791 86.2027 72.3428 86.1637 72.5918H87.7359V70.8438H86.1344ZM96.6719 71.1953V72.2598H100.119V73.2656H92.0137V72.2598H95.4414V71.1953H96.6719ZM92.3652 70.7266C94.0205 70.5703 94.9287 69.9844 95.1533 69.3691H92.7559V68.3926H99.3867V69.3691H96.9697C97.1895 69.9795 98.0977 70.5703 99.7676 70.7266L99.3281 71.7031C97.6533 71.5371 96.5303 70.917 96.0566 70.0576C95.5879 70.9121 94.4746 71.5371 92.8047 71.7031L92.3652 70.7266ZM92.9414 75.3262C92.9414 74.3154 94.1084 73.7539 96.0566 73.7539C97.9902 73.7539 99.1426 74.3154 99.1523 75.3262C99.1426 76.3369 97.9902 76.9033 96.0566 76.8984C94.1084 76.9033 92.9414 76.3369 92.9414 75.3262ZM94.2109 75.3262C94.2061 75.7607 94.8115 75.9707 96.0566 75.9707C97.2725 75.9707 97.8975 75.7607 97.9023 75.3262C97.8975 74.9014 97.2725 74.7012 96.0566 74.7012C94.8115 74.7012 94.2061 74.9014 94.2109 75.3262ZM107.946 68.0117V72.4844H106.706V71.8008H104.675V70.8535H106.706V70.0723H104.773C104.221 71.4053 102.951 72.2598 100.984 72.6895L100.564 71.6738C102.6 71.2734 103.537 70.4287 103.703 69.3594H101.062V68.3535H105.085C105.085 68.6221 105.066 68.8809 105.027 69.125H106.706V68.0117H107.946ZM102.038 73.7832V72.8066H107.946V75.2383H103.298V75.8242H108.142V76.8105H102.048V74.3203H106.696V73.7832H102.038ZM118.513 68.0117V76.918H117.263V72.4258H115.662V71.4297H117.263V68.0117H118.513ZM110.964 74.2812C112.395 73.6416 113.088 72.1279 113.093 70.7949V70.4531H111.248V69.457H113.093V68.207H114.343V69.457H116.14V70.4531H114.334V70.7949C114.329 72.0791 115.042 73.5146 116.492 74.1445L115.828 75.1016C114.817 74.6816 114.109 73.832 113.718 72.8213C113.338 73.8955 112.634 74.7988 111.619 75.2383L110.964 74.2812ZM126.897 68.0117V76.918H125.657V68.0117H126.897ZM119.915 69.7598V68.7539H124.143V72.1816H121.214V73.8125C122.571 73.8027 123.719 73.7344 125.022 73.5195L125.13 74.5254C123.67 74.7842 122.346 74.8379 120.725 74.8379H119.925V71.1953H122.874V69.7598H119.915ZM132.176 69.3691V70.3555H127.879V69.3691H129.422V68.2559H130.652V69.3691H132.176ZM128.084 72.8652C128.084 71.6299 128.914 70.7607 130.047 70.7559C131.185 70.7607 131.995 71.6299 132 72.8652C131.995 74.1055 131.185 74.9844 130.047 74.9844C128.914 74.9844 128.084 74.1055 128.084 72.8652ZM129.178 72.8652C129.178 73.5439 129.529 73.9297 130.047 73.9297C130.545 73.9297 130.901 73.5439 130.906 72.8652C130.901 72.1963 130.545 71.791 130.047 71.791C129.529 71.791 129.178 72.1963 129.178 72.8652ZM132.508 76.5176V68.1875H133.67V71.625H134.393V68.0117H135.574V76.8984H134.393V72.6211H133.67V76.5176H132.508ZM144.437 72.9141V73.9102H140.98V76.8984H139.749V73.9102H136.331V72.9141H144.437ZM136.732 71.4199C138.529 71.2002 139.525 70.3311 139.656 69.457H137.064V68.4805H143.714V69.457H141.121C141.248 70.3311 142.23 71.2002 144.056 71.4199L143.607 72.3965C142.044 72.1865 140.926 71.5225 140.389 70.6094C139.847 71.5225 138.738 72.1865 137.191 72.3965L136.732 71.4199ZM147.625 70.248C147.621 71.6885 148.021 73.1729 149.237 73.9492L148.563 74.916C147.791 74.4521 147.308 73.6807 147.025 72.7725C146.707 73.7783 146.175 74.623 145.37 75.1113L144.608 74.1934C145.926 73.3779 146.414 71.8105 146.414 70.3066V68.7734H147.625V70.248ZM148.299 72.0254V71.0098H149.452V68.1387H150.614V76.4883H149.452V72.0254H148.299ZM151.287 76.8984V68.0117H152.479V76.8984H151.287ZM161.351 74.8379V75.8633H153.216V74.8379H155.033V72.6602C154.344 72.2451 153.929 71.6152 153.929 70.834C153.929 69.3936 155.336 68.4463 157.269 68.4414C159.193 68.4463 160.614 69.3936 160.619 70.834C160.614 71.6006 160.213 72.2207 159.545 72.6357V74.8379H161.351ZM155.16 70.834C155.16 71.7031 155.995 72.2402 157.269 72.2402C158.524 72.2402 159.383 71.7031 159.388 70.834C159.383 69.9404 158.524 69.4229 157.269 69.4277C155.995 69.4229 155.16 69.9404 155.16 70.834ZM156.263 74.8379H158.285V73.1094C157.967 73.1729 157.626 73.207 157.269 73.207C156.913 73.207 156.576 73.1729 156.263 73.1143V74.8379Z" fill="#1B1C23"/>
<path d="M21.7051 87.1426H21.2598L21.2949 86.2695L20.5566 86.7383L20.334 86.3516L21.1133 85.9531L20.334 85.5488L20.5566 85.1621L21.2949 85.6309L21.2598 84.7578H21.7051L21.6641 85.6309L22.4023 85.1621L22.6309 85.5488L21.8516 85.9531L22.6309 86.3516L22.4023 86.7383L21.6641 86.2695L21.7051 87.1426ZM24.8605 85.584C24.8546 86.5127 25.3966 87.4648 26.1788 87.8457L25.8331 88.291C25.2618 87.9922 24.8195 87.4062 24.588 86.7061C24.3536 87.4502 23.8937 88.0801 23.296 88.3906L22.9503 87.9395C23.756 87.5527 24.3009 86.5449 24.3038 85.584V84.6875H24.8605V85.584ZM26.5714 89.498V84.248H27.128V86.3398H27.9718V86.8145H27.128V89.498H26.5714ZM32.3518 84.752V85.2676C32.3489 85.915 32.3489 86.6416 32.1526 87.7168L31.5901 87.6582C31.7922 86.6416 31.7922 85.8975 31.7952 85.2676V85.2031H28.6077V84.752H32.3518ZM28.1038 88.7891V88.3262H29.926V86.4746H30.4768V88.3262H32.8909V88.7891H28.1038ZM37.5228 84.2539V87.4707H36.9662V84.2539H37.5228ZM33.433 85.0332V84.5762H35.847V86.0645H33.9896V86.7207C34.9095 86.7148 35.5804 86.6855 36.3802 86.5625L36.4505 87.0137C35.5921 87.1543 34.8773 87.1777 33.8841 87.1777H33.4447V85.6367H35.2963V85.0332H33.433ZM33.9838 88.5312C33.9838 87.9189 34.6576 87.5674 35.7709 87.5703C36.8812 87.5674 37.558 87.9189 37.558 88.5312C37.558 89.1377 36.8812 89.4893 35.7709 89.4863C34.6576 89.4893 33.9838 89.1377 33.9838 88.5312ZM34.5345 88.5312C34.5375 88.8623 34.9916 89.0498 35.7709 89.0469C36.5472 89.0498 37.0013 88.8623 37.0013 88.5312C37.0013 88.1973 36.5472 88.0068 35.7709 88.0098C34.9916 88.0068 34.5375 88.1973 34.5345 88.5312ZM42.4595 84.7578V85.3965C42.4595 86.1641 42.4595 86.8848 42.2309 87.9746L41.6802 87.9219C41.7915 87.4385 41.8501 87.0195 41.8794 86.6299L38.727 86.7969L38.6567 86.3398L41.9057 86.2168C41.9175 85.9355 41.9175 85.666 41.9204 85.3965V85.2148H38.8032V84.7578H42.4595ZM38.2348 88.7949V88.3379H43.022V88.7949H38.2348ZM47.818 84.248V89.498H47.2848V84.248H47.818ZM43.359 86.5156C43.359 85.3789 43.8043 84.667 44.4898 84.6699C45.1285 84.667 45.5592 85.2734 45.6236 86.2578H46.2184V84.3477H46.7516V89.2402H46.2184V86.709H45.6266C45.5768 87.7344 45.1402 88.3701 44.4898 88.3672C43.8043 88.3701 43.359 87.6553 43.359 86.5156ZM43.8746 86.5156C43.8746 87.3506 44.1119 87.8428 44.4898 87.8398C44.8766 87.8428 45.1168 87.3506 45.1168 86.5156C45.1168 85.6777 44.8766 85.1885 44.4898 85.1914C44.1119 85.1885 43.8746 85.6777 43.8746 86.5156ZM50.2585 85.584C50.2585 86.5449 50.7976 87.5029 51.6003 87.8633L51.2605 88.3086C50.6657 88.0098 50.2146 87.418 49.9831 86.7002C49.7517 87.4561 49.2946 88.0947 48.6882 88.4082L48.3366 87.957C49.1511 87.5674 49.6931 86.5566 49.696 85.584V84.6875H50.2585V85.584ZM51.0202 86.4453V85.9941H52.1921V84.248H52.7429V89.5098H52.1921V86.4453H51.0202ZM59.1416 84.248V89.498H58.5791V84.248H59.1416ZM54.7646 87.7637C54.9814 87.7637 55.2129 87.7607 55.456 87.7578V85.2441H54.9052V84.7871H57.8935V85.2441H57.3486V87.6875C57.6211 87.667 57.8906 87.6406 58.1513 87.6113L58.1806 88.0215C57.0439 88.2061 55.7959 88.2236 54.8291 88.2266L54.7646 87.7637ZM55.9951 87.749C56.2588 87.7432 56.5312 87.7314 56.8037 87.7197V85.2441H55.9951V87.749ZM62.4376 85.1152V85.5664H59.8302V85.1152H60.8614V84.4004H61.4122V85.1152H62.4376ZM60.0001 87.0898C59.9971 86.3838 60.4776 85.8828 61.1368 85.8828C61.8018 85.8828 62.2764 86.3838 62.2794 87.0898C62.2764 87.8076 61.8018 88.3115 61.1368 88.3086C60.4776 88.3115 59.9971 87.8076 60.0001 87.0898ZM60.4923 87.0898C60.4893 87.5352 60.7589 87.834 61.1368 87.834C61.5147 87.834 61.7872 87.5352 61.7872 87.0898C61.7872 86.6533 61.5147 86.3486 61.1368 86.3457C60.7589 86.3486 60.4893 86.6533 60.4923 87.0898ZM62.6778 89.252V84.3652H63.2052V86.4336H63.8087V84.248H64.336V89.498H63.8087V86.8906H63.2052V89.252H62.6778ZM66.7355 85.7949C66.7326 86.624 67.2805 87.5498 68.0773 87.9277L67.7609 88.3613C67.1721 88.0801 66.7033 87.4883 66.466 86.8027C66.2258 87.5498 65.7336 88.1973 65.1359 88.4961L64.8078 88.0566C65.6047 87.6729 66.1818 86.6826 66.1848 85.7949V85.2383H65.0012V84.7754H67.8781V85.2383H66.7355V85.7949ZM68.4406 89.498V84.248H68.9973V86.3281H69.841V86.7969H68.9973V89.498H68.4406ZM74.0952 84.5762C74.0922 85.9209 73.143 86.8672 71.5873 87.2773L71.3647 86.8379C72.6274 86.5098 73.395 85.8506 73.4975 85.0215H71.6577V84.5762H74.0952ZM72.2319 89.4277V87.4414H75.6713V89.4277H72.2319ZM72.7827 88.9824H75.1264V87.8867H72.7827V88.9824ZM75.1147 87.207V84.2539H75.6713V87.207H75.1147ZM78.2056 85.584C78.1998 86.5127 78.7418 87.4648 79.524 87.8457L79.1783 88.291C78.607 87.9922 78.1646 87.4062 77.9332 86.7061C77.6988 87.4502 77.2388 88.0801 76.6412 88.3906L76.2955 87.9395C77.1011 87.5527 77.6461 86.5449 77.649 85.584V84.6875H78.2056V85.584ZM79.9166 89.498V84.248H80.4732V86.3398H81.317V86.8145H80.4732V89.498H79.9166ZM85.697 84.752V85.2676C85.694 85.915 85.694 86.6416 85.4977 87.7168L84.9352 87.6582C85.1374 86.6416 85.1374 85.8975 85.1403 85.2676V85.2031H81.9528V84.752H85.697ZM81.4489 88.7891V88.3262H83.2712V86.4746H83.822V88.3262H86.236V88.7891H81.4489ZM86.8309 87.3828C86.8367 86.2783 87.1502 85.3613 87.698 84.5762H88.2723C87.868 85.1562 87.4812 86.3369 87.4812 87.3828C87.4812 88.4316 87.868 89.6123 88.2723 90.1953H87.698C87.1502 89.4072 86.8367 88.4902 86.8309 87.3828ZM92.9101 84.248V87.1074H92.3593V85.9473H91.3749V85.4902H92.3593V84.248H92.9101ZM88.5448 86.7559C89.3505 86.4746 89.8544 85.7861 89.8515 85.0625V84.9922H88.7148V84.541H91.5448V84.9922H90.4198V85.0684C90.4169 85.7188 90.8915 86.3779 91.6855 86.6445L91.3984 87.0781C90.8066 86.8672 90.373 86.4512 90.1445 85.9355C89.9159 86.5127 89.456 86.9756 88.832 87.1953L88.5448 86.7559ZM89.4941 89.4336V87.3418H90.0448V87.9453H92.3593V87.3418H92.9101V89.4336H89.4941ZM90.0448 88.9824H92.3593V88.3789H90.0448V88.9824ZM96.294 84.7109C96.2911 85.4082 97.1436 86.0615 98.1748 86.1992L97.958 86.6562C97.0996 86.5186 96.3467 86.0732 96.0039 85.4551C95.6612 86.0732 94.9082 86.5186 94.0557 86.6562L93.833 86.1992C94.8614 86.0615 95.711 85.417 95.7139 84.7109V84.4238H96.294V84.7109ZM93.6045 87.6289V87.1719H98.3916V87.6289H96.2588V89.498H95.7139V87.6289H93.6045ZM103.047 84.2539V88.1328H102.49V86.1523H101.342V87.2598H98.922V84.5996H99.4787V85.4902H100.791V84.5996H101.342V85.7012H102.49V84.2539H103.047ZM99.4787 86.8086H100.791V85.918H99.4787V86.8086ZM99.6193 89.3867V87.752H100.182V88.9355H103.164V89.3867H99.6193ZM108.283 84.9863V85.4375H103.964V84.9863H105.851V84.3242H106.402V84.9863H108.283ZM103.736 88.9062V88.4551H105.851V87.7607C104.931 87.7021 104.371 87.3389 104.374 86.7559C104.371 86.123 105.042 85.751 106.126 85.7539C107.196 85.751 107.875 86.123 107.872 86.7559C107.875 87.3389 107.31 87.7021 106.402 87.7607V88.4551H108.54V88.9062H103.736ZM104.943 86.7559C104.937 87.1221 105.376 87.3213 106.126 87.3242C106.865 87.3213 107.307 87.1221 107.304 86.7559C107.307 86.3926 106.865 86.1934 106.126 86.1934C105.376 86.1934 104.937 86.3926 104.943 86.7559ZM111.939 84.7578V89H111.289V85.4023H111.265L110.251 86.0645V85.4492L111.306 84.7578H111.939ZM114.38 89.0586C113.457 89.0586 112.815 88.5605 112.821 87.8691C112.815 87.3242 113.205 86.8789 113.706 86.8027V86.7793C113.269 86.6797 112.979 86.293 112.979 85.8301C112.979 85.1768 113.568 84.6992 114.38 84.6992C115.179 84.6992 115.771 85.1768 115.774 85.8301C115.771 86.293 115.475 86.6797 115.048 86.7793V86.8027C115.543 86.8789 115.935 87.3242 115.938 87.8691C115.935 88.5605 115.288 89.0586 114.38 89.0586ZM113.477 87.8223C113.468 88.2383 113.82 88.5254 114.38 88.5254C114.93 88.5254 115.282 88.2383 115.282 87.8223C115.282 87.3857 114.901 87.0664 114.38 87.0664C113.852 87.0664 113.468 87.3857 113.477 87.8223ZM113.606 85.8887C113.609 86.2842 113.925 86.5596 114.38 86.5566C114.822 86.5596 115.144 86.2871 115.141 85.8887C115.144 85.4932 114.834 85.2236 114.38 85.2266C113.914 85.2236 113.609 85.4932 113.606 85.8887ZM117.992 89.0586C117.113 89.0586 116.489 88.5869 116.463 87.8926H117.119C117.142 88.2646 117.511 88.502 117.986 88.502C118.499 88.502 118.871 88.2236 118.871 87.8105C118.871 87.3916 118.522 87.0928 117.916 87.0898H117.552V86.5625H117.916C118.399 86.5654 118.736 86.2959 118.736 85.8887C118.736 85.502 118.446 85.2383 117.998 85.2383C117.573 85.2383 117.192 85.4756 117.177 85.8594H116.556C116.574 85.168 117.213 84.6992 118.004 84.6992C118.839 84.6992 119.363 85.2266 119.357 85.8535C119.363 86.3369 119.064 86.6826 118.607 86.7969V86.8262C119.187 86.9082 119.524 87.2979 119.521 87.834C119.524 88.54 118.871 89.0586 117.992 89.0586ZM121.645 89.0586C120.86 89.0527 120.04 88.5869 120.04 87.0195C120.043 85.543 120.682 84.6992 121.698 84.6992C122.48 84.6992 123.022 85.1855 123.122 85.8594H122.483C122.398 85.5137 122.126 85.2646 121.698 85.2617C121.042 85.2646 120.661 85.833 120.661 86.791H120.708C120.939 86.4307 121.338 86.2197 121.798 86.2168C122.554 86.2197 123.163 86.7998 123.163 87.6113C123.163 88.4346 122.557 89.0645 121.645 89.0586ZM120.737 87.6289C120.74 88.1006 121.118 88.5166 121.64 88.5195C122.152 88.5166 122.536 88.1182 122.536 87.623C122.536 87.1367 122.167 86.7412 121.657 86.7441C121.139 86.7412 120.743 87.1572 120.737 87.6289ZM123.729 89V88.5312L125.199 87.0488C125.665 86.5654 125.896 86.2959 125.896 85.9238C125.896 85.5049 125.557 85.2383 125.111 85.2383C124.64 85.2383 124.341 85.5371 124.338 85.9883H123.729C123.723 85.2119 124.314 84.6992 125.123 84.6992C125.94 84.6992 126.506 85.2178 126.512 85.9062C126.506 86.3809 126.283 86.7588 125.486 87.541L124.625 88.4141V88.4492H126.582V89H123.729ZM128.437 87.3828C128.431 88.4902 128.117 89.4072 127.569 90.1953H126.995C127.4 89.6123 127.786 88.4316 127.786 87.3828C127.786 86.3369 127.4 85.1562 126.995 84.5762H127.569C128.117 85.3613 128.431 86.2783 128.437 87.3828ZM133.367 84.248V87.2129H132.817V84.248H133.367ZM129.342 86.8613V84.5527H129.899V86.3926C130.745 86.3867 131.487 86.3281 132.278 86.1582L132.354 86.6211C131.487 86.7969 130.696 86.8584 129.776 86.8613H129.342ZM129.928 89.4277V87.4531H133.367V89.4277H129.928ZM130.473 88.9824H132.823V87.8926H130.473V88.9824ZM138.603 84.248V89.498H138.07V84.248H138.603ZM134.144 86.5156C134.144 85.3789 134.589 84.667 135.275 84.6699C135.913 84.667 136.344 85.2734 136.409 86.2578H137.003V84.3477H137.536V89.2402H137.003V86.709H136.411C136.362 87.7344 135.925 88.3701 135.275 88.3672C134.589 88.3701 134.144 87.6553 134.144 86.5156ZM134.66 86.5156C134.66 87.3506 134.897 87.8428 135.275 87.8398C135.661 87.8428 135.902 87.3506 135.902 86.5156C135.902 85.6777 135.661 85.1885 135.275 85.1914C134.897 85.1885 134.66 85.6777 134.66 86.5156ZM143.663 84.248V89.498H143.135V84.248H143.663ZM139.133 87.9805C140.247 87.3184 140.78 86.4365 140.876 85.3555H139.379V84.8984H141.43C141.427 85.4111 141.357 85.9004 141.196 86.3574H142.028V84.3828H142.555V89.2402H142.028V86.8027H141.002C140.692 87.4121 140.191 87.9453 139.45 88.3789L139.133 87.9805ZM22.2266 97.0371V97.9453C22.707 97.9189 23.1934 97.8779 23.6504 97.8105L23.6914 98.2207C22.5049 98.4404 21.2305 98.4492 20.293 98.4492L20.2227 97.9922C20.6445 97.9893 21.1455 97.9863 21.6699 97.9688V97.0371H22.2266ZM20.3633 96.7852C21.1455 96.5596 21.6348 96.0117 21.6641 95.3672H20.5039V94.916H21.6699V94.2891H22.2266V94.916H23.4043V95.3672H22.2266C22.2559 95.9854 22.7539 96.5156 23.5391 96.7266L23.2812 97.1602C22.6543 96.9814 22.1855 96.6006 21.9482 96.1025C21.7197 96.627 21.2568 97.0283 20.627 97.207L20.3633 96.7852ZM23.9785 99.5098V94.248H24.5352V99.5098H23.9785ZM27.9249 96.1172V96.8262H30.046V97.2832H25.2589V96.8262H27.3741V96.1172H27.9249ZM25.505 95.9531C26.4542 95.8564 27.1984 95.4404 27.2745 94.9336H25.6984V94.4883H29.6183V94.9336H28.0245C28.1036 95.4375 28.8478 95.8564 29.7999 95.9531L29.6007 96.3926C28.6896 96.2871 27.9366 95.9121 27.6495 95.3584C27.3624 95.9121 26.6154 96.2871 25.7042 96.3926L25.505 95.9531ZM25.8273 98.5781C25.8273 97.9893 26.507 97.6641 27.6495 97.6641C28.7833 97.6641 29.4571 97.9893 29.4601 98.5781C29.4571 99.1641 28.7833 99.4893 27.6495 99.4863C26.507 99.4893 25.8273 99.1641 25.8273 98.5781ZM26.3898 98.5781C26.3868 98.8916 26.838 99.0645 27.6495 99.0645C28.4493 99.0645 28.9034 98.8916 28.9034 98.5781C28.9034 98.2646 28.4493 98.0947 27.6495 98.0918C26.838 98.0947 26.3868 98.2646 26.3898 98.5781ZM35.9173 98.9355V99.3867H32.2728V97.875H32.8353V98.9355H35.9173ZM31.6693 97.4883V97.0312H33.7845V96.1934H34.3353V97.0312H36.4681V97.4883H31.6693ZM31.9623 96.0879C32.9613 95.9326 33.7757 95.2998 33.7787 94.5996V94.3887H34.3412V94.5996C34.3382 95.3145 35.1468 95.9414 36.1517 96.0879L35.9349 96.5215C35.1058 96.375 34.3851 95.9531 34.057 95.3467C33.7289 95.9531 33.0111 96.3809 32.1849 96.5215L31.9623 96.0879ZM39.3305 95.1152V95.5664H36.7231V95.1152H37.7544V94.4004H38.3052V95.1152H39.3305ZM36.893 97.0898C36.8901 96.3838 37.3706 95.8828 38.0298 95.8828C38.6948 95.8828 39.1694 96.3838 39.1723 97.0898C39.1694 97.8076 38.6948 98.3115 38.0298 98.3086C37.3706 98.3115 36.8901 97.8076 36.893 97.0898ZM37.3852 97.0898C37.3823 97.5352 37.6518 97.834 38.0298 97.834C38.4077 97.834 38.6802 97.5352 38.6802 97.0898C38.6802 96.6533 38.4077 96.3486 38.0298 96.3457C37.6518 96.3486 37.3823 96.6533 37.3852 97.0898ZM39.5708 99.252V94.3652H40.0981V96.4336H40.7016V94.248H41.229V99.498H40.7016V96.8906H40.0981V99.252H39.5708ZM43.6227 95.584C43.6168 96.5127 44.1588 97.4648 44.941 97.8457L44.5953 98.291C44.024 97.9922 43.5816 97.4062 43.3502 96.7061C43.1158 97.4502 42.6559 98.0801 42.0582 98.3906L41.7125 97.9395C42.5182 97.5527 43.0631 96.5449 43.066 95.584V94.6875H43.6227V95.584ZM45.3336 99.498V94.248H45.8902V96.3398H46.734V96.8145H45.8902V99.498H45.3336ZM51.2429 94.248V97.3711H50.6863V96.041H49.7077V95.584H50.6863V94.248H51.2429ZM46.8659 96.8965C47.6804 96.6123 48.1814 95.9033 48.1784 95.1797V95.0625H47.0417V94.6113H49.8718V95.0625H48.7468V95.1738C48.7439 95.8389 49.2185 96.4863 50.0124 96.7559L49.7253 97.1953C49.1364 96.9932 48.7029 96.5713 48.4743 96.0527C48.2458 96.6387 47.7859 97.1104 47.1589 97.3418L46.8659 96.8965ZM47.7097 98.5078C47.7068 97.8838 48.3806 97.5205 49.4851 97.5176C50.5837 97.5205 51.2575 97.8838 51.2605 98.5078C51.2575 99.1318 50.5837 99.4951 49.4851 99.498C48.3806 99.4951 47.7068 99.1318 47.7097 98.5078ZM48.2605 98.5078C48.2575 98.8623 48.7146 99.0645 49.4851 99.0586C50.2497 99.0645 50.7068 98.8623 50.7097 98.5078C50.7068 98.1504 50.2497 97.9482 49.4851 97.9512C48.7146 97.9482 48.2575 98.1504 48.2605 98.5078ZM57.4716 94.5117V94.9102C57.4746 95.3203 57.4746 95.7949 57.3369 96.4277H58.081V96.8848H53.2763V96.4277H56.7744C56.915 95.8154 56.9209 95.3672 56.9209 94.9688H53.8798V94.5117H57.4716ZM53.8623 99.4336V97.5527H57.4775V99.4336H53.8623ZM54.4072 98.9824H56.9267V97.9922H54.4072V98.9824ZM59.5899 94.5703C60.2843 94.5732 60.797 95.0889 60.797 95.8301C60.797 96.5684 60.2843 97.0723 59.5899 97.0723C58.8897 97.0723 58.3858 96.5684 58.3887 95.8301C58.3858 95.0889 58.8897 94.5732 59.5899 94.5703ZM58.8868 95.8301C58.8839 96.2871 59.1827 96.6064 59.5899 96.6035C59.9942 96.6064 60.2872 96.2871 60.293 95.8301C60.2872 95.3643 59.9942 95.0508 59.5899 95.0508C59.1827 95.0508 58.8839 95.3643 58.8868 95.8301ZM59.2501 98.0977V97.6523H62.8184V99.498H62.2677V98.0977H59.2501ZM61.1602 97.3477V94.3477H61.6817V95.5781H62.2911V94.2539H62.8184V97.3828H62.2911V96.0293H61.6817V97.3477H61.1602ZM67.5238 94.582V96.7383H65.0277V94.582H67.5238ZM65.3734 99.0527C66.3284 98.959 67.0755 98.4814 67.1136 98.0098H65.5843V97.5879H67.1253V97.0957H67.6761V97.5879H69.223V98.0098H67.6878C67.7259 98.4668 68.4554 98.9473 69.4105 99.0527L69.223 99.4805C68.3997 99.3809 67.72 99.0293 67.4036 98.5664C67.0814 99.0352 66.3929 99.3809 65.5667 99.4805L65.3734 99.0527ZM65.5726 96.3047H66.973V95.0273H65.5726V96.3047ZM68.5491 97.248V94.248H69.0999V97.248H68.5491ZM75.4107 98.9355V99.3867H71.7662V97.875H72.3287V98.9355H75.4107ZM71.1627 97.4883V97.0312H73.2779V96.1934H73.8287V97.0312H75.9615V97.4883H71.1627ZM71.4556 96.0879C72.4546 95.9326 73.2691 95.2998 73.272 94.5996V94.3887H73.8345V94.5996C73.8316 95.3145 74.6402 95.9414 75.6451 96.0879L75.4283 96.5215C74.5992 96.375 73.8785 95.9531 73.5504 95.3467C73.2222 95.9531 72.5045 96.3809 71.6783 96.5215L71.4556 96.0879ZM78.8239 95.1152V95.5664H76.2165V95.1152H77.2477V94.4004H77.7985V95.1152H78.8239ZM76.3864 97.0898C76.3835 96.3838 76.8639 95.8828 77.5231 95.8828C78.1882 95.8828 78.6628 96.3838 78.6657 97.0898C78.6628 97.8076 78.1882 98.3115 77.5231 98.3086C76.8639 98.3115 76.3835 97.8076 76.3864 97.0898ZM76.8786 97.0898C76.8757 97.5352 77.1452 97.834 77.5231 97.834C77.9011 97.834 78.1735 97.5352 78.1735 97.0898C78.1735 96.6533 77.9011 96.3486 77.5231 96.3457C77.1452 96.3486 76.8757 96.6533 76.8786 97.0898ZM79.0641 99.252V94.3652H79.5915V96.4336H80.195V94.248H80.7223V99.498H80.195V96.8906H79.5915V99.252H79.0641ZM83.116 95.584C83.1102 96.5127 83.6521 97.4648 84.4344 97.8457L84.0887 98.291C83.5174 97.9922 83.075 97.4062 82.8436 96.7061C82.6092 97.4502 82.1492 98.0801 81.5516 98.3906L81.2059 97.9395C82.0115 97.5527 82.5564 96.5449 82.5594 95.584V94.6875H83.116V95.584ZM84.827 99.498V94.248H85.3836V96.3398H86.2273V96.8145H85.3836V99.498H84.827ZM90.7363 94.248V97.3711H90.1796V96.041H89.2011V95.584H90.1796V94.248H90.7363ZM86.3593 96.8965C87.1738 96.6123 87.6747 95.9033 87.6718 95.1797V95.0625H86.5351V94.6113H89.3652V95.0625H88.2402V95.1738C88.2372 95.8389 88.7118 96.4863 89.5058 96.7559L89.2187 97.1953C88.6298 96.9932 88.1962 96.5713 87.9677 96.0527C87.7392 96.6387 87.2792 97.1104 86.6523 97.3418L86.3593 96.8965ZM87.203 98.5078C87.2001 97.8838 87.8739 97.5205 88.9784 97.5176C90.0771 97.5205 90.7509 97.8838 90.7538 98.5078C90.7509 99.1318 90.0771 99.4951 88.9784 99.498C87.8739 99.4951 87.2001 99.1318 87.203 98.5078ZM87.7538 98.5078C87.7509 98.8623 88.2079 99.0645 88.9784 99.0586C89.7431 99.0645 90.2001 98.8623 90.203 98.5078C90.2001 98.1504 89.7431 97.9482 88.9784 97.9512C88.2079 97.9482 87.7509 98.1504 87.7538 98.5078ZM95.4357 96.1172V96.8262H97.5568V97.2832H92.7697V96.8262H94.8849V96.1172H95.4357ZM93.0158 95.9531C93.965 95.8564 94.7091 95.4404 94.7853 94.9336H93.2091V94.4883H97.1291V94.9336H95.5353C95.6144 95.4375 96.3586 95.8564 97.3107 95.9531L97.1115 96.3926C96.2003 96.2871 95.4474 95.9121 95.1603 95.3584C94.8732 95.9121 94.1261 96.2871 93.215 96.3926L93.0158 95.9531ZM93.338 98.5781C93.338 97.9893 94.0177 97.6641 95.1603 97.6641C96.2941 97.6641 96.9679 97.9893 96.9709 98.5781C96.9679 99.1641 96.2941 99.4893 95.1603 99.4863C94.0177 99.4893 93.338 99.1641 93.338 98.5781ZM93.9005 98.5781C93.8976 98.8916 94.3488 99.0645 95.1603 99.0645C95.9601 99.0645 96.4142 98.8916 96.4142 98.5781C96.4142 98.2646 95.9601 98.0947 95.1603 98.0918C94.3488 98.0947 93.8976 98.2646 93.9005 98.5781ZM102.64 98.4023V98.8711H97.8352V98.4023H99.1477V97.4766H98.4212V95.8066H101.503V95.0742H98.4095V94.6172H102.054V96.2578H98.972V97.0195H102.177V97.4766H101.38V98.4023H102.64ZM99.6868 98.4023H100.835V97.4766H99.6868V98.4023ZM107.7 96.6562V97.084H102.895V96.6562H107.7ZM103.463 97.8516V97.4531H107.108V98.6074H104.026V99.041H107.272V99.4336H103.469V98.2383H106.557V97.8516H103.463ZM103.498 94.7754V94.3828H107.096V95.5195H104.061V95.918H107.184V96.3105H103.51V95.1504H106.539V94.7754H103.498ZM113.436 94.2422V95.8125H114.198V96.2812H113.436V98.1035H112.88V94.2422H113.436ZM109.393 95.9121C109.387 95.1475 109.997 94.6084 110.788 94.6055C111.582 94.6084 112.182 95.1475 112.188 95.9121C112.182 96.6768 111.582 97.2217 110.788 97.2188C109.997 97.2217 109.387 96.6768 109.393 95.9121ZM109.938 95.9121C109.932 96.4014 110.307 96.7324 110.788 96.7324C111.274 96.7324 111.64 96.4014 111.643 95.9121C111.64 95.4229 111.274 95.0918 110.788 95.0918C110.307 95.0918 109.932 95.4229 109.938 95.9121ZM110.108 99.3867V97.6992H110.665V98.9355H113.659V99.3867H110.108ZM118.871 94.248V99.498H118.338V96.8086H117.664V99.2285H117.142V94.3535H117.664V96.3516H118.338V94.248H118.871ZM114.623 98.1621V94.8691H115.179V97.6729C115.663 97.667 116.193 97.6289 116.791 97.5117L116.849 97.998C116.129 98.127 115.528 98.165 114.963 98.1621H114.623ZM123.696 96.7383V97.1953H120.04V94.7168H123.649V95.1738H120.591V96.7383H123.696ZM119.442 98.8066V98.3438H124.247V98.8066H119.442ZM127.01 94.5V96.0234H125.275V96.709C126.175 96.709 126.679 96.6943 127.279 96.5918L127.332 97.0312C126.676 97.1543 126.131 97.166 125.105 97.166H124.725V95.5957H126.453V94.957H124.719V94.5H127.01ZM124.766 99.0879C125.439 98.8477 125.814 98.291 125.814 97.7754V97.5176H126.354V97.7754C126.351 98.2295 126.573 98.7129 127.045 99.0059C127.525 98.6895 127.76 98.1826 127.766 97.7754V97.5176H128.305V97.7754C128.308 98.3262 128.662 98.8623 129.348 99.0879L129.072 99.498C128.557 99.3193 128.205 98.9648 128.023 98.5283C127.856 98.9531 127.543 99.3428 127.057 99.5449C126.556 99.3545 126.239 98.9766 126.075 98.543C125.888 98.9619 125.542 99.3164 125.053 99.498L124.766 99.0879ZM127.35 96.498V96.0469H128.328V95.3965H127.35V94.9453H128.328V94.2539H128.885V97.377H128.328V96.498H127.35ZM130.997 94.6406C131.712 94.6436 132.231 95.2471 132.316 96.2168H133.4V94.248H133.95V99.5098H133.4V96.668H132.321C132.26 97.6934 131.73 98.3291 130.997 98.3262C130.215 98.3291 129.661 97.6143 129.667 96.4805C129.661 95.3584 130.215 94.6436 130.997 94.6406ZM130.194 96.4805C130.197 97.3154 130.523 97.8281 130.997 97.8281C131.472 97.8281 131.797 97.3154 131.8 96.4805C131.797 95.6572 131.472 95.1416 130.997 95.1387C130.523 95.1416 130.197 95.6572 130.194 96.4805ZM139.444 98.3789V98.8418H134.639V98.3789H135.787V97.0078C135.357 96.7705 135.093 96.3955 135.096 95.9238C135.093 95.0977 135.905 94.5557 137.03 94.5527C138.157 94.5557 138.969 95.0977 138.969 95.9238C138.969 96.3867 138.717 96.7588 138.295 96.9961V98.3789H139.444ZM135.635 95.9238C135.635 96.4863 136.206 96.8525 137.03 96.8555C137.847 96.8525 138.427 96.4863 138.43 95.9238C138.427 95.3584 137.847 94.998 137.03 94.998C136.206 94.998 135.635 95.3584 135.635 95.9238ZM136.338 98.3789H137.733V97.2129C137.519 97.2627 137.281 97.2891 137.03 97.2891C136.783 97.2891 136.549 97.2627 136.338 97.2129V98.3789Z" fill="#586CE1"/>
<rect x="20" y="114" width="164" height="50" rx="6" fill="#E1E9FE"/>
<path d="M34.1328 124.633V131.695H33.2578V124.633H34.1328ZM28.2188 129.312C28.4922 129.312 28.7852 129.309 29.0938 129.305V126.031H28.4062V125.32H32.4141V126.031H31.7344V129.199C32.0703 129.172 32.4062 129.141 32.7266 129.102L32.7734 129.75C31.2578 129.996 29.6055 130.023 28.3047 130.023L28.2188 129.312ZM29.9297 129.289C30.2422 129.281 30.5625 129.27 30.8828 129.25V126.031H29.9297V129.289ZM38.4338 125.758V126.453H34.9728V125.758H36.2853V124.836H37.1447V125.758H38.4338ZM35.1759 128.469C35.1681 127.508 35.8205 126.824 36.715 126.828C37.6134 126.824 38.2541 127.508 38.2541 128.469C38.2541 129.449 37.6134 130.133 36.715 130.133C35.8205 130.133 35.1681 129.449 35.1759 128.469ZM35.9416 128.469C35.9377 129.039 36.258 129.395 36.715 129.391C37.1681 129.395 37.4884 129.039 37.4884 128.469C37.4884 127.914 37.1681 127.547 36.715 127.547C36.258 127.547 35.9377 127.914 35.9416 128.469ZM38.7306 131.375V124.781H39.5431V127.539H40.2306V124.633H41.0588V131.695H40.2306V128.242H39.5431V131.375H38.7306ZM44.2738 126.641C44.2698 127.73 44.9261 128.973 46.0394 129.492L45.555 130.18C44.7581 129.805 44.1683 129.047 43.8519 128.164C43.5316 129.133 42.9144 129.961 42.1019 130.352L41.5941 129.672C42.7191 129.137 43.4027 127.816 43.4066 126.641V126.047H41.8675V125.328H45.7503V126.047H44.2738V126.641ZM46.4066 131.695V124.633H47.2738V127.383H48.3597V128.109H47.2738V131.695H46.4066ZM56.1178 124.633V131.695H55.2506V124.633H56.1178ZM50.2663 129.688C51.5905 129.695 53.3209 129.695 54.8366 129.5L54.8991 130.133C53.3209 130.414 51.6725 130.418 50.3913 130.414L50.2663 129.688ZM50.4147 126.211V125.523H52.1256V124.711H53.0006V125.523H54.7116V126.211H50.4147ZM50.8444 127.867C50.8405 127.051 51.5514 126.527 52.5709 126.531C53.5905 126.527 54.2897 127.051 54.2975 127.867C54.2897 128.664 53.5905 129.207 52.5709 129.203C51.5514 129.207 50.8405 128.664 50.8444 127.867ZM51.6647 127.867C51.6608 128.285 52.0319 128.535 52.5709 128.539C53.0983 128.535 53.4655 128.285 53.4616 127.867C53.4655 127.453 53.0983 127.191 52.5709 127.195C52.0319 127.191 51.6608 127.453 51.6647 127.867ZM60.575 125.156V128.266H57.2313V125.156H60.575ZM57.8719 130.32C57.8719 129.469 58.8016 128.953 60.2625 128.953C61.7117 128.953 62.6258 129.469 62.6297 130.32C62.6258 131.188 61.7117 131.691 60.2625 131.695C58.8016 131.691 57.8719 131.188 57.8719 130.32ZM58.0828 127.562H59.7234V125.844H58.0828V127.562ZM58.7391 130.32C58.7391 130.773 59.2938 131 60.2625 131C61.2273 131 61.7703 130.773 61.7703 130.32C61.7703 129.887 61.2273 129.648 60.2625 129.648C59.2938 129.648 58.7391 129.887 58.7391 130.32ZM61.6922 128.75V124.633H62.5594V126.289H63.5438V126.992H62.5594V128.75H61.6922ZM71.1925 130.852V131.555H66.2784V129.516H67.1456V130.852H71.1925ZM65.4816 129.039V128.336H68.2628V127.273H69.1222V128.336H71.9191V129.039H65.4816ZM65.8488 127.031C67.298 126.816 68.2472 125.969 68.2472 125.078V124.828H69.13V125.078C69.13 126 70.0597 126.832 71.5363 127.031L71.1925 127.711C70.0402 127.52 69.13 126.977 68.6847 126.203C68.2394 126.973 67.337 127.527 66.1925 127.711L65.8488 127.031ZM75.6809 125.758V126.453H72.22V125.758H73.5325V124.836H74.3919V125.758H75.6809ZM72.4231 128.469C72.4153 127.508 73.0677 126.824 73.9622 126.828C74.8606 126.824 75.5013 127.508 75.5013 128.469C75.5013 129.449 74.8606 130.133 73.9622 130.133C73.0677 130.133 72.4153 129.449 72.4231 128.469ZM73.1888 128.469C73.1848 129.039 73.5052 129.395 73.9622 129.391C74.4153 129.395 74.7356 129.039 74.7356 128.469C74.7356 127.914 74.4153 127.547 73.9622 127.547C73.5052 127.547 73.1848 127.914 73.1888 128.469ZM75.9778 131.375V124.781H76.7903V127.539H77.4778V124.633H78.3059V131.695H77.4778V128.242H76.7903V131.375H75.9778ZM81.5131 126.328C81.5053 127.59 82.1381 128.863 83.2319 129.391L82.7006 130.086C81.935 129.699 81.3842 128.953 81.0834 128.055C80.7748 129.016 80.1967 129.812 79.3881 130.219L78.8569 129.523C79.9936 128.984 80.642 127.633 80.6459 126.328V125.203H81.5131V126.328ZM83.6538 131.695V124.633H84.5209V127.398H85.6069V128.141H84.5209V131.695H83.6538ZM91.6578 124.633V128.828H90.7906V127.102H89.5875V126.391H90.7906V124.633H91.6578ZM85.7203 128.125C86.857 127.734 87.4547 126.785 87.4547 125.852V125.797H85.9859V125.094H89.7984V125.797H88.3375V125.844C88.3375 126.703 88.9078 127.57 90.0016 127.938L89.5641 128.625C88.7789 128.359 88.2242 127.82 87.9117 127.156C87.6031 127.906 87.0133 128.516 86.1734 128.812L85.7203 128.125ZM86.8688 130.352C86.8609 129.504 87.7789 129.008 89.2672 129.008C90.7633 129.008 91.6773 129.504 91.6813 130.352C91.6773 131.199 90.7633 131.691 89.2672 131.695C87.7789 131.691 86.8609 131.199 86.8688 130.352ZM87.7281 130.352C87.7242 130.789 88.2867 131.027 89.2672 131.023C90.2555 131.027 90.8141 130.789 90.8141 130.352C90.8141 129.91 90.2555 129.672 89.2672 129.672C88.2867 129.672 87.7242 129.91 87.7281 130.352ZM99.9003 124.977V125.523C99.9042 126.074 99.9042 126.699 99.7284 127.531H100.689V128.234H94.2363V127.531H98.8495C99.0175 126.766 99.0331 126.188 99.0331 125.672H95.0331V124.977H99.9003ZM95.0097 131.609V129.055H99.8925V131.609H95.0097ZM95.8613 130.906H99.0331V129.734H95.8613V130.906ZM102.654 125.07C103.588 125.066 104.279 125.77 104.279 126.773C104.279 127.781 103.588 128.465 102.654 128.469C101.713 128.465 101.033 127.781 101.037 126.773C101.033 125.77 101.713 125.066 102.654 125.07ZM101.818 126.773C101.811 127.359 102.162 127.742 102.654 127.734C103.139 127.742 103.49 127.359 103.49 126.773C103.49 126.184 103.139 125.809 102.654 125.812C102.162 125.809 101.811 126.184 101.818 126.773ZM102.193 129.883V129.188H107.029V131.695H106.162V129.883H102.193ZM104.701 128.805V124.773H105.506V126.391H106.201V124.641H107.029V128.852H106.201V127.086H105.506V128.805H104.701Z" fill="#5A5D6B"/>
<path d="M131.76 131V130.266L133.76 128.336C134.331 127.766 134.627 127.43 134.627 126.953C134.627 126.426 134.21 126.094 133.659 126.094C133.077 126.094 132.702 126.457 132.706 127.031H131.737C131.733 125.961 132.538 125.266 133.667 125.266C134.823 125.266 135.6 125.957 135.604 126.906C135.6 127.543 135.295 128.059 134.182 129.109L133.174 130.109V130.148H135.69V131H131.76ZM137.561 130.445L136.905 132.633H136.163L136.569 130.445H137.561ZM140.339 131.078C138.975 131.078 138.163 130.023 138.167 128.172C138.163 126.328 138.983 125.266 140.339 125.266C141.694 125.266 142.511 126.328 142.511 128.172C142.511 130.027 141.698 131.078 140.339 131.078ZM139.19 128.172C139.19 129.531 139.628 130.223 140.339 130.227C141.046 130.223 141.487 129.531 141.487 128.172C141.483 126.824 141.046 126.113 140.339 126.109C139.632 126.113 139.194 126.824 139.19 128.172ZM145.288 131.078C143.925 131.078 143.112 130.023 143.116 128.172C143.112 126.328 143.933 125.266 145.288 125.266C146.644 125.266 147.46 126.328 147.46 128.172C147.46 130.027 146.647 131.078 145.288 131.078ZM144.14 128.172C144.14 129.531 144.577 130.223 145.288 130.227C145.995 130.223 146.437 129.531 146.437 128.172C146.433 126.824 145.995 126.113 145.288 126.109C144.581 126.113 144.144 126.824 144.14 128.172ZM150.237 131.078C148.874 131.078 148.062 130.023 148.066 128.172C148.062 126.328 148.882 125.266 150.237 125.266C151.593 125.266 152.409 126.328 152.409 128.172C152.409 130.027 151.597 131.078 150.237 131.078ZM149.089 128.172C149.089 129.531 149.527 130.223 150.237 130.227C150.945 130.223 151.386 129.531 151.386 128.172C151.382 126.824 150.945 126.113 150.237 126.109C149.53 126.113 149.093 126.824 149.089 128.172ZM154.015 130.445L153.359 132.633H152.617L153.023 130.445H154.015ZM156.792 131.078C155.429 131.078 154.617 130.023 154.621 128.172C154.617 126.328 155.437 125.266 156.792 125.266C158.148 125.266 158.964 126.328 158.964 128.172C158.964 130.027 158.152 131.078 156.792 131.078ZM155.644 128.172C155.644 129.531 156.082 130.223 156.792 130.227C157.5 130.223 157.941 129.531 157.941 128.172C157.937 126.824 157.5 126.113 156.792 126.109C156.085 126.113 155.648 126.824 155.644 128.172ZM161.742 131.078C160.379 131.078 159.566 130.023 159.57 128.172C159.566 126.328 160.386 125.266 161.742 125.266C163.097 125.266 163.914 126.328 163.914 128.172C163.914 130.027 163.101 131.078 161.742 131.078ZM160.593 128.172C160.593 129.531 161.031 130.223 161.742 130.227C162.449 130.223 162.89 129.531 162.89 128.172C162.886 126.824 162.449 126.113 161.742 126.109C161.035 126.113 160.597 126.824 160.593 128.172ZM166.691 131.078C165.328 131.078 164.515 130.023 164.519 128.172C164.515 126.328 165.336 125.266 166.691 125.266C168.047 125.266 168.863 126.328 168.863 128.172C168.863 130.027 168.051 131.078 166.691 131.078ZM165.543 128.172C165.543 129.531 165.98 130.223 166.691 130.227C167.398 130.223 167.84 129.531 167.84 128.172C167.836 126.824 167.398 126.113 166.691 126.109C165.984 126.113 165.547 126.824 165.543 128.172ZM175.242 124.641V129.984H174.367V129.367H172.984V128.758H174.367V124.641H175.242ZM169.289 127.812C170.59 127.805 172.344 127.793 173.844 127.602L173.891 128.227C173.309 128.324 172.707 128.387 172.109 128.43V129.789H171.242V128.477C170.582 128.504 169.953 128.508 169.398 128.508L169.289 127.812ZM169.828 126.148C169.828 125.402 170.547 124.895 171.594 124.898C172.621 124.895 173.344 125.402 173.352 126.148C173.344 126.906 172.621 127.387 171.594 127.391C170.547 127.387 169.828 126.906 169.828 126.148ZM170.227 131.555V129.469H171.094V130.852H175.406V131.555H170.227ZM170.648 126.148C170.648 126.531 171.027 126.754 171.594 126.758C172.133 126.754 172.52 126.531 172.523 126.148C172.52 125.766 172.133 125.535 171.594 125.539C171.027 125.535 170.648 125.766 170.648 126.148Z" fill="#5A5D6B"/>
<path d="M34.6719 149.211V149.914H28.2344V149.211H31.0156V148.461H31.875V149.211H34.6719ZM28.5391 148.141C30 148.043 30.832 147.559 30.9453 146.977H28.8672V146.289H31.0156V145.648H31.875V146.289H34.0391V146.977H31.9414C32.0508 147.559 32.8867 148.043 34.3516 148.141L34.0859 148.805C32.8242 148.707 31.8828 148.312 31.4453 147.703C31 148.312 30.0625 148.707 28.8047 148.805L28.5391 148.141ZM28.9844 151.5C28.9844 150.727 29.8984 150.309 31.4453 150.305C32.9844 150.309 33.8867 150.727 33.8906 151.5C33.8867 152.27 32.9844 152.688 31.4453 152.688C29.8984 152.688 28.9844 152.27 28.9844 151.5ZM29.8672 151.5C29.8633 151.859 30.4062 152.039 31.4453 152.039C32.4648 152.039 33.0156 151.859 33.0234 151.5C33.0156 151.137 32.4648 150.953 31.4453 150.953C30.4062 150.953 29.8633 151.137 29.8672 151.5ZM42.4378 151.852V152.555H37.5238V150.516H38.3909V151.852H42.4378ZM36.7269 150.039V149.336H39.5081V148.273H40.3675V149.336H43.1644V150.039H36.7269ZM37.0941 148.031C38.5433 147.816 39.4925 146.969 39.4925 146.078V145.828H40.3753V146.078C40.3753 147 41.305 147.832 42.7816 148.031L42.4378 148.711C41.2855 148.52 40.3753 147.977 39.93 147.203C39.4847 147.973 38.5823 148.527 37.4378 148.711L37.0941 148.031ZM46.9263 146.758V147.453H43.4653V146.758H44.7778V145.836H45.6372V146.758H46.9263ZM43.6684 149.469C43.6606 148.508 44.313 147.824 45.2075 147.828C46.1059 147.824 46.7466 148.508 46.7466 149.469C46.7466 150.449 46.1059 151.133 45.2075 151.133C44.313 151.133 43.6606 150.449 43.6684 149.469ZM44.4341 149.469C44.4302 150.039 44.7505 150.395 45.2075 150.391C45.6606 150.395 45.9809 150.039 45.9809 149.469C45.9809 148.914 45.6606 148.547 45.2075 148.547C44.7505 148.547 44.4302 148.914 44.4341 149.469ZM47.2231 152.375V145.781H48.0356V148.539H48.7231V145.633H49.5513V152.695H48.7231V149.242H48.0356V152.375H47.2231ZM52.7584 147.328C52.7506 148.59 53.3834 149.863 54.4772 150.391L53.9459 151.086C53.1803 150.699 52.6295 149.953 52.3288 149.055C52.0202 150.016 51.442 150.812 50.6334 151.219L50.1022 150.523C51.2389 149.984 51.8873 148.633 51.8913 147.328V146.203H52.7584V147.328ZM54.8991 152.695V145.633H55.7663V148.398H56.8522V149.141H55.7663V152.695H54.8991ZM62.9031 145.633V149.828H62.0359V148.102H60.8328V147.391H62.0359V145.633H62.9031ZM56.9656 149.125C58.1023 148.734 58.7 147.785 58.7 146.852V146.797H57.2313V146.094H61.0438V146.797H59.5828V146.844C59.5828 147.703 60.1531 148.57 61.2469 148.938L60.8094 149.625C60.0242 149.359 59.4695 148.82 59.157 148.156C58.8484 148.906 58.2586 149.516 57.4188 149.812L56.9656 149.125ZM58.1141 151.352C58.1063 150.504 59.0242 150.008 60.5125 150.008C62.0086 150.008 62.9227 150.504 62.9266 151.352C62.9227 152.199 62.0086 152.691 60.5125 152.695C59.0242 152.691 58.1063 152.199 58.1141 151.352ZM58.9734 151.352C58.9695 151.789 59.532 152.027 60.5125 152.023C61.5008 152.027 62.0594 151.789 62.0594 151.352C62.0594 150.91 61.5008 150.672 60.5125 150.672C59.532 150.672 58.9695 150.91 58.9734 151.352ZM71.1456 145.977V146.523C71.1495 147.074 71.1495 147.699 70.9738 148.531H71.9347V149.234H65.4816V148.531H70.0948C70.2628 147.766 70.2784 147.188 70.2784 146.672H66.2784V145.977H71.1456ZM66.255 152.609V150.055H71.1378V152.609H66.255ZM67.1066 151.906H70.2784V150.734H67.1066V151.906ZM73.8997 146.07C74.8333 146.066 75.5247 146.77 75.5247 147.773C75.5247 148.781 74.8333 149.465 73.8997 149.469C72.9583 149.465 72.2786 148.781 72.2825 147.773C72.2786 146.77 72.9583 146.066 73.8997 146.07ZM73.0638 147.773C73.0559 148.359 73.4075 148.742 73.8997 148.734C74.3841 148.742 74.7356 148.359 74.7356 147.773C74.7356 147.184 74.3841 146.809 73.8997 146.812C73.4075 146.809 73.0559 147.184 73.0638 147.773ZM73.4388 150.883V150.188H78.2747V152.695H77.4075V150.883H73.4388ZM75.9466 149.805V145.773H76.7513V147.391H77.4466V145.641H78.2747V149.852H77.4466V148.086H76.7513V149.805H75.9466Z" fill="#586CE1"/>
<path d="M131.807 152V151.266L133.807 149.336C134.377 148.766 134.674 148.43 134.674 147.953C134.674 147.426 134.256 147.094 133.706 147.094C133.124 147.094 132.749 147.457 132.752 148.031H131.784C131.78 146.961 132.585 146.266 133.713 146.266C134.87 146.266 135.647 146.957 135.651 147.906C135.647 148.543 135.342 149.059 134.229 150.109L133.221 151.109V151.148H135.737V152H131.807ZM137.608 151.445L136.952 153.633H136.21L136.616 151.445H137.608ZM140.37 152.078C139.108 152.078 138.218 151.406 138.222 150.484C138.218 149.766 138.753 149.18 139.432 149.07V149.039C138.839 148.914 138.436 148.398 138.432 147.781C138.436 146.906 139.253 146.266 140.37 146.266C141.479 146.266 142.3 146.906 142.3 147.781C142.3 148.402 141.886 148.914 141.3 149.039V149.07C141.975 149.18 142.515 149.766 142.518 150.484C142.515 151.406 141.62 152.078 140.37 152.078ZM139.268 150.391C139.265 150.914 139.698 151.273 140.37 151.273C141.034 151.273 141.468 150.914 141.472 150.391C141.468 149.859 141.007 149.465 140.37 149.469C139.733 149.465 139.265 149.855 139.268 150.391ZM139.425 147.875C139.429 148.371 139.819 148.711 140.37 148.711C140.913 148.711 141.307 148.371 141.307 147.875C141.307 147.395 140.925 147.062 140.37 147.062C139.804 147.062 139.429 147.395 139.425 147.875ZM145.288 152.078C143.925 152.078 143.112 151.023 143.116 149.172C143.112 147.328 143.933 146.266 145.288 146.266C146.644 146.266 147.46 147.328 147.46 149.172C147.46 151.027 146.647 152.078 145.288 152.078ZM144.14 149.172C144.14 150.531 144.577 151.223 145.288 151.227C145.995 151.223 146.437 150.531 146.437 149.172C146.433 147.824 145.995 147.113 145.288 147.109C144.581 147.113 144.144 147.824 144.14 149.172ZM150.237 152.078C148.874 152.078 148.062 151.023 148.066 149.172C148.062 147.328 148.882 146.266 150.237 146.266C151.593 146.266 152.409 147.328 152.409 149.172C152.409 151.027 151.597 152.078 150.237 152.078ZM149.089 149.172C149.089 150.531 149.527 151.223 150.237 151.227C150.945 151.223 151.386 150.531 151.386 149.172C151.382 147.824 150.945 147.113 150.237 147.109C149.53 147.113 149.093 147.824 149.089 149.172ZM154.015 151.445L153.359 153.633H152.617L153.023 151.445H154.015ZM156.792 152.078C155.429 152.078 154.617 151.023 154.621 149.172C154.617 147.328 155.437 146.266 156.792 146.266C158.148 146.266 158.964 147.328 158.964 149.172C158.964 151.027 158.152 152.078 156.792 152.078ZM155.644 149.172C155.644 150.531 156.082 151.223 156.792 151.227C157.5 151.223 157.941 150.531 157.941 149.172C157.937 147.824 157.5 147.113 156.792 147.109C156.085 147.113 155.648 147.824 155.644 149.172ZM161.742 152.078C160.379 152.078 159.566 151.023 159.57 149.172C159.566 147.328 160.386 146.266 161.742 146.266C163.097 146.266 163.914 147.328 163.914 149.172C163.914 151.027 163.101 152.078 161.742 152.078ZM160.593 149.172C160.593 150.531 161.031 151.223 161.742 151.227C162.449 151.223 162.89 150.531 162.89 149.172C162.886 147.824 162.449 147.113 161.742 147.109C161.035 147.113 160.597 147.824 160.593 149.172ZM166.691 152.078C165.328 152.078 164.515 151.023 164.519 149.172C164.515 147.328 165.336 146.266 166.691 146.266C168.047 146.266 168.863 147.328 168.863 149.172C168.863 151.027 168.051 152.078 166.691 152.078ZM165.543 149.172C165.543 150.531 165.98 151.223 166.691 151.227C167.398 151.223 167.84 150.531 167.84 149.172C167.836 147.824 167.398 147.113 166.691 147.109C165.984 147.113 165.547 147.824 165.543 149.172ZM175.242 145.641V150.984H174.367V150.367H172.984V149.758H174.367V145.641H175.242ZM169.289 148.812C170.59 148.805 172.344 148.793 173.844 148.602L173.891 149.227C173.309 149.324 172.707 149.387 172.109 149.43V150.789H171.242V149.477C170.582 149.504 169.953 149.508 169.398 149.508L169.289 148.812ZM169.828 147.148C169.828 146.402 170.547 145.895 171.594 145.898C172.621 145.895 173.344 146.402 173.352 147.148C173.344 147.906 172.621 148.387 171.594 148.391C170.547 148.387 169.828 147.906 169.828 147.148ZM170.227 152.555V150.469H171.094V151.852H175.406V152.555H170.227ZM170.648 147.148C170.648 147.531 171.027 147.754 171.594 147.758C172.133 147.754 172.52 147.531 172.523 147.148C172.52 146.766 172.133 146.535 171.594 146.539C171.027 146.535 170.648 146.766 170.648 147.148Z" fill="#586CE1"/>
<rect x="123" y="122" width="53" height="12" fill="white"/>
<rect x="123" y="144" width="53" height="12" fill="white"/>
</svg>
