<svg width="264" height="210" viewBox="0 0 264 210" fill="none" xmlns="http://www.w3.org/2000/svg">
<rect x="30.482" y="0.482032" width="203.036" height="199.036" rx="9.1586" fill="white"/>
<rect x="30.482" y="0.482032" width="203.036" height="199.036" rx="9.1586" stroke="#CCD4DE" stroke-width="0.964064"/>
<rect x="50" y="32" width="164" height="164" rx="6" fill="#E1E9FE"/>
<path d="M61.9688 43.0625C61.9727 44.8945 60.7266 46.168 58.625 46.7109L58.2812 46.0391C59.9258 45.6133 60.8906 44.7812 61.0352 43.75H58.6875V43.0625H61.9688ZM59.4531 49.6016V46.8984H64.1172V49.6016H59.4531ZM60.3125 48.9141H63.2656V47.5859H60.3125V48.9141ZM63.2422 46.5938V42.6406H64.1172V46.5938H63.2422ZM67.5119 44.3281C67.5041 45.5898 68.1369 46.8633 69.2306 47.3906L68.6994 48.0859C67.9338 47.6992 67.383 46.9531 67.0822 46.0547C66.7736 47.0156 66.1955 47.8125 65.3869 48.2188L64.8556 47.5234C65.9923 46.9844 66.6408 45.6328 66.6447 44.3281V43.2031H67.5119V44.3281ZM69.6525 49.6953V42.6328H70.5197V45.3984H71.6056V46.1406H70.5197V49.6953H69.6525ZM77.5081 43.2812V43.9609C77.5003 44.8398 77.5003 45.8203 77.2269 47.2969L76.3519 47.2031C76.6292 45.8281 76.6292 44.8242 76.6331 43.9766H72.4144V43.2812H77.5081ZM71.7425 48.7812V48.0703H74.1175V45.6172H74.9769V48.0703H78.18V48.7812H71.7425ZM84.3638 42.6328V46.6094H83.5044V42.6328H84.3638ZM78.9106 46.2031V43.0469H79.7856V45.4688C80.8911 45.4609 81.8403 45.3789 82.8403 45.1641L82.9497 45.8828C81.8247 46.1133 80.7622 46.1953 79.5122 46.2031H78.9106ZM79.6997 49.6016V46.9141H84.3638V49.6016H79.6997ZM80.5513 48.9141H83.52V47.5938H80.5513V48.9141ZM92.7 48.8516V49.5547H87.7859V47.5156H88.6531V48.8516H92.7ZM86.9891 47.0391V46.3359H89.7703V45.2734H90.6297V46.3359H93.4266V47.0391H86.9891ZM87.3563 45.0312C88.8055 44.8164 89.7547 43.9688 89.7547 43.0781V42.8281H90.6375V43.0781C90.6375 44 91.5672 44.832 93.0438 45.0312L92.7 45.7109C91.5477 45.5195 90.6375 44.9766 90.1922 44.2031C89.7469 44.9727 88.8445 45.5273 87.7 45.7109L87.3563 45.0312ZM97.1884 43.7578V44.4531H93.7275V43.7578H95.04V42.8359H95.8994V43.7578H97.1884ZM93.9306 46.4688C93.9228 45.5078 94.5752 44.8242 95.4697 44.8281C96.3681 44.8242 97.0088 45.5078 97.0088 46.4688C97.0088 47.4492 96.3681 48.1328 95.4697 48.1328C94.5752 48.1328 93.9228 47.4492 93.9306 46.4688ZM94.6963 46.4688C94.6923 47.0391 95.0127 47.3945 95.4697 47.3906C95.9228 47.3945 96.2431 47.0391 96.2431 46.4688C96.2431 45.9141 95.9228 45.5469 95.4697 45.5469C95.0127 45.5469 94.6923 45.9141 94.6963 46.4688ZM97.4853 49.375V42.7812H98.2978V45.5391H98.9853V42.6328H99.8134V49.6953H98.9853V46.2422H98.2978V49.375H97.4853ZM103.021 44.3281C103.013 45.5898 103.646 46.8633 104.739 47.3906L104.208 48.0859C103.443 47.6992 102.892 46.9531 102.591 46.0547C102.282 47.0156 101.704 47.8125 100.896 48.2188L100.364 47.5234C101.501 46.9844 102.15 45.6328 102.153 44.3281V43.2031H103.021V44.3281ZM105.161 49.6953V42.6328H106.028V45.3984H107.114V46.1406H106.028V49.6953H105.161ZM113.165 42.6328V46.8281H112.298V45.1016H111.095V44.3906H112.298V42.6328H113.165ZM107.228 46.125C108.365 45.7344 108.962 44.7852 108.962 43.8516V43.7969H107.493V43.0938H111.306V43.7969H109.845V43.8438C109.845 44.7031 110.415 45.5703 111.509 45.9375L111.072 46.625C110.286 46.3594 109.732 45.8203 109.419 45.1562C109.111 45.9062 108.521 46.5156 107.681 46.8125L107.228 46.125ZM108.376 48.3516C108.368 47.5039 109.286 47.0078 110.775 47.0078C112.271 47.0078 113.185 47.5039 113.189 48.3516C113.185 49.1992 112.271 49.6914 110.775 49.6953C109.286 49.6914 108.368 49.1992 108.376 48.3516ZM109.236 48.3516C109.232 48.7891 109.794 49.0273 110.775 49.0234C111.763 49.0273 112.322 48.7891 112.322 48.3516C112.322 47.9102 111.763 47.6719 110.775 47.6719C109.794 47.6719 109.232 47.9102 109.236 48.3516ZM121.408 42.9766V43.5234C121.412 44.0742 121.412 44.6992 121.236 45.5312H122.197V46.2344H115.744V45.5312H120.357C120.525 44.7656 120.541 44.1875 120.541 43.6719H116.541V42.9766H121.408ZM116.517 49.6094V47.0547H121.4V49.6094H116.517ZM117.369 48.9062H120.541V47.7344H117.369V48.9062ZM124.162 43.0703C125.095 43.0664 125.787 43.7695 125.787 44.7734C125.787 45.7812 125.095 46.4648 124.162 46.4688C123.22 46.4648 122.541 45.7812 122.545 44.7734C122.541 43.7695 123.22 43.0664 124.162 43.0703ZM123.326 44.7734C123.318 45.3594 123.67 45.7422 124.162 45.7344C124.646 45.7422 124.998 45.3594 124.998 44.7734C124.998 44.1836 124.646 43.8086 124.162 43.8125C123.67 43.8086 123.318 44.1836 123.326 44.7734ZM123.701 47.8828V47.1875H128.537V49.6953H127.67V47.8828H123.701ZM126.209 46.8047V42.7734H127.013V44.3906H127.709V42.6406H128.537V46.8516H127.709V45.0859H127.013V46.8047H126.209Z" fill="#1B1C23"/>
<path d="M58.4777 60V59.5312L59.9484 58.0488C60.4143 57.5654 60.6457 57.2959 60.6457 56.9238C60.6457 56.5049 60.3059 56.2383 59.8605 56.2383C59.3889 56.2383 59.09 56.5371 59.0871 56.9883H58.4777C58.4719 56.2119 59.0637 55.6992 59.8723 55.6992C60.6896 55.6992 61.2551 56.2178 61.2609 56.9062C61.2551 57.3809 61.0324 57.7588 60.2355 58.541L59.3742 59.4141V59.4492H61.3312V60H58.4777ZM63.4027 60.0586C62.4212 60.0586 61.8441 59.2676 61.8441 57.8789C61.8441 56.499 62.4271 55.6992 63.4027 55.6992C64.3753 55.6992 64.9583 56.499 64.9612 57.8789C64.9583 59.2676 64.3841 60.0586 63.4027 60.0586ZM62.4886 57.8789C62.4857 58.9365 62.8284 59.502 63.4027 59.502C63.9739 59.502 64.3167 58.9365 64.3167 57.8789C64.3167 56.8242 63.971 56.2471 63.4027 56.2441C62.8314 56.2471 62.4886 56.8242 62.4886 57.8789ZM65.5092 60V59.5312L66.9799 58.0488C67.4457 57.5654 67.6772 57.2959 67.6772 56.9238C67.6772 56.5049 67.3373 56.2383 66.892 56.2383C66.4204 56.2383 66.1215 56.5371 66.1186 56.9883H65.5092C65.5034 56.2119 66.0952 55.6992 66.9037 55.6992C67.7211 55.6992 68.2866 56.2178 68.2924 56.9062C68.2866 57.3809 68.0639 57.7588 67.267 58.541L66.4057 59.4141V59.4492H68.3627V60H65.5092ZM68.7701 59.1738V58.6523L70.6451 55.7578H71.442V58.6289H72.022V59.1738H71.442V60H70.8326V59.1738H68.7701ZM69.4498 58.6289H70.8326V56.5254H70.7857L69.4498 58.5938V58.6289ZM76.7477 55.2539V59.1328H76.1911V57.3457H74.7497V56.9004H76.1911V56.3496H74.7497V55.9043H76.1911V55.2539H76.7477ZM72.6813 58.3828V55.6172H73.2321V57.9141C73.9294 57.9111 74.5915 57.873 75.3415 57.7324L75.4001 58.1895C74.568 58.3447 73.8561 58.377 73.0856 58.3828H72.6813ZM73.3259 60.3867V58.793H73.8884V59.9355H76.8825V60.3867H73.3259ZM80.5741 55.7578V60H79.9237V56.4023H79.9003L78.8866 57.0645V56.4492L79.9413 55.7578H80.5741ZM83.0088 60.0586C82.0274 60.0586 81.4502 59.2676 81.4502 57.8789C81.4502 56.499 82.0332 55.6992 83.0088 55.6992C83.9815 55.6992 84.5645 56.499 84.5674 57.8789C84.5645 59.2676 83.9903 60.0586 83.0088 60.0586ZM82.0948 57.8789C82.0918 58.9365 82.4346 59.502 83.0088 59.502C83.5801 59.502 83.9229 58.9365 83.9229 57.8789C83.9229 56.8242 83.5772 56.2471 83.0088 56.2441C82.4375 56.2471 82.0948 56.8242 82.0948 57.8789ZM89.299 55.2539V58.3301H88.7423V58.0781H87.717V57.7266H88.7423V55.2539H89.299ZM84.922 57.1875C85.9386 57.1904 87.2218 57.1787 88.3556 57.0586L88.3849 57.416C87.8898 57.4863 87.3742 57.5273 86.8732 57.5537V58.3418H86.3224V57.5742C85.8507 57.5889 85.3966 57.5889 84.9865 57.5859L84.922 57.1875ZM85.3146 56.1328C85.3117 55.6523 85.8302 55.3418 86.6271 55.3418C87.4093 55.3418 87.9338 55.6523 87.9396 56.1328C87.9338 56.6221 87.4093 56.918 86.6271 56.918C85.8302 56.918 85.3117 56.6221 85.3146 56.1328ZM85.7072 58.8926V58.5059H89.299V59.6367H86.2755V60.041H89.4572V60.4453H85.7306V59.2676H88.7482V58.8926H85.7072ZM85.8361 56.1328C85.8332 56.3818 86.1437 56.543 86.6271 56.543C87.1046 56.543 87.4123 56.3818 87.4123 56.1328C87.4123 55.8809 87.1046 55.7168 86.6271 55.7168C86.1437 55.7168 85.8332 55.8809 85.8361 56.1328ZM93.1371 55.7578V60H92.4867V56.4023H92.4633L91.4496 57.0645V56.4492L92.5043 55.7578H93.1371ZM95.6304 60.0586C94.8452 60.0527 94.0249 59.5869 94.0249 58.0195C94.0279 56.543 94.6665 55.6992 95.6831 55.6992C96.4654 55.6992 97.0073 56.1855 97.107 56.8594H96.4683C96.3833 56.5137 96.1109 56.2646 95.6831 56.2617C95.0269 56.2646 94.646 56.833 94.646 57.791H94.6929C94.9243 57.4307 95.3228 57.2197 95.7827 57.2168C96.5386 57.2197 97.148 57.7998 97.148 58.6113C97.148 59.4346 96.5415 60.0645 95.6304 60.0586ZM94.7222 58.6289C94.7251 59.1006 95.103 59.5166 95.6245 59.5195C96.1372 59.5166 96.521 59.1182 96.521 58.623C96.521 58.1367 96.1519 57.7412 95.6421 57.7441C95.1236 57.7412 94.728 58.1572 94.7222 58.6289ZM99.0202 55.4238C99.8112 55.4297 100.394 55.9131 100.397 56.6016C100.394 57.293 99.8112 57.7734 99.0202 57.7734C98.2204 57.7734 97.6403 57.293 97.6373 56.6016C97.6403 55.9131 98.2204 55.4297 99.0202 55.4238ZM98.1823 56.6016C98.1793 57.0352 98.5368 57.3223 99.0202 57.3223C99.5006 57.3223 99.858 57.0352 99.858 56.6016C99.858 56.1738 99.5006 55.8867 99.0202 55.8926C98.5368 55.8867 98.1793 56.1738 98.1823 56.6016ZM98.4342 58.6055V58.1602H101.885V59.4844H98.9909V59.9883H102.061V60.4336H98.4518V59.0684H101.335V58.6055H98.4342ZM101.329 57.9199V55.248H101.885V57.9199H101.329ZM105.776 56.1914C105.773 56.8623 106.239 57.498 107.042 57.7676L106.761 58.2012C106.166 57.9961 105.729 57.5859 105.501 57.0703C105.272 57.6357 104.815 58.084 104.2 58.3008L103.901 57.8672C104.722 57.5889 105.217 56.9092 105.22 56.1855V56.0449H104.065V55.5938H106.907V56.0449H105.776V56.1914ZM104.599 59.1211V58.6699H108.067V60.498H107.511V59.1211H104.599ZM107.511 58.4121V55.248H108.067V56.5957H108.829V57.0645H108.067V58.4121H107.511ZM110.871 56.0332C110.868 56.7686 111.346 57.4248 112.143 57.6855L111.838 58.1191C111.261 57.9082 110.836 57.5039 110.607 56.9766C110.382 57.5771 109.925 58.0488 109.289 58.2773L108.99 57.832C109.828 57.5449 110.314 56.8447 110.32 56.0566V55.541H110.871V56.0332ZM109.852 59.4961C109.849 58.8604 110.522 58.4912 111.627 58.4941C112.726 58.4912 113.399 58.8604 113.402 59.4961C113.399 60.1289 112.726 60.4893 111.627 60.4863C110.522 60.4893 109.849 60.1289 109.852 59.4961ZM110.402 59.4961C110.399 59.8447 110.856 60.0498 111.627 60.0469C112.392 60.0498 112.849 59.8447 112.852 59.4961C112.849 59.1357 112.392 58.9277 111.627 58.9277C110.856 58.9277 110.399 59.1357 110.402 59.4961ZM111.721 56.7715V56.3145H112.828V55.248H113.385V58.3477H112.828V56.7715H111.721Z" fill="#707789"/>
<path d="M64.6719 77.2109V77.9141H58.2344V77.2109H61.0156V76.4609H61.875V77.2109H64.6719ZM58.5391 76.1406C60 76.043 60.832 75.5586 60.9453 74.9766H58.8672V74.2891H61.0156V73.6484H61.875V74.2891H64.0391V74.9766H61.9414C62.0508 75.5586 62.8867 76.043 64.3516 76.1406L64.0859 76.8047C62.8242 76.707 61.8828 76.3125 61.4453 75.7031C61 76.3125 60.0625 76.707 58.8047 76.8047L58.5391 76.1406ZM58.9844 79.5C58.9844 78.7266 59.8984 78.3086 61.4453 78.3047C62.9844 78.3086 63.8867 78.7266 63.8906 79.5C63.8867 80.2695 62.9844 80.6875 61.4453 80.6875C59.8984 80.6875 58.9844 80.2695 58.9844 79.5ZM59.8672 79.5C59.8633 79.8594 60.4062 80.0391 61.4453 80.0391C62.4648 80.0391 63.0156 79.8594 63.0234 79.5C63.0156 79.1367 62.4648 78.9531 61.4453 78.9531C60.4062 78.9531 59.8633 79.1367 59.8672 79.5ZM72.4378 79.8516V80.5547H67.5238V78.5156H68.3909V79.8516H72.4378ZM66.7269 78.0391V77.3359H69.5081V76.2734H70.3675V77.3359H73.1644V78.0391H66.7269ZM67.0941 76.0312C68.5433 75.8164 69.4925 74.9688 69.4925 74.0781V73.8281H70.3753V74.0781C70.3753 75 71.305 75.832 72.7816 76.0312L72.4378 76.7109C71.2855 76.5195 70.3753 75.9766 69.93 75.2031C69.4847 75.9727 68.5823 76.5273 67.4378 76.7109L67.0941 76.0312ZM76.9263 74.7578V75.4531H73.4653V74.7578H74.7778V73.8359H75.6372V74.7578H76.9263ZM73.6684 77.4688C73.6606 76.5078 74.313 75.8242 75.2075 75.8281C76.1059 75.8242 76.7466 76.5078 76.7466 77.4688C76.7466 78.4492 76.1059 79.1328 75.2075 79.1328C74.313 79.1328 73.6606 78.4492 73.6684 77.4688ZM74.4341 77.4688C74.4302 78.0391 74.7505 78.3945 75.2075 78.3906C75.6606 78.3945 75.9809 78.0391 75.9809 77.4688C75.9809 76.9141 75.6606 76.5469 75.2075 76.5469C74.7505 76.5469 74.4302 76.9141 74.4341 77.4688ZM77.2231 80.375V73.7812H78.0356V76.5391H78.7231V73.6328H79.5513V80.6953H78.7231V77.2422H78.0356V80.375H77.2231ZM82.7584 75.3281C82.7506 76.5898 83.3834 77.8633 84.4772 78.3906L83.9459 79.0859C83.1803 78.6992 82.6295 77.9531 82.3288 77.0547C82.0202 78.0156 81.442 78.8125 80.6334 79.2188L80.1022 78.5234C81.2389 77.9844 81.8873 76.6328 81.8913 75.3281V74.2031H82.7584V75.3281ZM84.8991 80.6953V73.6328H85.7663V76.3984H86.8522V77.1406H85.7663V80.6953H84.8991ZM92.9031 73.6328V77.8281H92.0359V76.1016H90.8328V75.3906H92.0359V73.6328H92.9031ZM86.9656 77.125C88.1023 76.7344 88.7 75.7852 88.7 74.8516V74.7969H87.2313V74.0938H91.0438V74.7969H89.5828V74.8438C89.5828 75.7031 90.1531 76.5703 91.2469 76.9375L90.8094 77.625C90.0242 77.3594 89.4695 76.8203 89.157 76.1562C88.8484 76.9062 88.2586 77.5156 87.4188 77.8125L86.9656 77.125ZM88.1141 79.3516C88.1063 78.5039 89.0242 78.0078 90.5125 78.0078C92.0086 78.0078 92.9227 78.5039 92.9266 79.3516C92.9227 80.1992 92.0086 80.6914 90.5125 80.6953C89.0242 80.6914 88.1063 80.1992 88.1141 79.3516ZM88.9734 79.3516C88.9695 79.7891 89.532 80.0273 90.5125 80.0234C91.5008 80.0273 92.0594 79.7891 92.0594 79.3516C92.0594 78.9102 91.5008 78.6719 90.5125 78.6719C89.532 78.6719 88.9695 78.9102 88.9734 79.3516ZM101.146 73.9766V74.5234C101.15 75.0742 101.15 75.6992 100.974 76.5312H101.935V77.2344H95.4816V76.5312H100.095C100.263 75.7656 100.278 75.1875 100.278 74.6719H96.2784V73.9766H101.146ZM96.255 80.6094V78.0547H101.138V80.6094H96.255ZM97.1066 79.9062H100.278V78.7344H97.1066V79.9062ZM103.9 74.0703C104.833 74.0664 105.525 74.7695 105.525 75.7734C105.525 76.7812 104.833 77.4648 103.9 77.4688C102.958 77.4648 102.279 76.7812 102.283 75.7734C102.279 74.7695 102.958 74.0664 103.9 74.0703ZM103.064 75.7734C103.056 76.3594 103.408 76.7422 103.9 76.7344C104.384 76.7422 104.736 76.3594 104.736 75.7734C104.736 75.1836 104.384 74.8086 103.9 74.8125C103.408 74.8086 103.056 75.1836 103.064 75.7734ZM103.439 78.8828V78.1875H108.275V80.6953H107.408V78.8828H103.439ZM105.947 77.8047V73.7734H106.751V75.3906H107.447V73.6406H108.275V77.8516H107.447V76.0859H106.751V77.8047H105.947Z" fill="#586CE1"/>
<path d="M161.807 80V79.2656L163.807 77.3359C164.377 76.7656 164.674 76.4297 164.674 75.9531C164.674 75.4258 164.256 75.0938 163.706 75.0938C163.124 75.0938 162.749 75.457 162.752 76.0312H161.784C161.78 74.9609 162.585 74.2656 163.713 74.2656C164.87 74.2656 165.647 74.957 165.651 75.9062C165.647 76.543 165.342 77.0586 164.229 78.1094L163.221 79.1094V79.1484H165.737V80H161.807ZM167.608 79.4453L166.952 81.6328H166.21L166.616 79.4453H167.608ZM170.37 80.0781C169.108 80.0781 168.218 79.4062 168.222 78.4844C168.218 77.7656 168.753 77.1797 169.432 77.0703V77.0391C168.839 76.9141 168.436 76.3984 168.432 75.7812C168.436 74.9062 169.253 74.2656 170.37 74.2656C171.479 74.2656 172.3 74.9062 172.3 75.7812C172.3 76.4023 171.886 76.9141 171.3 77.0391V77.0703C171.975 77.1797 172.515 77.7656 172.518 78.4844C172.515 79.4062 171.62 80.0781 170.37 80.0781ZM169.268 78.3906C169.265 78.9141 169.698 79.2734 170.37 79.2734C171.034 79.2734 171.468 78.9141 171.472 78.3906C171.468 77.8594 171.007 77.4648 170.37 77.4688C169.733 77.4648 169.265 77.8555 169.268 78.3906ZM169.425 75.875C169.429 76.3711 169.819 76.7109 170.37 76.7109C170.913 76.7109 171.307 76.3711 171.307 75.875C171.307 75.3945 170.925 75.0625 170.37 75.0625C169.804 75.0625 169.429 75.3945 169.425 75.875ZM175.288 80.0781C173.925 80.0781 173.112 79.0234 173.116 77.1719C173.112 75.3281 173.933 74.2656 175.288 74.2656C176.644 74.2656 177.46 75.3281 177.46 77.1719C177.46 79.0273 176.647 80.0781 175.288 80.0781ZM174.14 77.1719C174.14 78.5312 174.577 79.2227 175.288 79.2266C175.995 79.2227 176.437 78.5312 176.437 77.1719C176.433 75.8242 175.995 75.1133 175.288 75.1094C174.581 75.1133 174.144 75.8242 174.14 77.1719ZM180.237 80.0781C178.874 80.0781 178.062 79.0234 178.066 77.1719C178.062 75.3281 178.882 74.2656 180.237 74.2656C181.593 74.2656 182.409 75.3281 182.409 77.1719C182.409 79.0273 181.597 80.0781 180.237 80.0781ZM179.089 77.1719C179.089 78.5312 179.527 79.2227 180.237 79.2266C180.945 79.2227 181.386 78.5312 181.386 77.1719C181.382 75.8242 180.945 75.1133 180.237 75.1094C179.53 75.1133 179.093 75.8242 179.089 77.1719ZM184.015 79.4453L183.359 81.6328H182.617L183.023 79.4453H184.015ZM186.792 80.0781C185.429 80.0781 184.617 79.0234 184.621 77.1719C184.617 75.3281 185.437 74.2656 186.792 74.2656C188.148 74.2656 188.964 75.3281 188.964 77.1719C188.964 79.0273 188.152 80.0781 186.792 80.0781ZM185.644 77.1719C185.644 78.5312 186.082 79.2227 186.792 79.2266C187.5 79.2227 187.941 78.5312 187.941 77.1719C187.937 75.8242 187.5 75.1133 186.792 75.1094C186.085 75.1133 185.648 75.8242 185.644 77.1719ZM191.742 80.0781C190.379 80.0781 189.566 79.0234 189.57 77.1719C189.566 75.3281 190.386 74.2656 191.742 74.2656C193.097 74.2656 193.914 75.3281 193.914 77.1719C193.914 79.0273 193.101 80.0781 191.742 80.0781ZM190.593 77.1719C190.593 78.5312 191.031 79.2227 191.742 79.2266C192.449 79.2227 192.89 78.5312 192.89 77.1719C192.886 75.8242 192.449 75.1133 191.742 75.1094C191.035 75.1133 190.597 75.8242 190.593 77.1719ZM196.691 80.0781C195.328 80.0781 194.515 79.0234 194.519 77.1719C194.515 75.3281 195.336 74.2656 196.691 74.2656C198.047 74.2656 198.863 75.3281 198.863 77.1719C198.863 79.0273 198.051 80.0781 196.691 80.0781ZM195.543 77.1719C195.543 78.5312 195.98 79.2227 196.691 79.2266C197.398 79.2227 197.84 78.5312 197.84 77.1719C197.836 75.8242 197.398 75.1133 196.691 75.1094C195.984 75.1133 195.547 75.8242 195.543 77.1719ZM205.242 73.6406V78.9844H204.367V78.3672H202.984V77.7578H204.367V73.6406H205.242ZM199.289 76.8125C200.59 76.8047 202.344 76.793 203.844 76.6016L203.891 77.2266C203.309 77.3242 202.707 77.3867 202.109 77.4297V78.7891H201.242V77.4766C200.582 77.5039 199.953 77.5078 199.398 77.5078L199.289 76.8125ZM199.828 75.1484C199.828 74.4023 200.547 73.8945 201.594 73.8984C202.621 73.8945 203.344 74.4023 203.352 75.1484C203.344 75.9062 202.621 76.3867 201.594 76.3906C200.547 76.3867 199.828 75.9062 199.828 75.1484ZM200.227 80.5547V78.4688H201.094V79.8516H205.406V80.5547H200.227ZM200.648 75.1484C200.648 75.5312 201.027 75.7539 201.594 75.7578C202.133 75.7539 202.52 75.5312 202.523 75.1484C202.52 74.7656 202.133 74.5352 201.594 74.5391C201.027 74.5352 200.648 74.7656 200.648 75.1484Z" fill="#586CE1"/>
<line x1="58" y1="91.75" x2="206" y2="91.75" stroke="#5A5D6B" stroke-width="0.5" stroke-dasharray="2 2"/>
<path d="M60.5547 102.984C61.6094 102.98 62.3711 103.57 62.375 104.438C62.3711 105.297 61.6094 105.891 60.5547 105.883C59.5039 105.891 58.7461 105.297 58.75 104.438C58.7461 103.57 59.5039 102.98 60.5547 102.984ZM58.25 106.43C59.543 106.43 61.3281 106.402 62.8594 106.172L62.9141 106.727C62.2734 106.848 61.6133 106.922 60.9688 106.965V109.445H60.2266V107.008C59.5469 107.039 58.9062 107.043 58.3516 107.047L58.25 106.43ZM59.4688 104.438C59.4609 104.945 59.918 105.281 60.5547 105.273C61.207 105.281 61.6641 104.945 61.6641 104.438C61.6641 103.926 61.207 103.582 60.5547 103.586C59.918 103.582 59.4609 103.926 59.4688 104.438ZM63.3438 109.664V102.672H64.0781V109.664H63.3438ZM67.4494 104.727C67.4455 105.832 68.1759 107.066 69.2384 107.57L68.8166 108.148C68.0314 107.773 67.4064 106.984 67.09 106.07C66.7697 107.066 66.1134 107.93 65.3166 108.328L64.8791 107.742C65.9416 107.23 66.7111 105.91 66.715 104.727V103.984H65.1369V103.367H68.9728V103.984H67.4494V104.727ZM69.7228 109.664V102.664H70.465V105.438H71.59V106.062H70.465V109.664H69.7228ZM78.1722 108.203V108.828H71.7659V108.203H73.5159V106.969H72.5472V104.742H76.6566V103.766H72.5316V103.156H77.3909V105.344H73.2816V106.359H77.555V106.969H76.4925V108.203H78.1722ZM74.2347 108.203H75.7659V106.969H74.2347V108.203Z" fill="#707789"/>
<path d="M160.545 103.344V109H159.522V104.336H159.491L158.17 105.18V104.25L159.569 103.344H160.545ZM161.76 109V108.266L163.76 106.336C164.331 105.766 164.627 105.43 164.627 104.953C164.627 104.426 164.21 104.094 163.659 104.094C163.077 104.094 162.702 104.457 162.706 105.031H161.737C161.733 103.961 162.538 103.266 163.667 103.266C164.823 103.266 165.6 103.957 165.604 104.906C165.6 105.543 165.295 106.059 164.182 107.109L163.174 108.109V108.148H165.69V109H161.76ZM167.561 108.445L166.905 110.633H166.163L166.569 108.445H167.561ZM170.339 109.078C168.975 109.078 168.163 108.023 168.167 106.172C168.163 104.328 168.983 103.266 170.339 103.266C171.694 103.266 172.511 104.328 172.511 106.172C172.511 108.027 171.698 109.078 170.339 109.078ZM169.19 106.172C169.19 107.531 169.628 108.223 170.339 108.227C171.046 108.223 171.487 107.531 171.487 106.172C171.483 104.824 171.046 104.113 170.339 104.109C169.632 104.113 169.194 104.824 169.19 106.172ZM175.288 109.078C173.925 109.078 173.112 108.023 173.116 106.172C173.112 104.328 173.933 103.266 175.288 103.266C176.644 103.266 177.46 104.328 177.46 106.172C177.46 108.027 176.647 109.078 175.288 109.078ZM174.14 106.172C174.14 107.531 174.577 108.223 175.288 108.227C175.995 108.223 176.437 107.531 176.437 106.172C176.433 104.824 175.995 104.113 175.288 104.109C174.581 104.113 174.144 104.824 174.14 106.172ZM180.237 109.078C178.874 109.078 178.062 108.023 178.066 106.172C178.062 104.328 178.882 103.266 180.237 103.266C181.593 103.266 182.409 104.328 182.409 106.172C182.409 108.027 181.597 109.078 180.237 109.078ZM179.089 106.172C179.089 107.531 179.527 108.223 180.237 108.227C180.945 108.223 181.386 107.531 181.386 106.172C181.382 104.824 180.945 104.113 180.237 104.109C179.53 104.113 179.093 104.824 179.089 106.172ZM184.015 108.445L183.359 110.633H182.617L183.023 108.445H184.015ZM186.792 109.078C185.429 109.078 184.617 108.023 184.621 106.172C184.617 104.328 185.437 103.266 186.792 103.266C188.148 103.266 188.964 104.328 188.964 106.172C188.964 108.027 188.152 109.078 186.792 109.078ZM185.644 106.172C185.644 107.531 186.082 108.223 186.792 108.227C187.5 108.223 187.941 107.531 187.941 106.172C187.937 104.824 187.5 104.113 186.792 104.109C186.085 104.113 185.648 104.824 185.644 106.172ZM191.742 109.078C190.379 109.078 189.566 108.023 189.57 106.172C189.566 104.328 190.386 103.266 191.742 103.266C193.097 103.266 193.914 104.328 193.914 106.172C193.914 108.027 193.101 109.078 191.742 109.078ZM190.593 106.172C190.593 107.531 191.031 108.223 191.742 108.227C192.449 108.223 192.89 107.531 192.89 106.172C192.886 104.824 192.449 104.113 191.742 104.109C191.035 104.113 190.597 104.824 190.593 106.172ZM196.691 109.078C195.328 109.078 194.515 108.023 194.519 106.172C194.515 104.328 195.336 103.266 196.691 103.266C198.047 103.266 198.863 104.328 198.863 106.172C198.863 108.027 198.051 109.078 196.691 109.078ZM195.543 106.172C195.543 107.531 195.98 108.223 196.691 108.227C197.398 108.223 197.84 107.531 197.84 106.172C197.836 104.824 197.398 104.113 196.691 104.109C195.984 104.113 195.547 104.824 195.543 106.172ZM205.242 102.641V107.984H204.367V107.367H202.984V106.758H204.367V102.641H205.242ZM199.289 105.812C200.59 105.805 202.344 105.793 203.844 105.602L203.891 106.227C203.309 106.324 202.707 106.387 202.109 106.43V107.789H201.242V106.477C200.582 106.504 199.953 106.508 199.398 106.508L199.289 105.812ZM199.828 104.148C199.828 103.402 200.547 102.895 201.594 102.898C202.621 102.895 203.344 103.402 203.352 104.148C203.344 104.906 202.621 105.387 201.594 105.391C200.547 105.387 199.828 104.906 199.828 104.148ZM200.227 109.555V107.469H201.094V108.852H205.406V109.555H200.227ZM200.648 104.148C200.648 104.531 201.027 104.754 201.594 104.758C202.133 104.754 202.52 104.531 202.523 104.148C202.52 103.766 202.133 103.535 201.594 103.539C201.027 103.535 200.648 103.766 200.648 104.148Z" fill="#5A5D6B"/>
<path d="M64.2812 118.414V119.008H58.5859V118.414H61.0781V117.633H61.8125V118.414H64.2812ZM58.2578 122.742V122.141H64.6641V122.742H63.0469V124.672H62.2969V122.742H60.6094V124.672H59.8672V122.742H58.2578ZM59.1172 120.539C59.1133 119.785 59.9883 119.367 61.4453 119.367C62.8984 119.367 63.7734 119.785 63.7734 120.539C63.7734 121.289 62.8984 121.711 61.4453 121.711C59.9883 121.711 59.1133 121.289 59.1172 120.539ZM59.8828 120.539C59.8828 120.93 60.4414 121.145 61.4453 121.141C62.4453 121.145 63.0039 120.93 63.0078 120.539C63.0039 120.145 62.4453 119.934 61.4453 119.93C60.4414 119.934 59.8828 120.145 59.8828 120.539ZM66.9494 117.984C67.8713 117.977 68.5861 118.512 68.7384 119.297H70.1056V117.664H70.8478V121.422H70.1056V119.906H68.7423C68.5978 120.711 67.8791 121.25 66.9494 121.25C65.8791 121.25 65.1095 120.574 65.1134 119.609C65.1095 118.656 65.8791 117.977 66.9494 117.984ZM65.8244 119.609C65.8205 120.207 66.2892 120.625 66.9494 120.625C67.5978 120.625 68.0588 120.207 68.0588 119.609C68.0588 119.008 67.5978 118.598 66.9494 118.602C66.2892 118.598 65.8205 119.008 65.8244 119.609ZM66.2853 124.578V121.758H67.0197V122.57H70.1056V121.758H70.8478V124.578H66.2853ZM67.0197 123.969H70.1056V123.156H67.0197V123.969ZM77.43 123.914V124.516H72.5706V122.5H73.3206V123.914H77.43ZM71.7659 121.984V121.375H74.5863V120.258H75.3206V121.375H78.1644V121.984H71.7659ZM72.1566 120.117C73.4886 119.91 74.5745 119.066 74.5784 118.133V117.852H75.3284V118.133C75.3245 119.086 76.4027 119.922 77.7425 120.117L77.4534 120.695C76.348 120.5 75.387 119.938 74.9495 119.129C74.512 119.938 73.555 120.508 72.4534 120.695L72.1566 120.117ZM81.9809 118.82V119.422H78.5044V118.82H79.8794V117.867H80.6138V118.82H81.9809ZM78.7309 121.453C78.727 120.512 79.3677 119.844 80.2466 119.844C81.1333 119.844 81.7661 120.512 81.77 121.453C81.7661 122.41 81.1333 123.082 80.2466 123.078C79.3677 123.082 78.727 122.41 78.7309 121.453ZM79.3872 121.453C79.3833 122.047 79.7427 122.445 80.2466 122.445C80.7505 122.445 81.1138 122.047 81.1138 121.453C81.1138 120.871 80.7505 120.465 80.2466 120.461C79.7427 120.465 79.3833 120.871 79.3872 121.453ZM82.3013 124.336V117.82H83.0044V120.578H83.8091V117.664H84.5122V124.664H83.8091V121.188H83.0044V124.336H82.3013ZM86.9381 118.094C87.8639 118.098 88.5475 118.785 88.5475 119.773C88.5475 120.758 87.8639 121.43 86.9381 121.43C86.0045 121.43 85.3327 120.758 85.3366 119.773C85.3327 118.785 86.0045 118.098 86.9381 118.094ZM86.0006 119.773C85.9967 120.383 86.3952 120.809 86.9381 120.805C87.4772 120.809 87.8678 120.383 87.8756 119.773C87.8678 119.152 87.4772 118.734 86.9381 118.734C86.3952 118.734 85.9967 119.152 86.0006 119.773ZM86.485 122.797V122.203H91.2428V124.664H90.5084V122.797H86.485ZM89.0319 121.797V117.797H89.7272V119.438H90.5397V117.672H91.2428V121.844H90.5397V120.039H89.7272V121.797H89.0319Z" fill="#707789"/>
<path d="M163.877 124.078C162.772 124.07 161.67 123.414 161.674 121.328C161.674 119.395 162.553 118.266 163.94 118.266C165.03 118.266 165.78 118.949 165.909 119.867H164.901C164.799 119.434 164.456 119.145 163.94 119.148C163.12 119.145 162.663 119.871 162.659 121.062H162.713C163.002 120.574 163.545 120.285 164.167 120.289C165.182 120.285 165.967 121.055 165.963 122.125C165.967 123.25 165.127 124.086 163.877 124.078ZM162.768 122.156C162.776 122.746 163.237 123.254 163.877 123.258C164.506 123.254 164.975 122.77 164.979 122.148C164.975 121.547 164.522 121.062 163.893 121.062C163.256 121.062 162.776 121.566 162.768 122.156ZM167.561 123.445L166.905 125.633H166.163L166.569 123.445H167.561ZM170.339 124.078C168.975 124.078 168.163 123.023 168.167 121.172C168.163 119.328 168.983 118.266 170.339 118.266C171.694 118.266 172.511 119.328 172.511 121.172C172.511 123.027 171.698 124.078 170.339 124.078ZM169.19 121.172C169.19 122.531 169.628 123.223 170.339 123.227C171.046 123.223 171.487 122.531 171.487 121.172C171.483 119.824 171.046 119.113 170.339 119.109C169.632 119.113 169.194 119.824 169.19 121.172ZM175.288 124.078C173.925 124.078 173.112 123.023 173.116 121.172C173.112 119.328 173.933 118.266 175.288 118.266C176.644 118.266 177.46 119.328 177.46 121.172C177.46 123.027 176.647 124.078 175.288 124.078ZM174.14 121.172C174.14 122.531 174.577 123.223 175.288 123.227C175.995 123.223 176.437 122.531 176.437 121.172C176.433 119.824 175.995 119.113 175.288 119.109C174.581 119.113 174.144 119.824 174.14 121.172ZM180.237 124.078C178.874 124.078 178.062 123.023 178.066 121.172C178.062 119.328 178.882 118.266 180.237 118.266C181.593 118.266 182.409 119.328 182.409 121.172C182.409 123.027 181.597 124.078 180.237 124.078ZM179.089 121.172C179.089 122.531 179.527 123.223 180.237 123.227C180.945 123.223 181.386 122.531 181.386 121.172C181.382 119.824 180.945 119.113 180.237 119.109C179.53 119.113 179.093 119.824 179.089 121.172ZM184.015 123.445L183.359 125.633H182.617L183.023 123.445H184.015ZM186.792 124.078C185.429 124.078 184.617 123.023 184.621 121.172C184.617 119.328 185.437 118.266 186.792 118.266C188.148 118.266 188.964 119.328 188.964 121.172C188.964 123.027 188.152 124.078 186.792 124.078ZM185.644 121.172C185.644 122.531 186.082 123.223 186.792 123.227C187.5 123.223 187.941 122.531 187.941 121.172C187.937 119.824 187.5 119.113 186.792 119.109C186.085 119.113 185.648 119.824 185.644 121.172ZM191.742 124.078C190.379 124.078 189.566 123.023 189.57 121.172C189.566 119.328 190.386 118.266 191.742 118.266C193.097 118.266 193.914 119.328 193.914 121.172C193.914 123.027 193.101 124.078 191.742 124.078ZM190.593 121.172C190.593 122.531 191.031 123.223 191.742 123.227C192.449 123.223 192.89 122.531 192.89 121.172C192.886 119.824 192.449 119.113 191.742 119.109C191.035 119.113 190.597 119.824 190.593 121.172ZM196.691 124.078C195.328 124.078 194.515 123.023 194.519 121.172C194.515 119.328 195.336 118.266 196.691 118.266C198.047 118.266 198.863 119.328 198.863 121.172C198.863 123.027 198.051 124.078 196.691 124.078ZM195.543 121.172C195.543 122.531 195.98 123.223 196.691 123.227C197.398 123.223 197.84 122.531 197.84 121.172C197.836 119.824 197.398 119.113 196.691 119.109C195.984 119.113 195.547 119.824 195.543 121.172ZM205.242 117.641V122.984H204.367V122.367H202.984V121.758H204.367V117.641H205.242ZM199.289 120.812C200.59 120.805 202.344 120.793 203.844 120.602L203.891 121.227C203.309 121.324 202.707 121.387 202.109 121.43V122.789H201.242V121.477C200.582 121.504 199.953 121.508 199.398 121.508L199.289 120.812ZM199.828 119.148C199.828 118.402 200.547 117.895 201.594 117.898C202.621 117.895 203.344 118.402 203.352 119.148C203.344 119.906 202.621 120.387 201.594 120.391C200.547 120.387 199.828 119.906 199.828 119.148ZM200.227 124.555V122.469H201.094V123.852H205.406V124.555H200.227ZM200.648 119.148C200.648 119.531 201.027 119.754 201.594 119.758C202.133 119.754 202.52 119.531 202.523 119.148C202.52 118.766 202.133 118.535 201.594 118.539C201.027 118.535 200.648 118.766 200.648 119.148Z" fill="#5A5D6B"/>
<path d="M64.0781 132.664V139.664H63.3281V132.664H64.0781ZM58.3281 137.789C60.1875 136.902 61.0977 135.641 61.2422 134.008H58.6641V133.414H61.9922C61.9922 135.465 61.1211 137.238 58.7188 138.391L58.3281 137.789ZM68.6056 133.281V133.891H66.0588V135.242H68.465V135.836H66.0588V137.406C67.2267 137.398 68.0939 137.355 69.1056 137.188L69.1759 137.789C68.0939 137.969 67.1642 138.004 65.8713 138.008H65.3088V133.281H68.6056ZM69.7228 139.664V132.664H70.465V135.422H71.59V136.047H70.465V139.664H69.7228ZM77.43 138.914V139.516H72.5706V137.5H73.3206V138.914H77.43ZM71.7659 136.984V136.375H74.5863V135.258H75.3206V136.375H78.1644V136.984H71.7659ZM72.1566 135.117C73.4886 134.91 74.5745 134.066 74.5784 133.133V132.852H75.3284V133.133C75.3245 134.086 76.4027 134.922 77.7425 135.117L77.4534 135.695C76.348 135.5 75.387 134.938 74.9495 134.129C74.512 134.938 73.555 135.508 72.4534 135.695L72.1566 135.117ZM81.9809 133.82V134.422H78.5044V133.82H79.8794V132.867H80.6138V133.82H81.9809ZM78.7309 136.453C78.727 135.512 79.3677 134.844 80.2466 134.844C81.1333 134.844 81.7661 135.512 81.77 136.453C81.7661 137.41 81.1333 138.082 80.2466 138.078C79.3677 138.082 78.727 137.41 78.7309 136.453ZM79.3872 136.453C79.3833 137.047 79.7427 137.445 80.2466 137.445C80.7505 137.445 81.1138 137.047 81.1138 136.453C81.1138 135.871 80.7505 135.465 80.2466 135.461C79.7427 135.465 79.3833 135.871 79.3872 136.453ZM82.3013 139.336V132.82H83.0044V135.578H83.8091V132.664H84.5122V139.664H83.8091V136.188H83.0044V139.336H82.3013ZM86.2116 133.312V134.984H87.5475V133.312H88.235V137.938H85.5084V133.312H86.2116ZM86.2116 137.336H87.5475V135.57H86.2116V137.336ZM89.0163 139.32V132.797H89.7194V135.406H90.5866V132.664H91.2975V139.664H90.5866V136.016H89.7194V139.32H89.0163ZM94.4422 133.781C94.4383 134.699 95.0867 135.555 96.1297 135.898L95.7313 136.484C94.9656 136.215 94.3914 135.668 94.0867 134.977C93.782 135.762 93.1883 136.379 92.3719 136.68L91.9734 136.086C93.0672 135.699 93.7 134.766 93.7078 133.719V133.031H94.4422V133.781ZM92.9188 138.352C92.9188 137.531 93.8133 137.051 95.2703 137.055C96.7078 137.051 97.5906 137.531 97.5906 138.352C97.5906 139.18 96.7078 139.652 95.2703 139.648C93.8133 139.652 92.9188 139.18 92.9188 138.352ZM93.6609 138.352C93.657 138.812 94.2586 139.062 95.2703 139.07C96.2742 139.062 96.868 138.812 96.8641 138.352C96.868 137.906 96.2742 137.641 95.2703 137.641C94.2586 137.641 93.657 137.906 93.6609 138.352ZM96.7859 136.891V132.664H97.5281V134.422H98.5438V135.047H97.5281V136.891H96.7859ZM104.376 133.016V133.547C104.38 134.094 104.38 134.727 104.196 135.57H105.188V136.18H98.7822V135.57H103.446C103.634 134.754 103.642 134.156 103.642 133.625H99.5869V133.016H104.376ZM99.5634 139.578V137.07H104.384V139.578H99.5634ZM100.29 138.977H103.649V137.656H100.29V138.977Z" fill="#707789"/>
<path d="M170.362 139.078C169.155 139.078 168.292 138.422 168.268 137.469H169.292C169.319 137.922 169.772 138.223 170.362 138.219C170.983 138.223 171.432 137.879 171.432 137.375C171.432 136.867 170.995 136.504 170.261 136.5H169.753V135.719H170.261C170.862 135.719 171.28 135.383 171.276 134.891C171.28 134.414 170.921 134.094 170.37 134.094C169.839 134.094 169.382 134.391 169.362 134.867H168.386C168.409 133.918 169.272 133.266 170.378 133.266C171.526 133.266 172.268 133.969 172.261 134.836C172.268 135.469 171.847 135.926 171.229 136.055V136.102C172.026 136.207 172.479 136.719 172.472 137.43C172.479 138.387 171.585 139.078 170.362 139.078ZM175.288 139.078C173.925 139.078 173.112 138.023 173.116 136.172C173.112 134.328 173.933 133.266 175.288 133.266C176.644 133.266 177.46 134.328 177.46 136.172C177.46 138.027 176.647 139.078 175.288 139.078ZM174.14 136.172C174.14 137.531 174.577 138.223 175.288 138.227C175.995 138.223 176.437 137.531 176.437 136.172C176.433 134.824 175.995 134.113 175.288 134.109C174.581 134.113 174.144 134.824 174.14 136.172ZM180.237 139.078C178.874 139.078 178.062 138.023 178.066 136.172C178.062 134.328 178.882 133.266 180.237 133.266C181.593 133.266 182.409 134.328 182.409 136.172C182.409 138.027 181.597 139.078 180.237 139.078ZM179.089 136.172C179.089 137.531 179.527 138.223 180.237 138.227C180.945 138.223 181.386 137.531 181.386 136.172C181.382 134.824 180.945 134.113 180.237 134.109C179.53 134.113 179.093 134.824 179.089 136.172ZM184.015 138.445L183.359 140.633H182.617L183.023 138.445H184.015ZM186.792 139.078C185.429 139.078 184.617 138.023 184.621 136.172C184.617 134.328 185.437 133.266 186.792 133.266C188.148 133.266 188.964 134.328 188.964 136.172C188.964 138.027 188.152 139.078 186.792 139.078ZM185.644 136.172C185.644 137.531 186.082 138.223 186.792 138.227C187.5 138.223 187.941 137.531 187.941 136.172C187.937 134.824 187.5 134.113 186.792 134.109C186.085 134.113 185.648 134.824 185.644 136.172ZM191.742 139.078C190.379 139.078 189.566 138.023 189.57 136.172C189.566 134.328 190.386 133.266 191.742 133.266C193.097 133.266 193.914 134.328 193.914 136.172C193.914 138.027 193.101 139.078 191.742 139.078ZM190.593 136.172C190.593 137.531 191.031 138.223 191.742 138.227C192.449 138.223 192.89 137.531 192.89 136.172C192.886 134.824 192.449 134.113 191.742 134.109C191.035 134.113 190.597 134.824 190.593 136.172ZM196.691 139.078C195.328 139.078 194.515 138.023 194.519 136.172C194.515 134.328 195.336 133.266 196.691 133.266C198.047 133.266 198.863 134.328 198.863 136.172C198.863 138.027 198.051 139.078 196.691 139.078ZM195.543 136.172C195.543 137.531 195.98 138.223 196.691 138.227C197.398 138.223 197.84 137.531 197.84 136.172C197.836 134.824 197.398 134.113 196.691 134.109C195.984 134.113 195.547 134.824 195.543 136.172ZM205.242 132.641V137.984H204.367V137.367H202.984V136.758H204.367V132.641H205.242ZM199.289 135.812C200.59 135.805 202.344 135.793 203.844 135.602L203.891 136.227C203.309 136.324 202.707 136.387 202.109 136.43V137.789H201.242V136.477C200.582 136.504 199.953 136.508 199.398 136.508L199.289 135.812ZM199.828 134.148C199.828 133.402 200.547 132.895 201.594 132.898C202.621 132.895 203.344 133.402 203.352 134.148C203.344 134.906 202.621 135.387 201.594 135.391C200.547 135.387 199.828 134.906 199.828 134.148ZM200.227 139.555V137.469H201.094V138.852H205.406V139.555H200.227ZM200.648 134.148C200.648 134.531 201.027 134.754 201.594 134.758C202.133 134.754 202.52 134.531 202.523 134.148C202.52 133.766 202.133 133.535 201.594 133.539C201.027 133.535 200.648 133.766 200.648 134.148Z" fill="#5A5D6B"/>
<path d="M64.75 148.82V149.43H63.7578V150.312H64.75V150.922H63.7578V152.156H63.0156V147.664H63.7578V148.82H64.75ZM58.2656 149V148.414H59.9844V147.609H60.7266V148.414H62.4375V149H58.2656ZM58.6484 150.57C58.6445 149.816 59.332 149.324 60.3516 149.32C61.3594 149.324 62.0469 149.816 62.0469 150.57C62.0469 151.32 61.3594 151.809 60.3516 151.805C59.332 151.809 58.6445 151.32 58.6484 150.57ZM59.2031 153.438C59.1953 152.664 60.0781 152.211 61.5234 152.211C62.9492 152.211 63.8359 152.664 63.8359 153.438C63.8359 154.199 62.9492 154.652 61.5234 154.648C60.0781 154.652 59.1953 154.199 59.2031 153.438ZM59.3672 150.57C59.3594 150.984 59.7578 151.242 60.3516 151.242C60.9453 151.242 61.3438 150.984 61.3516 150.57C61.3438 150.145 60.9453 149.875 60.3516 149.875C59.7578 149.875 59.3594 150.145 59.3672 150.57ZM59.9375 153.438C59.9336 153.848 60.5156 154.086 61.5234 154.086C62.5156 154.086 63.0977 153.848 63.1016 153.438C63.0977 153.012 62.5156 152.785 61.5234 152.781C60.5156 152.785 59.9336 153.012 59.9375 153.438ZM71.0353 148.438V149.047H65.34V148.438H67.8322V147.633H68.5666V148.438H71.0353ZM65.0119 152.805V152.195H71.4181V152.805H68.5666V154.672H67.8322V152.805H65.0119ZM65.8713 150.586C65.8673 149.82 66.7423 149.402 68.1994 149.406C69.6525 149.402 70.5275 149.82 70.5275 150.586C70.5275 151.332 69.6525 151.754 68.1994 151.758C66.7423 151.754 65.8673 151.332 65.8713 150.586ZM66.6369 150.586C66.6369 150.977 67.1955 151.199 68.1994 151.195C69.1994 151.199 69.758 150.977 69.7619 150.586C69.758 150.184 69.1994 149.961 68.1994 149.961C67.1955 149.961 66.6369 150.184 66.6369 150.586ZM77.5628 147.664V154.664H76.8206V147.664H77.5628ZM71.8675 152.75C72.9495 152.266 73.6683 151.086 73.6722 149.914V149.453H72.0784V148.859H73.6644V147.805H74.3988V148.859H75.9691V149.453H74.3988V149.914C74.4027 151.031 75.137 152.172 76.2269 152.633L75.8206 153.203C75.012 152.852 74.3714 152.121 74.0472 151.238C73.7308 152.176 73.0941 152.953 72.2816 153.32L71.8675 152.75ZM84.9263 153.203V153.828H78.52V153.203H80.27V151.969H79.3013V149.742H83.4106V148.766H79.2856V148.156H84.145V150.344H80.0356V151.359H84.3091V151.969H83.2466V153.203H84.9263ZM80.9888 153.203H82.52V151.969H80.9888V153.203ZM91.0709 147.664V154.68H90.3288V147.664H91.0709ZM85.6647 153V148.25H86.4069V150.047H88.2897V148.25H89.0241V153H85.6647ZM86.4069 152.391H88.2897V150.633H86.4069V152.391Z" fill="#707789"/>
<path d="M168.097 152.945V152.133L170.542 148.344H171.807V152.109H172.55V152.945H171.807V154H170.839V152.945H168.097ZM169.136 152.109H170.854V149.5H170.792L169.136 152.07V152.109ZM175.288 154.078C173.925 154.078 173.112 153.023 173.116 151.172C173.112 149.328 173.933 148.266 175.288 148.266C176.644 148.266 177.46 149.328 177.46 151.172C177.46 153.027 176.647 154.078 175.288 154.078ZM174.14 151.172C174.14 152.531 174.577 153.223 175.288 153.227C175.995 153.223 176.437 152.531 176.437 151.172C176.433 149.824 175.995 149.113 175.288 149.109C174.581 149.113 174.144 149.824 174.14 151.172ZM180.237 154.078C178.874 154.078 178.062 153.023 178.066 151.172C178.062 149.328 178.882 148.266 180.237 148.266C181.593 148.266 182.409 149.328 182.409 151.172C182.409 153.027 181.597 154.078 180.237 154.078ZM179.089 151.172C179.089 152.531 179.527 153.223 180.237 153.227C180.945 153.223 181.386 152.531 181.386 151.172C181.382 149.824 180.945 149.113 180.237 149.109C179.53 149.113 179.093 149.824 179.089 151.172ZM184.015 153.445L183.359 155.633H182.617L183.023 153.445H184.015ZM186.792 154.078C185.429 154.078 184.617 153.023 184.621 151.172C184.617 149.328 185.437 148.266 186.792 148.266C188.148 148.266 188.964 149.328 188.964 151.172C188.964 153.027 188.152 154.078 186.792 154.078ZM185.644 151.172C185.644 152.531 186.082 153.223 186.792 153.227C187.5 153.223 187.941 152.531 187.941 151.172C187.937 149.824 187.5 149.113 186.792 149.109C186.085 149.113 185.648 149.824 185.644 151.172ZM191.742 154.078C190.379 154.078 189.566 153.023 189.57 151.172C189.566 149.328 190.386 148.266 191.742 148.266C193.097 148.266 193.914 149.328 193.914 151.172C193.914 153.027 193.101 154.078 191.742 154.078ZM190.593 151.172C190.593 152.531 191.031 153.223 191.742 153.227C192.449 153.223 192.89 152.531 192.89 151.172C192.886 149.824 192.449 149.113 191.742 149.109C191.035 149.113 190.597 149.824 190.593 151.172ZM196.691 154.078C195.328 154.078 194.515 153.023 194.519 151.172C194.515 149.328 195.336 148.266 196.691 148.266C198.047 148.266 198.863 149.328 198.863 151.172C198.863 153.027 198.051 154.078 196.691 154.078ZM195.543 151.172C195.543 152.531 195.98 153.223 196.691 153.227C197.398 153.223 197.84 152.531 197.84 151.172C197.836 149.824 197.398 149.113 196.691 149.109C195.984 149.113 195.547 149.824 195.543 151.172ZM205.242 147.641V152.984H204.367V152.367H202.984V151.758H204.367V147.641H205.242ZM199.289 150.812C200.59 150.805 202.344 150.793 203.844 150.602L203.891 151.227C203.309 151.324 202.707 151.387 202.109 151.43V152.789H201.242V151.477C200.582 151.504 199.953 151.508 199.398 151.508L199.289 150.812ZM199.828 149.148C199.828 148.402 200.547 147.895 201.594 147.898C202.621 147.895 203.344 148.402 203.352 149.148C203.344 149.906 202.621 150.387 201.594 150.391C200.547 150.387 199.828 149.906 199.828 149.148ZM200.227 154.555V152.469H201.094V153.852H205.406V154.555H200.227ZM200.648 149.148C200.648 149.531 201.027 149.754 201.594 149.758C202.133 149.754 202.52 149.531 202.523 149.148C202.52 148.766 202.133 148.535 201.594 148.539C201.027 148.535 200.648 148.766 200.648 149.148Z" fill="#5A5D6B"/>
<path d="M64.0547 162.664V169.664H63.3125V162.664H64.0547ZM58.3594 167.75C59.4414 167.266 60.1602 166.086 60.1641 164.914V164.453H58.5703V163.859H60.1562V162.805H60.8906V163.859H62.4609V164.453H60.8906V164.914C60.8945 166.031 61.6289 167.172 62.7188 167.633L62.3125 168.203C61.5039 167.852 60.8633 167.121 60.5391 166.238C60.2227 167.176 59.5859 167.953 58.7734 168.32L58.3594 167.75ZM71.4181 168.203V168.828H65.0119V168.203H66.7619V166.969H65.7931V164.742H69.9025V163.766H65.7775V163.156H70.6369V165.344H66.5275V166.359H70.8009V166.969H69.7384V168.203H71.4181ZM67.4806 168.203H69.0119V166.969H67.4806V168.203ZM77.5628 162.664V169.68H76.8206V162.664H77.5628ZM72.1566 168V163.25H72.8988V165.047H74.7816V163.25H75.5159V168H72.1566ZM72.8988 167.391H74.7816V165.633H72.8988V167.391ZM80.9341 163.781C80.9302 164.699 81.5786 165.555 82.6216 165.898L82.2231 166.484C81.4575 166.215 80.8833 165.668 80.5786 164.977C80.2739 165.762 79.6802 166.379 78.8638 166.68L78.4653 166.086C79.5591 165.699 80.1919 164.766 80.1997 163.719V163.031H80.9341V163.781ZM79.4106 168.352C79.4106 167.531 80.3052 167.051 81.7622 167.055C83.1997 167.051 84.0825 167.531 84.0825 168.352C84.0825 169.18 83.1997 169.652 81.7622 169.648C80.3052 169.652 79.4106 169.18 79.4106 168.352ZM80.1528 168.352C80.1489 168.812 80.7505 169.062 81.7622 169.07C82.7661 169.062 83.3598 168.812 83.3559 168.352C83.3598 167.906 82.7661 167.641 81.7622 167.641C80.7505 167.641 80.1489 167.906 80.1528 168.352ZM83.2778 166.891V162.664H84.02V164.422H85.0356V165.047H84.02V166.891H83.2778ZM91.2897 162.664V169.664H90.5866V162.664H91.2897ZM85.235 167.641C86.7233 166.758 87.4342 165.582 87.5631 164.141H85.5788V163.531H88.2975C88.2975 163.891 88.2702 164.238 88.2155 164.578H89.1569V162.844H89.86V169.32H89.1569V166.938H87.9616V166.328H89.1569V165.188H88.0788C87.7389 166.363 86.9928 167.387 85.6725 168.172L85.235 167.641Z" fill="#707789"/>
<path d="M193.797 166.234V167.055H191.25V166.234H193.797ZM196.691 169.078C195.328 169.078 194.515 168.023 194.519 166.172C194.515 164.328 195.336 163.266 196.691 163.266C198.047 163.266 198.863 164.328 198.863 166.172C198.863 168.027 198.051 169.078 196.691 169.078ZM195.543 166.172C195.543 167.531 195.98 168.223 196.691 168.227C197.398 168.223 197.84 167.531 197.84 166.172C197.836 164.824 197.398 164.113 196.691 164.109C195.984 164.113 195.547 164.824 195.543 166.172ZM205.242 162.641V167.984H204.367V167.367H202.984V166.758H204.367V162.641H205.242ZM199.289 165.812C200.59 165.805 202.344 165.793 203.844 165.602L203.891 166.227C203.309 166.324 202.707 166.387 202.109 166.43V167.789H201.242V166.477C200.582 166.504 199.953 166.508 199.398 166.508L199.289 165.812ZM199.828 164.148C199.828 163.402 200.547 162.895 201.594 162.898C202.621 162.895 203.344 163.402 203.352 164.148C203.344 164.906 202.621 165.387 201.594 165.391C200.547 165.387 199.828 164.906 199.828 164.148ZM200.227 169.555V167.469H201.094V168.852H205.406V169.555H200.227ZM200.648 164.148C200.648 164.531 201.027 164.754 201.594 164.758C202.133 164.754 202.52 164.531 202.523 164.148C202.52 163.766 202.133 163.535 201.594 163.539C201.027 163.535 200.648 163.766 200.648 164.148Z" fill="#5A5D6B"/>
<path d="M60.8516 178.922C60.8516 179.82 61.5195 180.684 62.6016 181.023L62.2188 181.602C61.4141 181.336 60.8047 180.785 60.4883 180.082C60.1719 180.84 59.5508 181.441 58.7188 181.734L58.3359 181.164C59.4258 180.785 60.0977 179.871 60.1016 178.922V178.727H58.5312V178.125H62.3906V178.727H60.8516V178.922ZM59.3203 182.844V182.242H64.0625V184.664H63.3203V182.844H59.3203ZM63.3203 181.891V177.664H64.0625V181.891H63.3203ZM66.5822 177.773V178.383H69.8244V177.773H70.5666V180.094H65.8478V177.773H66.5822ZM65.0119 181.203V180.602H71.3947V181.203H68.5666V181.805H70.59V183.438H66.5119V184.023H70.7853V184.594H65.7853V182.906H69.8556V182.359H65.7775V181.805H67.8244V181.203H65.0119ZM66.5822 179.531H69.8244V178.93H66.5822V179.531ZM77.5628 177.664V184.664H76.8206V177.664H77.5628ZM71.8675 182.75C72.9495 182.266 73.6683 181.086 73.6722 179.914V179.453H72.0784V178.859H73.6644V177.805H74.3988V178.859H75.9691V179.453H74.3988V179.914C74.4027 181.031 75.137 182.172 76.2269 182.633L75.8206 183.203C75.012 182.852 74.3714 182.121 74.0472 181.238C73.7308 182.176 73.0941 182.953 72.2816 183.32L71.8675 182.75ZM84.9263 183.203V183.828H78.52V183.203H80.27V181.969H79.3013V179.742H83.4106V178.766H79.2856V178.156H84.145V180.344H80.0356V181.359H84.3091V181.969H83.2466V183.203H84.9263ZM80.9888 183.203H82.52V181.969H80.9888V183.203ZM91.0709 177.664V184.68H90.3288V177.664H91.0709ZM85.6647 183V178.25H86.4069V180.047H88.2897V178.25H89.0241V183H85.6647ZM86.4069 182.391H88.2897V180.633H86.4069V182.391Z" fill="#707789"/>
<path d="M170.362 184.078C169.155 184.078 168.292 183.422 168.268 182.469H169.292C169.319 182.922 169.772 183.223 170.362 183.219C170.983 183.223 171.432 182.879 171.432 182.375C171.432 181.867 170.995 181.504 170.261 181.5H169.753V180.719H170.261C170.862 180.719 171.28 180.383 171.276 179.891C171.28 179.414 170.921 179.094 170.37 179.094C169.839 179.094 169.382 179.391 169.362 179.867H168.386C168.409 178.918 169.272 178.266 170.378 178.266C171.526 178.266 172.268 178.969 172.261 179.836C172.268 180.469 171.847 180.926 171.229 181.055V181.102C172.026 181.207 172.479 181.719 172.472 182.43C172.479 183.387 171.585 184.078 170.362 184.078ZM175.288 184.078C173.925 184.078 173.112 183.023 173.116 181.172C173.112 179.328 173.933 178.266 175.288 178.266C176.644 178.266 177.46 179.328 177.46 181.172C177.46 183.027 176.647 184.078 175.288 184.078ZM174.14 181.172C174.14 182.531 174.577 183.223 175.288 183.227C175.995 183.223 176.437 182.531 176.437 181.172C176.433 179.824 175.995 179.113 175.288 179.109C174.581 179.113 174.144 179.824 174.14 181.172ZM180.237 184.078C178.874 184.078 178.062 183.023 178.066 181.172C178.062 179.328 178.882 178.266 180.237 178.266C181.593 178.266 182.409 179.328 182.409 181.172C182.409 183.027 181.597 184.078 180.237 184.078ZM179.089 181.172C179.089 182.531 179.527 183.223 180.237 183.227C180.945 183.223 181.386 182.531 181.386 181.172C181.382 179.824 180.945 179.113 180.237 179.109C179.53 179.113 179.093 179.824 179.089 181.172ZM184.015 183.445L183.359 185.633H182.617L183.023 183.445H184.015ZM186.792 184.078C185.429 184.078 184.617 183.023 184.621 181.172C184.617 179.328 185.437 178.266 186.792 178.266C188.148 178.266 188.964 179.328 188.964 181.172C188.964 183.027 188.152 184.078 186.792 184.078ZM185.644 181.172C185.644 182.531 186.082 183.223 186.792 183.227C187.5 183.223 187.941 182.531 187.941 181.172C187.937 179.824 187.5 179.113 186.792 179.109C186.085 179.113 185.648 179.824 185.644 181.172ZM191.742 184.078C190.379 184.078 189.566 183.023 189.57 181.172C189.566 179.328 190.386 178.266 191.742 178.266C193.097 178.266 193.914 179.328 193.914 181.172C193.914 183.027 193.101 184.078 191.742 184.078ZM190.593 181.172C190.593 182.531 191.031 183.223 191.742 183.227C192.449 183.223 192.89 182.531 192.89 181.172C192.886 179.824 192.449 179.113 191.742 179.109C191.035 179.113 190.597 179.824 190.593 181.172ZM196.691 184.078C195.328 184.078 194.515 183.023 194.519 181.172C194.515 179.328 195.336 178.266 196.691 178.266C198.047 178.266 198.863 179.328 198.863 181.172C198.863 183.027 198.051 184.078 196.691 184.078ZM195.543 181.172C195.543 182.531 195.98 183.223 196.691 183.227C197.398 183.223 197.84 182.531 197.84 181.172C197.836 179.824 197.398 179.113 196.691 179.109C195.984 179.113 195.547 179.824 195.543 181.172ZM205.242 177.641V182.984H204.367V182.367H202.984V181.758H204.367V177.641H205.242ZM199.289 180.812C200.59 180.805 202.344 180.793 203.844 180.602L203.891 181.227C203.309 181.324 202.707 181.387 202.109 181.43V182.789H201.242V181.477C200.582 181.504 199.953 181.508 199.398 181.508L199.289 180.812ZM199.828 179.148C199.828 178.402 200.547 177.895 201.594 177.898C202.621 177.895 203.344 178.402 203.352 179.148C203.344 179.906 202.621 180.387 201.594 180.391C200.547 180.387 199.828 179.906 199.828 179.148ZM200.227 184.555V182.469H201.094V183.852H205.406V184.555H200.227ZM200.648 179.148C200.648 179.531 201.027 179.754 201.594 179.758C202.133 179.754 202.52 179.531 202.523 179.148C202.52 178.766 202.133 178.535 201.594 178.539C201.027 178.535 200.648 178.766 200.648 179.148Z" fill="#5A5D6B"/>
<rect x="153" y="100" width="53" height="12" fill="white"/>
<rect x="153" y="71" width="53" height="12" fill="white"/>
<rect x="153" y="116" width="53" height="12" fill="white"/>
<rect x="153" y="132" width="53" height="13" fill="white"/>
<g filter="url(#filter0_d_803_11527)">
<rect x="10" y="142.504" width="244" height="57.4962" rx="4.06831" fill="white"/>
<rect x="16" y="151.004" width="73" height="40" rx="20" fill="#1B1C23"/>
<path d="M34.7217 165.893V176.565H33.4009V165.893H34.7217ZM26.1958 170.433C26.1899 168.134 27.3632 166.671 28.9788 166.671C30.5767 166.671 31.7559 168.134 31.7618 170.433C31.7559 172.75 30.5767 174.207 28.9788 174.207C27.3632 174.207 26.1899 172.75 26.1958 170.433ZM27.4575 170.433C27.4575 172.072 28.0767 173.022 28.9788 173.027C29.875 173.022 30.4882 172.072 30.4882 170.433C30.4882 168.806 29.875 167.851 28.9788 167.851C28.0767 167.851 27.4575 168.806 27.4575 170.433ZM39.5038 166.636C41.196 166.63 42.4283 167.697 42.4401 169.207C42.4283 170.722 41.196 171.783 39.5038 171.789C37.8292 171.783 36.5733 170.722 36.5792 169.207C36.5733 167.697 37.8292 166.63 39.5038 166.636ZM36.0958 173.263C38.0179 173.263 40.6771 173.24 42.9825 172.91L43.0887 173.865C40.7007 174.319 38.1417 174.336 36.2608 174.336L36.0958 173.263ZM37.8764 169.207C37.8705 170.097 38.5722 170.645 39.5038 170.645C40.4472 170.645 41.1488 170.097 41.1547 169.207C41.1488 168.322 40.4531 167.768 39.5038 167.768C38.5722 167.768 37.8705 168.322 37.8764 169.207ZM43.6193 176.565V165.893H44.9283V176.565H43.6193ZM52.6528 172.827C52.6528 173.717 53.0597 174.643 53.9736 175.233C54.9052 174.602 55.3356 173.635 55.3415 172.827V172.391H56.6269V172.827C56.621 173.941 57.2814 174.991 58.6788 175.433L58.042 176.388C57.0042 176.04 56.3203 175.362 55.9488 174.507C55.6009 175.351 54.9759 176.094 54.009 176.483C52.9948 176.111 52.358 175.392 52.0219 174.549C51.6387 175.368 50.9606 176.035 49.9759 176.388L49.3274 175.433C50.7071 174.95 51.3733 173.865 51.3792 172.827V172.391H52.6528V172.827ZM49.0561 169.006C49.0561 167.509 50.2825 166.471 51.9335 166.471C53.5785 166.471 54.805 167.509 54.7991 169.006C54.805 170.486 53.5785 171.536 51.9335 171.53C50.2825 171.536 49.0561 170.486 49.0561 169.006ZM50.3415 169.006C50.3356 169.879 51.0019 170.439 51.9335 170.445C52.8474 170.439 53.5137 169.879 53.5137 169.006C53.5137 168.134 52.8474 167.573 51.9335 167.579C51.0019 167.573 50.3356 168.134 50.3415 169.006ZM56.4264 171.943V165.905H57.7472V171.943H56.4264ZM61.975 166.671C63.4137 166.671 64.4809 167.874 64.6696 169.82H66.7038V165.893H68.0009V176.565H66.7038V170.881H64.6814C64.5399 172.939 63.455 174.207 61.975 174.207C60.3712 174.207 59.2333 172.75 59.2392 170.433C59.2333 168.134 60.3712 166.671 61.975 166.671ZM60.5009 170.433C60.495 172.072 61.0965 173.022 61.975 173.027C62.8594 173.022 63.455 172.072 63.4609 170.433C63.455 168.806 62.8594 167.851 61.975 167.851C61.0965 167.851 60.495 168.806 60.5009 170.433ZM78.9976 174.183V175.256H69.2571V174.183H71.5094V171.489C70.6604 170.999 70.1474 170.233 70.1533 169.289C70.1474 167.591 71.8101 166.471 74.1038 166.471C76.4092 166.471 78.0837 167.591 78.0778 169.289C78.0837 170.221 77.5826 170.97 76.7571 171.459V174.183H78.9976ZM71.4387 169.289C71.4328 170.38 72.5118 171.076 74.1038 171.07C75.6899 171.076 76.7925 170.38 76.7925 169.289C76.7925 168.181 75.6899 167.503 74.1038 167.509C72.5118 167.503 71.4328 168.181 71.4387 169.289ZM72.8066 174.183H75.4245V171.96C75.0177 172.049 74.5755 172.096 74.1038 172.096C73.6439 172.096 73.2076 172.049 72.8066 171.966V174.183Z" fill="white"/>
<rect x="101" y="151.004" width="145" height="40" rx="20" fill="#586CE1"/>
<path d="M144.903 166.412V167.237C144.909 168.069 144.909 169.012 144.644 170.268H146.094V171.329H136.354V170.268H143.317C143.571 169.112 143.594 168.24 143.594 167.461H137.557V166.412H144.903ZM137.521 176.424V172.568H144.892V176.424H137.521ZM138.807 175.362H143.594V173.594H138.807V175.362ZM149.06 166.553C150.47 166.548 151.513 167.609 151.513 169.124C151.513 170.645 150.47 171.677 149.06 171.683C147.639 171.677 146.613 170.645 146.619 169.124C146.613 167.609 147.639 166.548 149.06 166.553ZM147.799 169.124C147.787 170.009 148.317 170.586 149.06 170.575C149.792 170.586 150.322 170.009 150.322 169.124C150.322 168.234 149.792 167.668 149.06 167.674C148.317 167.668 147.787 168.234 147.799 169.124ZM148.365 173.818V172.768H155.664V176.553H154.355V173.818H148.365ZM152.15 172.19V166.105H153.365V168.546H154.414V165.905H155.664V172.261H154.414V169.596H153.365V172.19H152.15ZM167.811 165.905V169.006H169.25V170.091H167.811V173.11H166.502V165.905H167.811ZM159.273 171.836C160.075 171.836 161.001 171.831 161.962 171.807V171.152C160.777 171.005 160.022 170.433 160.028 169.596C160.022 168.611 161.054 168.01 162.599 168.016C164.149 168.01 165.169 168.611 165.169 169.596C165.169 170.427 164.438 170.993 163.271 171.147V171.76C164.179 171.713 165.093 171.642 165.948 171.53L166.054 172.438C163.784 172.839 161.29 172.862 159.415 172.862L159.273 171.836ZM159.544 167.709V166.742H161.962V165.811H163.271V166.742H165.665V167.709H159.544ZM160.617 174.596V173.57H167.811V176.553H166.502V174.596H160.617ZM161.29 169.596C161.278 170.038 161.773 170.315 162.599 170.303C163.424 170.315 163.919 170.038 163.919 169.596C163.919 169.13 163.424 168.894 162.599 168.9C161.773 168.894 161.278 169.13 161.29 169.596ZM178.442 165.905V173.605H177.121V165.905H178.442ZM169.751 169.266C169.751 167.715 171.007 166.607 172.628 166.601C174.25 166.607 175.5 167.715 175.494 169.266C175.5 170.84 174.25 171.943 172.628 171.943C171.007 171.943 169.751 170.84 169.751 169.266ZM171.036 169.266C171.03 170.209 171.714 170.799 172.628 170.799C173.519 170.799 174.208 170.209 174.208 169.266C174.208 168.346 173.519 167.744 172.628 167.744C171.714 167.744 171.03 168.346 171.036 169.266ZM171.39 176.341V172.827H172.711V175.28H178.737V176.341H171.39ZM188.873 165.905V172.473H187.623V169.773H186.608V172.344H185.382V166.058H186.608V168.7H187.623V165.905H188.873ZM179.698 168.027V166.99H181.715V165.952H183.012V166.99H185.005V168.027H179.698ZM180.075 170.28C180.064 169.165 181.031 168.434 182.363 168.428C183.719 168.434 184.675 169.165 184.686 170.28C184.675 171.377 183.719 172.125 182.363 172.131C181.031 172.125 180.064 171.377 180.075 170.28ZM180.382 175.433C181.744 175.02 182.44 174.018 182.434 173.063V172.803H183.731V173.063C183.725 173.894 184.12 174.743 185.017 175.274C185.925 174.708 186.343 173.806 186.349 173.063V172.803H187.646V173.063C187.646 174.077 188.313 175.056 189.71 175.433L189.097 176.424C188.053 176.094 187.351 175.433 186.986 174.619C186.644 175.427 186.019 176.152 185.04 176.518C184.038 176.164 183.407 175.48 183.071 174.673C182.682 175.451 181.986 176.088 180.995 176.424L180.382 175.433ZM181.243 170.28C181.243 170.84 181.697 171.176 182.363 171.176C183.035 171.176 183.495 170.84 183.495 170.28C183.495 169.708 183.035 169.384 182.363 169.384C181.697 169.384 181.243 169.708 181.243 170.28ZM192.865 166.671C194.303 166.671 195.371 167.874 195.559 169.82H197.593V165.893H198.891V176.565H197.593V170.881H195.571C195.429 172.939 194.345 174.207 192.865 174.207C191.261 174.207 190.123 172.75 190.129 170.433C190.123 168.134 191.261 166.671 192.865 166.671ZM191.391 170.433C191.385 172.072 191.986 173.022 192.865 173.027C193.749 173.022 194.345 172.072 194.35 170.433C194.345 168.806 193.749 167.851 192.865 167.851C191.986 167.851 191.385 168.806 191.391 170.433ZM209.887 174.183V175.256H200.147V174.183H202.399V171.489C201.55 170.999 201.037 170.233 201.043 169.289C201.037 167.591 202.7 166.471 204.993 166.471C207.299 166.471 208.973 167.591 208.967 169.289C208.973 170.221 208.472 170.97 207.647 171.459V174.183H209.887ZM202.328 169.289C202.322 170.38 203.401 171.076 204.993 171.07C206.579 171.076 207.682 170.38 207.682 169.289C207.682 168.181 206.579 167.503 204.993 167.509C203.401 167.503 202.322 168.181 202.328 169.289ZM203.696 174.183H206.314V171.96C205.907 172.049 205.465 172.096 204.993 172.096C204.533 172.096 204.097 172.049 203.696 171.966V174.183Z" fill="white"/>
</g>
<defs>
<filter id="filter0_d_803_11527" x="0.337774" y="132.842" width="263.324" height="76.8205" filterUnits="userSpaceOnUse" color-interpolation-filters="sRGB">
<feFlood flood-opacity="0" result="BackgroundImageFix"/>
<feColorMatrix in="SourceAlpha" type="matrix" values="0 0 0 0 0 0 0 0 0 0 0 0 0 0 0 0 0 0 127 0" result="hardAlpha"/>
<feOffset/>
<feGaussianBlur stdDeviation="4.83111"/>
<feComposite in2="hardAlpha" operator="out"/>
<feColorMatrix type="matrix" values="0 0 0 0 0.484877 0 0 0 0 0.514787 0 0 0 0 0.559652 0 0 0 1 0"/>
<feBlend mode="normal" in2="BackgroundImageFix" result="effect1_dropShadow_803_11527"/>
<feBlend mode="normal" in="SourceGraphic" in2="effect1_dropShadow_803_11527" result="shape"/>
</filter>
</defs>
</svg>
